{"glyphs":{"0":{"ha":722,"x_min":64,"x_max":657,"o":"m 657 497 q 640 282 657 376 q 588 122 624 188 q 496 21 553 56 q 360 -14 439 -14 q 197 41 263 -14 q 97 209 131 96 q 64 497 64 322 q 94 776 64 663 q 190 948 125 889 q 360 1007 256 1007 q 526 948 460 1007 q 624 775 592 889 q 657 497 657 661 m 185 497 q 202 271 185 361 q 258 135 219 181 q 360 90 296 90 q 462 135 424 90 q 518 270 500 179 q 536 497 536 361 q 518 722 536 632 q 462 856 500 811 q 360 901 424 901 q 258 857 296 901 q 202 723 219 813 q 185 497 185 633 z "},"1":{"ha":722,"x_min":110,"x_max":463,"o":"m 463 0 l 344 0 l 344 683 q 345 749 344 721 q 347 805 346 778 q 350 860 349 832 q 315 826 332 842 q 272 788 299 811 l 174 701 l 110 779 l 361 992 l 463 992 l 463 0 z "},"2":{"ha":722,"x_min":60,"x_max":651,"o":"m 651 0 l 60 0 l 60 96 l 296 368 q 410 506 365 446 q 476 620 454 565 q 497 742 497 675 q 454 860 497 818 q 339 901 411 901 q 230 880 278 901 q 132 817 182 858 l 68 897 q 149 955 107 931 q 239 992 190 979 q 342 1006 288 1006 q 490 974 429 1006 q 585 884 551 942 q 619 747 619 826 q 592 602 619 669 q 516 469 565 535 q 397 328 467 404 l 207 114 l 207 108 l 651 108 l 651 0 z "},"3":{"ha":722,"x_min":58,"x_max":647,"o":"m 622 761 q 599 649 622 697 q 533 569 576 601 q 432 522 490 536 l 432 517 q 593 439 539 501 q 647 278 647 376 q 610 126 647 193 q 497 23 572 60 q 306 -14 421 -14 q 174 -3 235 -14 q 58 35 114 8 l 58 150 q 179 105 115 121 q 303 89 243 89 q 470 141 418 89 q 522 282 522 193 q 493 383 522 343 q 408 441 464 422 q 272 460 353 460 l 193 460 l 193 564 l 275 564 q 397 588 347 564 q 474 653 447 611 q 500 751 500 696 q 457 863 500 824 q 338 903 414 903 q 255 894 292 903 q 185 867 218 885 q 119 825 153 849 l 61 907 q 184 978 114 951 q 342 1006 254 1006 q 551 938 481 1006 q 622 761 622 869 z "},"4":{"ha":722,"x_min":28,"x_max":697,"o":"m 697 221 l 568 221 l 568 0 l 451 0 l 451 221 l 28 221 l 28 322 l 443 999 l 568 999 l 568 328 l 697 328 l 697 221 m 451 664 q 452 719 451 693 q 454 771 453 746 q 456 818 456 796 q 457 860 457 840 l 453 860 q 426 801 442 832 q 397 747 411 771 l 140 328 l 451 328 l 451 664 z "},"5":{"ha":722,"x_min":81,"x_max":649,"o":"m 350 608 q 509 573 442 608 q 613 473 576 538 q 649 318 649 408 q 609 142 649 217 q 494 26 569 67 q 310 -14 418 -14 q 181 -1 240 -14 q 81 36 122 11 l 81 151 q 188 106 126 122 q 308 89 250 89 q 425 115 376 89 q 500 191 474 142 q 526 308 526 240 q 473 456 526 406 q 310 507 419 507 q 229 501 272 507 q 154 486 186 494 l 99 528 l 133 992 l 585 992 l 585 882 l 235 882 l 213 594 q 274 604 238 600 q 350 608 310 608 z "},"6":{"ha":722,"x_min":71,"x_max":660,"o":"m 71 422 q 83 604 71 518 q 122 763 94 690 q 195 891 149 836 q 311 976 242 946 q 478 1006 381 1006 q 538 1003 507 1006 q 592 993 569 1000 l 592 889 q 540 900 568 896 q 481 904 511 904 q 347 875 401 904 q 258 793 292 846 q 209 668 225 740 q 189 508 193 596 l 196 508 q 244 569 215 543 q 312 609 272 594 q 401 624 351 624 q 540 586 482 624 q 628 479 597 549 q 660 318 660 410 q 626 144 660 218 q 528 28 592 69 q 375 -14 465 -14 q 253 13 308 -14 q 156 95 197 40 q 93 232 115 150 q 71 422 71 314 m 374 89 q 494 145 449 89 q 540 317 540 201 q 499 470 540 415 q 376 525 458 525 q 278 499 319 525 q 215 432 238 472 q 193 347 193 392 q 203 258 193 303 q 237 174 214 213 q 294 113 260 136 q 374 89 328 89 z "},"7":{"ha":722,"x_min":54,"x_max":660,"o":"m 167 0 l 535 882 l 54 882 l 54 992 l 660 992 l 660 900 l 297 0 l 167 0 z "},"8":{"ha":722,"x_min":61,"x_max":661,"o":"m 361 1006 q 503 978 443 1006 q 598 898 564 950 q 632 769 632 846 q 610 667 632 713 q 548 587 588 622 q 457 522 508 551 q 560 454 514 492 q 634 369 607 417 q 661 256 661 321 q 624 113 661 174 q 521 19 588 53 q 365 -14 454 -14 q 199 18 267 -14 q 96 109 131 50 q 61 250 61 168 q 85 364 61 314 q 153 451 110 414 q 250 518 196 489 q 166 586 203 549 q 109 669 129 624 q 89 771 89 714 q 124 897 89 844 q 221 978 160 950 q 361 1006 282 1006 m 178 249 q 224 131 178 178 q 361 83 269 83 q 497 131 450 83 q 543 254 543 179 q 522 333 543 299 q 463 399 501 368 q 367 454 424 429 l 343 467 q 251 408 288 439 q 196 338 214 376 q 178 249 178 299 m 358 907 q 249 870 292 907 q 206 764 206 833 q 226 682 206 717 q 282 622 246 647 q 364 572 318 596 q 443 622 410 596 q 495 683 476 649 q 514 764 514 718 q 472 870 514 833 q 358 907 431 907 z "},"9":{"ha":722,"x_min":63,"x_max":651,"o":"m 651 572 q 640 390 651 478 q 600 229 628 303 q 526 101 572 156 q 409 16 479 46 q 243 -14 339 -14 q 182 -10 217 -14 q 125 0 147 -7 l 125 104 q 179 92 149 96 q 240 88 210 88 q 378 119 324 88 q 467 206 433 151 q 515 332 500 260 q 532 482 529 404 l 525 482 q 478 423 507 449 q 410 383 449 397 q 318 368 371 368 q 181 406 239 368 q 93 513 124 444 q 63 674 63 581 q 97 848 63 774 q 197 964 132 922 q 351 1006 261 1006 q 472 978 417 1006 q 568 897 528 951 q 630 761 608 842 q 651 572 651 681 m 350 903 q 228 847 274 903 q 182 675 182 790 q 222 522 182 576 q 346 467 263 467 q 445 494 404 467 q 508 563 486 521 q 531 649 531 604 q 520 733 531 689 q 488 817 510 778 q 432 879 467 856 q 350 903 397 903 z "},"\u0000":{"ha":0,"x_min":0,"x_max":0,"o":""},"\r":{"ha":324,"x_min":0,"x_max":0,"o":""}," ":{"ha":324,"x_min":0,"x_max":0,"o":""},"!":{"ha":357,"x_min":96,"x_max":260,"o":"m 219 279 l 138 279 l 106 992 l 250 992 l 219 279 m 96 75 q 119 146 96 125 q 178 167 142 167 q 236 146 213 167 q 260 75 260 125 q 235 5 260 26 q 178 -17 211 -17 q 119 6 142 -17 q 96 75 96 28 z "},"\"":{"ha":551,"x_min":86,"x_max":465,"o":"m 218 992 l 193 633 l 113 633 l 86 992 l 218 992 m 465 992 l 440 633 l 361 633 l 335 992 l 465 992 z "},"#":{"ha":803,"x_min":32,"x_max":771,"o":"m 601 613 l 564 386 l 729 386 l 729 294 l 549 294 l 499 0 l 404 0 l 454 294 l 278 294 l 231 0 l 138 0 l 185 294 l 32 294 l 32 386 l 200 386 l 239 613 l 76 613 l 76 703 l 253 703 l 300 992 l 396 992 l 349 703 l 525 703 l 574 992 l 665 992 l 617 703 l 771 703 l 771 613 l 601 613 m 294 386 l 469 386 l 508 613 l 332 613 l 294 386 z "},"$":{"ha":722,"x_min":75,"x_max":653,"o":"m 319 69 q 183 83 249 71 q 75 115 118 94 l 75 231 q 186 190 119 207 q 319 172 253 174 l 319 460 q 180 519 233 486 q 101 597 126 551 q 75 707 75 643 q 106 822 75 774 q 191 900 136 871 q 319 933 246 929 l 319 1054 l 400 1054 l 400 936 q 522 920 467 933 q 625 886 578 907 l 590 788 q 501 817 549 806 q 400 833 453 829 l 400 547 q 540 489 485 519 q 624 415 596 458 q 653 307 653 372 q 587 151 653 213 q 400 75 521 90 l 400 -81 l 319 -81 l 319 69 m 400 178 q 506 219 472 188 q 540 299 540 251 q 527 356 540 333 q 484 397 514 379 q 400 431 454 415 l 400 178 m 319 831 q 246 812 275 828 q 202 771 217 796 q 188 714 188 746 q 199 653 188 678 q 240 610 211 628 q 319 578 269 593 l 319 831 z "},"%":{"ha":1069,"x_min":64,"x_max":1006,"o":"m 251 1006 q 394 924 344 1006 q 443 696 443 843 q 395 466 443 549 q 251 383 347 383 q 112 466 160 383 q 64 696 64 549 q 110 925 64 844 q 251 1006 156 1006 m 250 921 q 183 865 204 921 q 163 696 163 808 q 183 526 163 583 q 251 469 204 469 q 321 526 299 469 q 343 696 343 582 q 320 865 343 808 q 250 921 297 921 m 822 992 l 347 0 l 246 0 l 721 992 l 822 992 m 815 608 q 956 528 907 608 q 1006 299 1006 447 q 958 68 1006 150 q 815 -14 911 -14 q 676 69 724 -14 q 628 299 628 151 q 674 528 628 449 q 815 608 719 608 m 814 522 q 747 467 768 522 q 725 299 725 411 q 747 130 725 186 q 815 74 768 74 q 885 130 863 74 q 907 299 907 186 q 884 466 907 410 q 814 522 861 522 z "},"&":{"ha":888,"x_min":61,"x_max":886,"o":"m 372 1007 q 488 981 440 1007 q 560 909 535 956 q 586 794 586 863 q 540 646 586 708 q 415 529 493 583 l 636 279 q 685 372 667 319 q 713 488 703 425 l 833 488 q 788 328 818 406 q 713 193 758 251 l 886 0 l 732 0 l 633 111 q 551 45 594 74 q 455 1 507 17 q 336 -14 403 -14 q 188 19 249 -14 q 94 112 126 51 q 61 256 61 172 q 83 373 61 322 q 149 465 106 424 q 253 546 193 507 q 201 622 225 585 q 162 702 176 660 q 147 794 147 744 q 174 908 147 861 q 252 981 201 956 q 372 1007 303 1007 m 319 469 q 245 410 275 440 q 200 344 215 379 q 185 260 185 308 q 228 138 185 183 q 344 93 272 93 q 470 121 417 93 q 563 193 524 149 l 319 469 m 368 910 q 292 880 322 910 q 263 794 263 850 q 285 699 263 746 q 349 604 307 651 q 443 693 415 647 q 471 796 471 739 q 444 879 471 849 q 368 910 417 910 z "},"'":{"ha":304,"x_min":86,"x_max":218,"o":"m 218 992 l 193 633 l 113 633 l 86 992 l 218 992 z "},"(":{"ha":413,"x_min":60,"x_max":371,"o":"m 60 382 q 82 606 60 497 q 149 814 104 715 q 261 994 194 913 l 371 994 q 228 706 276 863 q 181 383 181 549 q 202 170 181 276 q 266 -34 224 64 q 369 -219 308 -132 l 261 -219 q 149 -42 194 -139 q 82 162 104 54 q 60 382 60 269 z "},")":{"ha":413,"x_min":42,"x_max":351,"o":"m 351 382 q 330 162 351 269 q 263 -42 308 54 q 150 -219 218 -139 l 43 -219 q 147 -33 104 -132 q 210 171 189 65 q 232 383 232 276 q 210 601 232 494 q 147 807 189 707 q 42 994 104 907 l 150 994 q 263 814 218 913 q 330 606 308 715 q 351 382 351 496 z "},"*":{"ha":688,"x_min":54,"x_max":631,"o":"m 406 1056 l 381 821 l 611 886 l 631 767 l 408 749 l 556 553 l 446 490 l 340 707 l 242 490 l 129 553 l 274 749 l 54 765 l 75 886 l 303 821 l 276 1056 l 406 1056 z "},"+":{"ha":722,"x_min":60,"x_max":660,"o":"m 410 539 l 660 539 l 660 442 l 410 442 l 410 158 l 311 158 l 311 442 l 60 442 l 60 539 l 311 539 l 311 822 l 410 822 l 410 539 z "},",":{"ha":351,"x_min":54,"x_max":257,"o":"m 257 144 q 226 36 244 93 q 187 -76 208 -21 q 143 -181 165 -131 l 54 -181 q 82 -66 69 -126 q 105 53 94 -6 q 121 160 115 111 l 247 160 l 257 144 z "},"-":{"ha":422,"x_min":49,"x_max":374,"o":"m 49 318 l 49 428 l 374 428 l 374 318 l 49 318 z "},".":{"ha":351,"x_min":93,"x_max":257,"o":"m 93 75 q 116 146 93 125 q 175 167 139 167 q 233 146 210 167 q 257 75 257 125 q 233 5 257 26 q 175 -17 210 -17 q 117 6 140 -17 q 93 75 93 28 z "},"/":{"ha":517,"x_min":18,"x_max":501,"o":"m 501 993 l 133 -1 l 18 -1 l 386 993 l 501 993 z "},":":{"ha":351,"x_min":94,"x_max":258,"o":"m 94 75 q 117 146 94 125 q 175 167 139 167 q 235 146 211 167 q 258 75 258 125 q 234 5 258 26 q 175 -17 210 -17 q 117 6 140 -17 q 94 75 94 28 m 94 667 q 117 738 94 717 q 175 758 139 758 q 235 738 211 758 q 258 667 258 717 q 234 596 258 618 q 175 574 210 574 q 117 596 140 574 q 94 667 94 618 z "},";":{"ha":351,"x_min":46,"x_max":256,"o":"m 250 144 q 219 36 238 93 q 178 -76 200 -21 q 135 -181 157 -131 l 46 -181 q 66 -96 56 -140 q 85 -6 76 -51 q 101 81 94 39 q 114 160 108 124 l 240 160 l 250 144 m 92 667 q 115 738 92 717 q 174 758 138 758 q 233 738 210 758 q 256 667 256 717 q 232 596 256 618 q 174 574 208 574 q 115 596 138 574 q 92 667 92 618 z "},"<":{"ha":722,"x_min":58,"x_max":663,"o":"m 663 169 l 58 453 l 58 522 l 663 829 l 663 721 l 189 490 l 663 278 l 663 169 z "},"=":{"ha":722,"x_min":64,"x_max":654,"o":"m 64 582 l 64 679 l 654 679 l 654 582 l 64 582 m 64 299 l 64 396 l 654 396 l 654 299 l 64 299 z "},">":{"ha":722,"x_min":60,"x_max":663,"o":"m 60 278 l 533 489 l 60 721 l 60 829 l 663 522 l 663 453 l 60 169 l 60 278 z "},"?":{"ha":543,"x_min":17,"x_max":510,"o":"m 174 318 q 182 406 174 368 q 213 479 190 444 q 274 551 236 514 q 347 628 321 596 q 383 691 372 660 q 394 763 394 722 q 357 865 394 829 q 250 900 319 900 q 148 884 193 900 q 60 844 103 868 l 17 939 q 128 988 68 969 q 258 1006 188 1006 q 444 942 379 1006 q 510 768 510 879 q 493 663 510 707 q 444 581 476 619 q 365 497 411 543 q 304 431 325 460 q 276 372 283 401 q 268 304 268 343 l 268 279 l 174 279 l 174 318 m 143 75 q 165 146 143 125 q 225 167 188 167 q 283 146 260 167 q 306 75 306 125 q 282 5 306 26 q 225 -17 258 -17 q 166 6 189 -17 q 143 75 143 28 z "},"@":{"ha":1122,"x_min":75,"x_max":1049,"o":"m 1049 499 q 1035 365 1049 428 q 994 256 1021 303 q 926 181 967 208 q 832 153 886 153 q 738 189 772 153 q 697 276 704 225 l 690 276 q 627 187 668 221 q 524 153 586 153 q 380 222 431 153 q 329 410 329 292 q 360 576 329 506 q 451 686 392 647 q 590 725 510 725 q 692 716 642 725 q 775 694 742 707 l 763 410 q 760 372 761 386 q 760 350 760 357 q 782 263 760 286 q 838 239 804 239 q 900 272 874 239 q 940 363 926 304 q 953 500 953 422 q 908 718 953 626 q 783 858 863 810 q 599 907 703 907 q 412 867 492 907 q 278 756 332 826 q 199 593 225 685 q 172 399 172 501 q 214 171 172 268 q 338 20 256 74 q 544 -33 421 -33 q 684 -16 617 -33 q 804 24 751 1 l 804 -68 q 686 -106 750 -92 q 543 -121 622 -121 q 290 -60 394 -121 q 131 115 186 0 q 75 393 75 229 q 111 635 75 525 q 216 826 147 746 q 381 951 285 907 q 599 994 478 996 q 781 959 699 994 q 924 858 864 924 q 1016 701 983 792 q 1049 499 1049 610 m 432 407 q 461 279 432 319 q 540 239 490 239 q 628 296 600 239 q 661 454 656 353 l 671 631 q 634 638 656 635 q 589 642 613 642 q 499 610 535 642 q 448 525 464 578 q 432 407 432 472 z "},"A":{"ha":792,"x_min":0,"x_max":790,"o":"m 664 0 l 561 308 l 228 308 l 126 0 l 0 0 l 333 994 l 456 994 l 790 0 l 664 0 m 432 728 q 420 772 428 744 q 405 827 413 799 q 393 874 397 856 q 383 822 389 849 q 369 772 376 796 q 357 728 363 747 l 260 418 l 529 418 l 432 728 z "},"B":{"ha":815,"x_min":122,"x_max":747,"o":"m 382 992 q 634 935 549 992 q 719 749 719 878 q 699 642 719 688 q 641 567 679 596 q 547 526 603 538 l 547 519 q 652 481 607 508 q 722 405 697 453 q 747 283 747 357 q 710 131 747 194 q 604 33 674 67 q 436 0 535 0 l 122 0 l 122 992 l 382 992 m 399 568 q 551 610 508 568 q 593 736 593 653 q 543 851 593 814 q 386 888 493 888 l 244 888 l 244 568 l 399 568 m 244 467 l 244 104 l 417 104 q 572 154 526 104 q 618 292 618 204 q 597 385 618 346 q 529 445 576 424 q 406 467 482 467 l 244 467 z "},"C":{"ha":783,"x_min":79,"x_max":743,"o":"m 503 897 q 376 869 432 897 q 283 786 321 840 q 226 658 246 732 q 207 496 207 585 q 241 282 207 372 q 342 143 275 192 q 506 94 408 94 q 612 106 561 94 q 710 133 663 117 l 710 25 q 610 -4 663 6 q 489 -14 558 -14 q 264 48 356 -14 q 126 225 172 110 q 79 497 79 340 q 106 700 79 607 q 187 862 133 793 q 319 968 240 931 q 503 1006 399 1006 q 631 992 569 1006 q 743 951 693 978 l 697 847 q 608 883 657 868 q 503 897 560 897 z "},"D":{"ha":906,"x_min":122,"x_max":826,"o":"m 826 507 q 773 227 826 340 q 618 57 719 114 q 371 0 517 0 l 122 0 l 122 992 l 393 992 q 625 936 528 992 q 774 773 722 881 q 826 507 826 665 m 699 501 q 661 717 699 632 q 553 844 624 803 q 379 886 482 886 l 244 886 l 244 106 l 358 106 q 615 206 531 106 q 699 501 699 306 z "},"E":{"ha":694,"x_min":122,"x_max":618,"o":"m 618 0 l 122 0 l 122 992 l 618 992 l 618 883 l 244 883 l 244 571 l 596 571 l 596 464 l 244 464 l 244 108 l 618 108 l 618 0 z "},"F":{"ha":650,"x_min":122,"x_max":618,"o":"m 244 0 l 122 0 l 122 992 l 618 992 l 618 883 l 244 883 l 244 531 l 596 531 l 596 422 l 244 422 l 244 0 z "},"G":{"ha":918,"x_min":79,"x_max":825,"o":"m 515 524 l 825 524 l 825 36 q 676 -1 751 11 q 510 -14 600 -14 q 272 50 368 -14 q 128 229 176 114 q 79 497 79 344 q 133 764 79 650 q 290 942 186 878 q 542 1006 393 1006 q 686 990 618 1006 q 813 946 754 975 l 767 840 q 658 882 717 867 q 539 897 600 897 q 359 850 433 897 q 246 713 285 803 q 207 496 207 622 q 240 288 207 379 q 344 145 272 197 q 532 93 415 93 q 628 100 588 93 q 704 117 669 107 l 704 415 l 515 415 l 515 524 z "},"H":{"ha":924,"x_min":122,"x_max":800,"o":"m 800 0 l 678 0 l 678 464 l 244 464 l 244 0 l 122 0 l 122 992 l 244 992 l 244 572 l 678 572 l 678 992 l 800 992 l 800 0 z "},"I":{"ha":442,"x_min":53,"x_max":389,"o":"m 389 0 l 53 0 l 53 71 l 160 96 l 160 896 l 53 921 l 53 992 l 389 992 l 389 921 l 282 896 l 282 96 l 389 71 l 389 0 z "},"J":{"ha":354,"x_min":-93,"x_max":239,"o":"m 4 -265 q -49 -261 -25 -265 q -93 -249 -74 -257 l -93 -143 q -51 -153 -74 -149 q -1 -157 -28 -157 q 58 -142 32 -157 q 101 -92 85 -128 q 117 7 117 -56 l 117 992 l 239 992 l 239 10 q 210 -148 239 -87 q 129 -237 182 -208 q 4 -265 76 -265 z "},"K":{"ha":772,"x_min":122,"x_max":774,"o":"m 774 0 l 633 0 l 335 468 l 244 381 l 244 0 l 122 0 l 122 992 l 244 992 l 244 500 q 308 580 274 536 q 381 672 342 624 l 621 992 l 760 992 l 421 557 l 774 0 z "},"L":{"ha":650,"x_min":122,"x_max":619,"o":"m 122 0 l 122 992 l 244 992 l 244 110 l 619 110 l 619 0 l 122 0 z "},"M":{"ha":1164,"x_min":122,"x_max":1042,"o":"m 526 0 l 232 856 l 226 856 q 231 780 229 821 q 235 697 233 739 q 236 614 236 654 l 236 0 l 122 0 l 122 992 l 300 992 l 578 181 l 583 181 l 865 992 l 1042 992 l 1042 0 l 922 0 l 922 618 q 923 698 922 657 q 926 779 924 739 q 931 854 929 819 l 925 854 l 629 0 l 526 0 z "},"N":{"ha":958,"x_min":122,"x_max":836,"o":"m 836 0 l 692 0 l 232 818 l 226 818 q 231 744 229 785 q 235 660 233 703 q 236 574 236 617 l 236 0 l 122 0 l 122 992 l 265 992 l 725 181 l 731 181 q 727 251 729 210 q 724 337 725 292 q 722 419 722 382 l 722 992 l 836 992 l 836 0 z "},"O":{"ha":967,"x_min":79,"x_max":889,"o":"m 889 497 q 864 292 889 385 q 789 129 839 199 q 663 23 739 60 q 485 -14 588 -14 q 303 24 379 -14 q 176 131 226 63 q 103 293 126 199 q 79 499 79 388 q 124 771 79 657 q 258 946 168 885 q 485 1007 349 1007 q 710 942 621 1007 q 844 762 800 876 q 889 497 889 647 m 207 497 q 237 279 207 369 q 328 142 267 189 q 483 94 390 94 q 639 141 578 94 q 730 278 700 188 q 760 497 760 368 q 693 794 760 690 q 485 899 626 899 q 328 851 390 899 q 237 715 267 804 q 207 497 207 625 z "},"P":{"ha":758,"x_min":122,"x_max":697,"o":"m 356 992 q 615 917 533 992 q 697 700 697 842 q 678 576 697 633 q 616 476 658 519 q 506 410 574 433 q 340 386 438 386 l 244 386 l 244 0 l 122 0 l 122 992 l 356 992 m 347 886 l 244 886 l 244 492 l 328 492 q 465 512 411 492 q 546 577 519 532 q 572 696 572 622 q 518 840 572 794 q 347 886 464 886 z "},"Q":{"ha":967,"x_min":79,"x_max":889,"o":"m 889 497 q 860 277 889 375 q 776 112 832 179 q 639 13 721 44 l 844 -236 l 681 -236 l 514 -12 q 499 -13 507 -12 q 482 -14 490 -14 q 301 24 376 -14 q 176 131 225 63 q 103 294 126 200 q 79 499 79 388 q 124 771 79 657 q 258 946 168 885 q 485 1007 349 1007 q 706 946 617 1007 q 842 771 796 885 q 889 497 889 657 m 207 497 q 237 279 207 369 q 328 142 267 189 q 483 94 390 94 q 639 141 578 94 q 730 278 700 188 q 760 497 760 368 q 693 794 760 690 q 485 899 626 899 q 328 851 390 899 q 237 715 267 804 q 207 497 207 625 z "},"R":{"ha":782,"x_min":122,"x_max":763,"o":"m 360 992 q 551 960 476 992 q 661 867 625 929 q 697 711 697 804 q 674 584 697 636 q 609 499 650 532 q 517 444 568 465 l 763 0 l 622 0 l 406 411 l 244 411 l 244 0 l 122 0 l 122 992 l 360 992 m 356 885 l 244 885 l 244 514 l 365 514 q 522 563 471 514 q 572 706 572 611 q 549 808 572 769 q 478 866 526 847 q 356 885 431 885 z "},"S":{"ha":693,"x_min":64,"x_max":632,"o":"m 632 268 q 593 118 632 181 q 482 21 554 56 q 313 -14 410 -14 q 217 -8 263 -14 q 134 7 172 -3 q 64 32 96 17 l 64 151 q 181 111 114 128 q 314 94 247 94 q 422 115 378 94 q 488 173 465 136 q 510 257 510 210 q 492 339 510 306 q 429 400 474 372 q 307 460 385 428 q 206 510 250 483 q 133 570 163 536 q 90 648 104 604 q 75 750 75 692 q 111 885 74 828 q 215 974 149 943 q 368 1006 282 1006 q 503 990 442 1006 q 614 953 565 975 l 576 846 q 475 882 528 868 q 367 896 422 896 q 274 878 313 896 q 217 827 236 860 q 199 751 199 794 q 217 667 199 700 q 277 608 235 635 q 392 551 319 582 q 524 480 471 518 q 605 391 578 442 q 632 268 632 340 z "},"T":{"ha":683,"x_min":14,"x_max":668,"o":"m 403 0 l 281 0 l 281 883 l 14 883 l 14 992 l 668 992 l 668 883 l 403 883 l 403 0 z "},"U":{"ha":908,"x_min":114,"x_max":794,"o":"m 794 336 q 757 151 794 229 q 644 29 719 72 q 451 -14 568 -14 q 200 79 286 -14 q 114 338 114 172 l 114 992 l 235 992 l 235 333 q 291 155 235 215 q 457 94 347 94 q 580 123 532 94 q 651 206 628 151 q 674 335 674 260 l 674 992 l 794 992 l 794 336 z "},"V":{"ha":753,"x_min":0,"x_max":753,"o":"m 753 992 l 440 0 l 311 0 l 0 992 l 128 992 l 324 343 q 345 271 336 307 q 362 201 354 235 q 375 136 369 168 q 390 202 382 168 q 407 272 397 236 q 428 346 417 308 l 624 992 l 753 992 z "},"W":{"ha":1185,"x_min":13,"x_max":1171,"o":"m 1171 992 l 929 0 l 799 0 l 631 643 q 618 693 625 667 q 606 746 611 719 q 596 796 600 772 q 589 839 592 819 q 584 803 588 825 q 575 754 581 781 q 563 699 569 728 q 549 642 557 671 l 385 0 l 254 0 l 13 992 l 139 992 l 281 385 q 294 319 288 351 q 307 256 301 286 q 317 197 313 225 q 324 144 321 169 q 333 203 328 174 q 344 265 338 233 q 358 327 351 296 q 372 389 365 358 l 529 992 l 650 992 l 810 386 q 825 325 818 357 q 838 263 832 293 q 849 202 844 232 q 858 144 854 172 q 870 223 864 183 q 885 304 876 263 q 904 386 894 346 l 1046 992 l 1171 992 z "},"X":{"ha":719,"x_min":7,"x_max":713,"o":"m 713 0 l 576 0 l 360 421 l 135 0 l 7 0 l 293 517 l 29 992 l 161 992 l 363 610 l 565 992 l 694 992 l 432 515 l 713 0 z "},"Y":{"ha":697,"x_min":0,"x_max":697,"o":"m 349 511 l 568 992 l 697 992 l 410 385 l 410 0 l 288 0 l 288 381 l 0 992 l 131 992 l 349 511 z "},"Z":{"ha":688,"x_min":47,"x_max":643,"o":"m 643 0 l 47 0 l 47 93 l 489 882 l 60 882 l 60 992 l 631 992 l 631 899 l 188 110 l 643 110 l 643 0 z "},"[":{"ha":449,"x_min":107,"x_max":411,"o":"m 411 -221 l 107 -221 l 107 994 l 411 994 l 411 897 l 222 897 l 222 -124 l 411 -124 l 411 -221 z "},"\\":{"ha":517,"x_min":18,"x_max":501,"o":"m 132 993 l 501 -1 l 385 -1 l 18 993 l 132 993 z "},"]":{"ha":449,"x_min":38,"x_max":342,"o":"m 38 -124 l 226 -124 l 226 897 l 38 897 l 38 994 l 342 994 l 342 -221 l 38 -221 l 38 -124 z "},"^":{"ha":728,"x_min":42,"x_max":688,"o":"m 42 404 l 321 996 l 389 996 l 688 404 l 579 404 l 356 861 l 150 404 l 42 404 z "},"_":{"ha":613,"x_min":-3,"x_max":615,"o":"m 615 -210 l -3 -210 l -3 -121 l 615 -121 l 615 -210 z "},"`":{"ha":383,"x_min":56,"x_max":328,"o":"m 197 1064 q 235 995 213 1033 q 282 921 257 957 q 328 858 307 885 l 328 842 l 249 842 q 198 888 226 861 q 142 944 169 914 q 91 1002 114 974 q 56 1050 68 1031 l 56 1064 l 197 1064 z "},"a":{"ha":706,"x_min":58,"x_max":601,"o":"m 363 758 q 544 696 486 758 q 601 506 601 633 l 601 0 l 514 0 l 493 104 l 489 104 q 431 38 461 65 q 360 -1 400 11 q 268 -14 321 -14 q 157 13 204 -14 q 84 89 110 39 q 58 207 58 139 q 137 379 58 318 q 374 446 215 440 l 485 450 l 485 496 q 451 624 485 586 q 351 661 417 661 q 256 646 303 661 q 167 608 210 631 l 129 697 q 237 742 176 725 q 363 758 297 758 m 390 361 q 228 318 275 357 q 181 207 181 279 q 213 113 181 143 q 300 82 246 82 q 433 136 381 82 q 485 296 485 190 l 485 365 l 390 361 z "},"b":{"ha":776,"x_min":108,"x_max":707,"o":"m 226 782 q 224 709 226 744 q 221 646 222 674 l 226 646 q 308 727 258 697 q 433 757 358 757 q 633 660 560 757 q 707 372 707 564 q 674 160 707 246 q 579 30 640 74 q 435 -14 518 -14 q 309 16 360 -14 q 226 94 258 46 l 218 94 l 197 0 l 108 0 l 108 1056 l 226 1056 l 226 782 m 410 657 q 300 625 340 657 q 243 531 260 593 q 226 379 226 468 l 226 365 q 268 157 226 228 q 413 86 310 86 q 542 158 500 86 q 585 374 585 231 q 542 586 585 515 q 410 657 500 657 z "},"c":{"ha":599,"x_min":71,"x_max":560,"o":"m 376 -14 q 215 27 283 -14 q 108 153 146 68 q 71 368 71 238 q 110 587 71 500 q 219 716 149 674 q 383 758 289 758 q 481 748 435 758 q 560 721 528 738 l 522 622 q 454 644 492 635 q 385 654 417 654 q 277 622 319 654 q 214 527 235 590 q 193 369 193 464 q 214 216 193 279 q 276 121 235 153 q 381 89 318 89 q 472 100 431 89 q 549 129 513 111 l 549 26 q 472 -3 514 7 q 376 -14 429 -14 z "},"d":{"ha":776,"x_min":69,"x_max":669,"o":"m 343 -14 q 143 83 217 -14 q 69 371 69 181 q 143 660 69 561 q 343 758 217 758 q 431 744 392 758 q 499 706 469 731 q 550 649 529 682 l 557 649 q 553 703 556 672 q 550 757 550 735 l 550 1056 l 669 1056 l 669 0 l 574 0 l 557 99 l 550 99 q 500 40 529 65 q 432 1 471 15 q 343 -14 393 -14 m 365 86 q 508 150 465 86 q 551 344 551 214 l 551 374 q 510 586 551 514 q 364 658 468 658 q 234 581 276 658 q 192 369 192 504 q 235 160 192 233 q 365 86 278 86 z "},"e":{"ha":708,"x_min":71,"x_max":644,"o":"m 367 758 q 517 716 456 758 q 612 599 579 674 q 644 425 644 524 l 644 350 l 192 350 q 248 154 194 221 q 403 88 301 88 q 510 100 461 88 q 613 139 560 113 l 613 35 q 511 -2 563 10 q 394 -14 460 -14 q 220 32 293 -14 q 109 163 147 78 q 71 367 71 249 q 106 578 71 490 q 208 712 142 665 q 367 758 275 758 m 365 661 q 245 606 289 661 q 193 444 201 550 l 524 444 q 507 556 524 507 q 456 633 490 604 q 365 661 421 661 z "},"f":{"ha":432,"x_min":18,"x_max":481,"o":"m 414 650 l 253 650 l 253 0 l 133 0 l 133 650 l 18 650 l 18 708 l 133 749 l 133 792 q 157 944 133 885 q 228 1033 181 1004 q 349 1063 276 1063 q 421 1056 388 1063 q 481 1039 454 1049 l 450 944 q 404 957 429 951 q 354 963 379 963 q 277 924 301 963 q 253 794 253 885 l 253 744 l 414 744 l 414 650 z "},"g":{"ha":776,"x_min":69,"x_max":669,"o":"m 343 758 q 461 731 410 758 q 550 646 513 704 l 557 646 l 572 744 l 669 744 l 669 -11 q 635 -187 669 -115 q 532 -297 601 -260 q 354 -333 463 -333 q 226 -322 285 -333 q 119 -287 168 -311 l 119 -178 q 231 -218 171 -204 q 358 -232 292 -232 q 501 -180 450 -232 q 551 -26 551 -128 l 551 0 q 553 50 551 19 q 556 100 554 81 l 550 100 q 463 15 514 43 q 343 -14 413 -14 q 142 86 214 -14 q 69 371 69 186 q 142 656 69 554 q 343 758 215 758 m 363 657 q 269 624 307 657 q 211 526 231 590 q 192 369 192 463 q 235 157 192 228 q 365 86 279 86 q 449 101 414 86 q 506 147 483 115 q 540 227 529 179 q 551 342 551 275 l 551 372 q 532 535 551 472 q 470 628 513 599 q 363 657 428 657 z "},"h":{"ha":776,"x_min":108,"x_max":672,"o":"m 226 750 q 224 694 226 722 q 219 643 222 667 l 228 643 q 279 706 247 681 q 351 745 311 732 q 433 758 390 758 q 567 729 514 758 q 646 642 619 700 q 672 492 672 583 l 672 0 l 554 0 l 554 479 q 521 614 554 571 q 414 657 488 657 q 303 626 344 657 q 244 535 263 596 q 226 386 226 475 l 226 0 l 108 0 l 108 1056 l 226 1056 l 226 750 z "},"i":{"ha":335,"x_min":99,"x_max":238,"o":"m 226 744 l 226 0 l 108 0 l 108 744 l 226 744 m 169 1025 q 218 1006 199 1025 q 238 946 238 986 q 218 888 238 907 q 169 868 199 868 q 119 888 139 868 q 99 946 99 907 q 118 1006 99 986 q 169 1025 138 1025 z "},"j":{"ha":335,"x_min":-56,"x_max":238,"o":"m 38 -333 q -15 -329 8 -333 q -56 -318 -37 -325 l -56 -219 q -19 -228 -37 -225 q 21 -232 0 -232 q 85 -206 61 -232 q 108 -115 108 -181 l 108 744 l 226 744 l 226 -112 q 206 -233 226 -183 q 144 -308 186 -282 q 38 -333 103 -333 m 99 946 q 118 1006 99 986 q 169 1025 138 1025 q 218 1006 199 1025 q 238 946 238 986 q 218 888 238 907 q 169 868 199 868 q 119 888 139 868 q 99 946 99 907 z "},"k":{"ha":674,"x_min":108,"x_max":663,"o":"m 225 514 q 223 450 225 486 q 219 383 221 414 l 225 383 q 247 415 233 396 q 274 452 260 433 q 299 485 288 471 l 510 744 l 646 744 l 388 438 l 663 0 l 525 0 l 307 354 l 225 275 l 225 0 l 108 0 l 108 1056 l 225 1056 l 225 514 z "},"l":{"ha":333,"x_min":108,"x_max":226,"o":"m 226 0 l 108 0 l 108 1056 l 226 1056 l 226 0 z "},"m":{"ha":1169,"x_min":108,"x_max":1067,"o":"m 843 758 q 1011 694 956 758 q 1067 490 1067 631 l 1067 0 l 949 0 l 949 479 q 917 614 949 571 q 818 657 885 657 q 685 594 725 657 q 646 411 646 532 l 646 0 l 529 0 l 529 481 q 515 581 529 542 q 471 638 500 619 q 397 657 442 657 q 294 625 332 657 q 242 533 257 593 q 226 388 226 472 l 226 0 l 108 0 l 108 744 l 203 744 l 219 643 l 226 643 q 277 708 247 682 q 344 746 307 733 q 424 758 382 758 q 552 727 501 758 q 624 636 603 696 l 631 636 q 720 728 665 699 q 843 758 775 758 z "},"n":{"ha":776,"x_min":108,"x_max":672,"o":"m 435 758 q 613 694 553 758 q 672 492 672 631 l 672 0 l 554 0 l 554 479 q 521 613 554 568 q 414 657 488 657 q 268 590 310 657 q 226 386 226 522 l 226 0 l 108 0 l 108 744 l 203 744 l 219 643 l 226 643 q 281 708 249 682 q 353 746 313 733 q 435 758 393 758 z "},"o":{"ha":758,"x_min":69,"x_max":690,"o":"m 690 374 q 669 211 690 282 q 608 90 649 140 q 510 13 568 39 q 378 -14 451 -14 q 251 13 308 -14 q 154 89 194 39 q 92 210 114 139 q 69 374 69 282 q 106 583 69 497 q 213 713 143 668 q 381 758 282 758 q 543 714 474 758 q 651 584 613 669 q 690 374 690 499 m 192 374 q 212 219 192 283 q 274 120 232 154 q 381 86 315 86 q 486 120 444 86 q 548 219 528 154 q 568 374 568 283 q 548 528 568 465 q 486 624 528 592 q 379 657 444 657 q 236 583 281 657 q 192 374 192 510 z "},"p":{"ha":776,"x_min":108,"x_max":707,"o":"m 433 758 q 633 663 560 758 q 707 374 707 567 q 674 162 707 249 q 579 31 640 75 q 435 -14 518 -14 q 345 1 385 -14 q 276 40 306 15 q 226 96 247 65 l 219 96 q 224 39 222 71 q 226 -18 226 7 l 226 -333 l 108 -333 l 108 744 l 204 744 l 221 643 l 226 643 q 277 705 249 679 q 344 744 306 731 q 433 758 383 758 m 410 658 q 306 630 346 658 q 247 544 265 601 q 226 397 228 486 l 226 372 q 244 214 226 278 q 303 118 263 150 q 413 86 343 86 q 509 122 471 86 q 566 222 547 157 q 585 374 585 286 q 542 583 585 508 q 410 658 500 658 z "},"q":{"ha":776,"x_min":69,"x_max":669,"o":"m 550 -19 q 551 38 550 6 q 557 101 553 71 l 550 101 q 467 18 518 50 q 340 -14 417 -14 q 144 83 218 -14 q 69 371 69 179 q 104 585 69 499 q 201 715 139 671 q 344 758 263 758 q 469 728 419 758 q 550 644 518 697 l 557 644 l 572 744 l 669 744 l 669 -333 l 550 -333 l 550 -19 m 367 86 q 472 115 432 86 q 531 200 513 143 q 551 343 550 257 l 551 371 q 509 587 551 515 q 364 658 467 658 q 234 581 276 658 q 192 368 192 504 q 235 158 192 231 q 367 86 278 86 z "},"r":{"ha":518,"x_min":108,"x_max":500,"o":"m 421 758 q 462 756 440 758 q 500 750 483 754 l 485 636 q 449 643 468 640 q 413 646 431 646 q 341 628 375 646 q 281 576 307 610 q 241 496 256 542 q 226 394 226 450 l 226 0 l 108 0 l 108 744 l 203 744 l 218 613 l 224 613 q 274 688 244 654 q 340 740 303 721 q 421 758 378 758 z "},"s":{"ha":594,"x_min":61,"x_max":538,"o":"m 538 204 q 506 85 538 133 q 415 11 474 36 q 272 -14 356 -14 q 153 -1 204 -14 q 63 32 101 11 l 63 144 q 158 103 101 121 q 272 86 214 86 q 386 115 350 86 q 422 194 422 144 q 408 246 422 224 q 360 290 394 268 q 265 338 326 311 q 157 395 203 367 q 86 463 111 424 q 61 563 61 503 q 131 706 61 654 q 315 758 201 758 q 428 746 376 758 q 528 710 481 733 l 486 615 q 401 647 446 635 q 310 660 357 660 q 210 635 246 660 q 175 568 175 610 q 191 516 175 538 q 243 474 207 494 q 340 426 279 454 q 446 370 401 399 q 514 302 490 342 q 538 204 538 263 z "},"t":{"ha":450,"x_min":22,"x_max":424,"o":"m 332 86 q 381 91 357 86 q 424 101 406 96 l 424 8 q 371 -8 403 -1 q 306 -14 339 -14 q 208 7 251 -14 q 140 76 165 28 q 115 206 115 124 l 115 650 l 22 650 l 22 710 l 118 751 l 160 915 l 233 915 l 233 744 l 415 744 l 415 650 l 233 650 l 233 213 q 259 117 233 149 q 332 86 285 86 z "},"u":{"ha":776,"x_min":101,"x_max":668,"o":"m 668 744 l 668 0 l 572 0 l 556 99 l 549 99 q 495 36 528 61 q 424 -1 463 11 q 340 -14 385 -14 q 207 17 260 -14 q 128 108 154 47 q 101 258 101 168 l 101 744 l 221 744 l 221 271 q 255 133 221 178 q 360 88 289 88 q 472 118 431 88 q 532 208 514 149 q 550 354 550 267 l 550 744 l 668 744 z "},"v":{"ha":635,"x_min":1,"x_max":633,"o":"m 250 0 l 1 744 l 126 744 l 264 304 q 283 241 274 275 q 301 174 293 207 q 314 115 310 142 l 319 115 q 331 167 324 138 q 349 231 339 197 q 368 294 360 264 l 508 744 l 633 744 l 385 0 l 250 0 z "},"w":{"ha":1000,"x_min":14,"x_max":985,"o":"m 543 432 q 530 483 536 457 q 519 533 524 508 q 509 578 514 557 q 501 617 504 600 l 497 617 q 490 578 494 600 q 480 532 485 557 q 469 482 475 507 q 456 431 464 457 l 338 1 l 203 1 l 14 746 l 136 746 l 228 358 q 247 278 238 318 q 263 199 256 238 q 274 131 269 161 l 278 131 q 287 176 282 150 q 297 230 292 201 q 310 287 303 258 q 324 342 317 315 l 436 746 l 567 746 l 675 342 q 692 276 683 311 q 709 203 701 240 q 721 131 717 165 l 725 131 q 734 184 728 153 q 749 253 740 215 q 765 329 757 290 l 865 746 l 985 746 l 794 1 l 656 1 l 543 432 z "},"x":{"ha":656,"x_min":24,"x_max":633,"o":"m 258 382 l 35 744 l 167 744 l 329 468 l 490 744 l 621 744 l 397 381 l 633 0 l 501 0 l 328 293 l 153 0 l 24 0 l 258 382 z "},"y":{"ha":638,"x_min":3,"x_max":635,"o":"m 3 744 l 128 744 l 268 322 q 288 256 278 289 q 306 192 297 224 q 319 132 314 161 l 325 132 q 347 219 332 168 q 378 322 361 269 l 510 744 l 635 744 l 351 -107 q 294 -229 326 -178 q 217 -307 263 -281 q 107 -333 171 -333 q 57 -330 79 -333 q 17 -322 35 -326 l 17 -224 q 51 -231 32 -228 q 89 -233 69 -233 q 153 -218 126 -233 q 198 -172 179 -203 q 232 -97 217 -142 l 265 0 l 3 744 z "},"z":{"ha":568,"x_min":47,"x_max":522,"o":"m 522 0 l 47 0 l 47 79 l 382 650 l 67 650 l 67 744 l 513 744 l 513 657 l 182 94 l 522 94 l 522 0 z "},"{":{"ha":518,"x_min":46,"x_max":469,"o":"m 469 -221 q 326 -196 385 -219 q 235 -123 267 -172 q 204 0 204 -74 l 204 206 q 188 282 204 253 q 135 325 171 311 q 46 339 100 339 l 46 435 q 133 447 99 435 q 186 489 168 460 q 204 567 204 518 l 204 774 q 235 894 204 846 q 326 968 267 943 q 469 993 386 993 l 469 896 q 389 881 422 894 q 338 840 356 868 q 321 765 321 811 l 321 561 q 287 447 321 489 q 178 390 253 404 l 178 383 q 288 327 254 369 q 321 213 321 285 l 321 7 q 338 -67 321 -39 q 388 -109 354 -96 q 469 -124 421 -122 l 469 -221 z "},"|":{"ha":690,"x_min":294,"x_max":397,"o":"m 294 1057 l 397 1057 l 397 -333 l 294 -333 l 294 1057 z "},"}":{"ha":518,"x_min":49,"x_max":472,"o":"m 49 -124 q 130 -108 97 -122 q 180 -66 163 -94 q 197 7 197 -37 l 197 211 q 232 326 197 285 q 340 382 267 368 l 340 390 q 232 445 267 403 q 197 561 197 488 l 197 765 q 180 840 197 813 q 130 882 163 868 q 49 896 97 896 l 49 993 q 193 969 135 993 q 283 896 251 944 q 314 772 314 847 l 314 567 q 331 492 314 521 q 383 449 347 463 q 472 435 418 435 l 472 339 q 384 325 419 339 q 331 283 349 311 q 314 207 314 254 l 314 0 q 283 -122 314 -74 q 192 -196 251 -171 q 49 -221 133 -221 l 49 -124 z "},"~":{"ha":722,"x_min":58,"x_max":663,"o":"m 342 443 q 267 472 299 464 q 207 481 235 481 q 131 458 171 481 q 58 399 92 435 l 58 507 q 128 561 90 543 q 214 579 167 579 q 290 570 254 579 q 381 536 326 561 q 456 507 425 515 q 514 499 486 499 q 592 522 551 499 q 663 581 632 546 l 663 474 q 593 419 632 439 q 508 400 554 400 q 431 410 468 400 q 342 443 394 419 z "}," ":{"ha":324,"x_min":0,"x_max":0,"o":""},"¡":{"ha":357,"x_min":96,"x_max":261,"o":"m 136 458 l 218 458 l 249 -256 l 104 -256 l 136 458 m 261 663 q 238 592 261 613 q 179 571 214 571 q 119 592 143 571 q 96 663 96 614 q 119 733 96 711 q 179 756 143 756 q 237 733 213 756 q 261 663 261 711 z "},"¢":{"ha":722,"x_min":118,"x_max":608,"o":"m 449 894 q 536 882 494 893 q 608 856 578 871 l 572 757 q 502 781 540 772 q 432 790 464 790 q 324 759 367 790 q 260 664 281 728 q 239 504 239 600 q 260 347 239 408 q 323 255 281 285 q 428 225 365 225 q 518 236 478 225 q 597 265 558 247 l 597 161 q 530 135 565 144 q 447 122 494 125 l 447 -14 l 361 -14 l 361 125 q 231 180 285 136 q 147 304 176 224 q 118 503 118 385 q 147 706 118 625 q 231 832 176 786 q 361 889 286 878 l 361 1006 l 449 1006 l 449 894 z "},"£":{"ha":722,"x_min":50,"x_max":669,"o":"m 426 1004 q 548 988 493 1004 q 647 947 603 972 l 604 851 q 521 888 564 874 q 431 903 478 903 q 327 863 361 903 q 293 735 293 822 l 293 539 l 535 539 l 535 447 l 293 447 l 293 299 q 281 210 293 246 q 249 150 269 174 q 201 110 228 126 l 669 110 l 669 0 l 50 0 l 50 101 q 115 137 88 113 q 157 200 142 161 q 172 297 172 239 l 172 447 l 51 447 l 51 539 l 172 539 l 172 743 q 203 886 172 828 q 291 974 233 944 q 426 1004 349 1004 z "},"¤":{"ha":783,"x_min":79,"x_max":703,"o":"m 121 490 q 134 572 121 532 q 171 644 147 611 l 79 738 l 144 800 l 235 710 q 308 749 268 736 q 392 761 349 761 q 474 749 435 761 q 546 711 513 736 l 638 800 l 703 739 l 613 646 q 649 573 635 613 q 663 490 663 533 q 650 407 663 447 q 613 333 638 367 l 701 242 l 639 179 l 546 269 q 474 233 513 246 q 392 221 435 221 q 307 234 347 221 q 235 271 267 247 l 144 181 l 81 244 l 171 335 q 134 408 147 368 q 121 490 121 447 m 208 490 q 233 399 208 440 q 299 332 257 357 q 392 307 340 307 q 485 333 444 307 q 551 399 526 358 q 576 490 576 440 q 551 583 576 542 q 484 650 525 625 q 392 675 443 675 q 300 650 342 675 q 233 583 258 625 q 208 490 208 542 z "},"¥":{"ha":722,"x_min":31,"x_max":688,"o":"m 360 514 l 563 992 l 688 992 l 450 468 l 608 468 l 608 382 l 418 382 l 418 267 l 608 267 l 608 179 l 418 179 l 418 0 l 300 0 l 300 179 l 111 179 l 111 267 l 300 267 l 300 382 l 111 382 l 111 468 l 265 468 l 31 992 l 156 992 l 360 514 z "},"¦":{"ha":690,"x_min":294,"x_max":397,"o":"m 294 1056 l 397 1056 l 397 521 l 294 521 l 294 1056 m 294 201 l 397 201 l 397 -333 l 294 -333 l 294 201 z "},"§":{"ha":640,"x_min":72,"x_max":558,"o":"m 79 556 q 110 660 79 618 q 185 724 140 703 q 112 791 138 753 q 86 881 86 829 q 153 1013 86 965 q 335 1060 219 1060 q 449 1048 401 1060 q 546 1014 497 1036 l 508 926 q 424 958 465 946 q 331 969 383 969 q 228 947 260 969 q 196 885 196 924 q 211 837 196 857 q 261 797 226 817 q 354 754 296 778 q 465 697 419 726 q 534 629 510 667 q 558 538 558 592 q 530 430 558 475 q 461 361 501 385 q 532 295 508 332 q 556 208 556 258 q 483 63 556 115 q 283 10 410 10 q 165 22 217 10 q 72 56 113 33 l 72 157 q 135 130 100 143 q 209 108 169 117 q 286 100 249 100 q 408 130 372 100 q 444 200 444 160 q 431 249 444 229 q 383 291 418 269 q 281 340 349 313 q 170 398 215 369 q 102 464 125 426 q 79 556 79 501 m 181 569 q 197 513 181 538 q 250 466 214 488 q 343 419 286 444 l 381 403 q 433 450 411 422 q 456 521 456 478 q 440 580 456 554 q 385 630 425 606 q 269 682 344 654 q 206 641 232 671 q 181 569 181 611 z "},"¨":{"ha":776,"x_min":201,"x_max":575,"o":"m 201 939 q 220 992 201 975 q 264 1008 239 1008 q 308 992 290 1008 q 326 939 326 975 q 308 887 326 904 q 264 869 290 869 q 220 887 239 869 q 201 939 201 904 m 449 939 q 467 992 449 975 q 511 1008 486 1008 q 556 992 538 1008 q 575 939 575 975 q 556 887 575 904 q 511 869 538 869 q 467 887 485 869 q 449 939 449 904 z "},"©":{"ha":1154,"x_min":68,"x_max":1088,"o":"m 597 185 q 393 268 463 185 q 324 494 324 351 q 356 657 324 588 q 451 766 389 726 q 604 806 514 806 q 692 794 647 806 q 775 764 736 783 l 736 682 q 669 708 701 700 q 606 717 636 717 q 476 658 522 717 q 429 496 429 600 q 471 330 429 386 q 604 274 513 274 q 675 283 636 274 q 750 306 714 292 l 750 218 q 679 194 715 204 q 597 185 643 185 m 578 -14 q 370 24 464 -14 q 209 133 276 63 q 105 295 142 203 q 68 496 68 388 q 106 701 68 608 q 213 863 144 794 q 375 968 282 931 q 578 1006 468 1006 q 778 967 685 1006 q 940 860 871 929 q 1049 699 1010 792 q 1088 496 1088 606 q 1049 292 1088 385 q 942 130 1011 199 q 781 24 874 61 q 578 -14 688 -14 m 578 60 q 747 92 668 60 q 884 184 825 125 q 976 322 943 243 q 1008 496 1008 401 q 976 667 1008 588 q 886 806 944 746 q 749 899 828 865 q 578 932 671 932 q 403 899 482 932 q 266 808 324 867 q 177 669 208 749 q 146 496 146 590 q 178 323 146 403 q 268 185 210 243 q 405 93 326 126 q 578 60 483 60 z "},"ª":{"ha":468,"x_min":42,"x_max":399,"o":"m 233 1003 q 358 965 317 1003 q 399 846 399 926 l 399 540 l 336 540 l 319 601 q 258 551 293 569 q 174 532 222 532 q 103 548 133 532 q 58 594 74 564 q 42 668 42 625 q 64 747 42 715 q 131 794 86 778 q 243 814 176 810 l 313 817 l 313 849 q 289 913 313 894 q 226 931 265 931 q 162 922 193 931 q 101 897 131 913 l 72 964 q 148 992 107 982 q 233 1003 189 1003 m 256 753 q 156 728 183 749 q 129 669 129 707 q 147 618 129 635 q 197 601 165 601 q 285 634 257 601 q 313 722 313 667 l 313 756 l 256 753 z "},"«":{"ha":682,"x_min":53,"x_max":631,"o":"m 53 375 l 274 651 l 358 604 l 182 367 l 358 129 l 274 82 l 53 357 l 53 375 m 324 375 l 547 651 l 631 604 l 453 367 l 631 129 l 547 82 l 324 357 l 324 375 z "},"¬":{"ha":722,"x_min":60,"x_max":657,"o":"m 657 539 l 657 174 l 558 174 l 558 442 l 60 442 l 60 539 l 657 539 z "},"­":{"ha":422,"x_min":49,"x_max":374,"o":"m 49 318 l 49 428 l 374 428 l 374 318 l 49 318 z "},"®":{"ha":1154,"x_min":68,"x_max":1088,"o":"m 389 196 l 389 799 l 561 799 q 726 754 672 799 q 781 621 781 710 q 750 518 781 557 q 675 461 719 479 l 826 196 l 711 196 l 581 433 l 493 433 l 493 196 l 389 196 m 558 517 q 644 543 613 517 q 675 617 675 569 q 647 690 675 667 q 557 713 618 713 l 492 713 l 492 517 l 558 517 m 578 -14 q 370 24 464 -14 q 209 133 276 63 q 105 295 142 203 q 68 496 68 388 q 106 701 68 608 q 213 863 144 794 q 375 968 282 931 q 578 1006 468 1006 q 778 967 685 1006 q 940 860 871 929 q 1049 699 1010 792 q 1088 496 1088 606 q 1049 292 1088 385 q 942 130 1011 199 q 781 24 874 61 q 578 -14 688 -14 m 578 60 q 747 92 668 60 q 884 184 825 125 q 976 322 943 243 q 1008 496 1008 401 q 976 667 1008 588 q 886 806 944 746 q 749 899 828 865 q 578 932 671 932 q 403 899 482 932 q 266 808 324 867 q 177 669 208 749 q 146 496 146 590 q 178 323 146 403 q 268 185 210 243 q 405 93 326 126 q 578 60 483 60 z "},"¯":{"ha":663,"x_min":-4,"x_max":667,"o":"m 667 1056 l -4 1056 l -4 1146 l 667 1146 l 667 1056 z "},"°":{"ha":563,"x_min":71,"x_max":492,"o":"m 281 599 q 172 624 218 599 q 98 695 125 650 q 71 801 71 740 q 97 908 71 863 q 171 980 124 954 q 281 1006 218 1006 q 390 980 343 1006 q 465 908 438 954 q 492 801 492 863 q 465 694 492 740 q 390 624 438 649 q 281 599 342 599 m 282 676 q 374 711 343 676 q 404 801 404 746 q 373 893 404 858 q 282 928 342 928 q 189 893 219 928 q 158 801 158 858 q 190 710 158 744 q 282 676 221 676 z "},"±":{"ha":722,"x_min":60,"x_max":661,"o":"m 60 0 l 60 97 l 661 97 l 661 0 l 60 0 m 410 550 l 660 550 l 660 453 l 410 453 l 410 169 l 311 169 l 311 453 l 60 453 l 60 550 l 311 550 l 311 835 l 410 835 l 410 550 z "},"²":{"ha":468,"x_min":35,"x_max":407,"o":"m 407 578 l 35 578 l 35 653 l 181 807 q 258 892 231 858 q 296 956 285 926 q 307 1017 307 985 q 283 1081 307 1058 q 218 1104 260 1104 q 151 1089 182 1104 q 86 1044 119 1074 l 39 1108 q 120 1164 75 1143 q 222 1185 165 1185 q 356 1141 308 1185 q 404 1022 404 1097 q 386 936 404 975 q 333 856 368 897 q 244 760 297 814 l 149 661 l 407 661 l 407 578 z "},"³":{"ha":468,"x_min":29,"x_max":421,"o":"m 217 1185 q 355 1142 307 1185 q 403 1032 403 1100 q 375 942 403 978 q 306 890 347 906 l 306 886 q 390 838 360 874 q 421 743 421 801 q 364 615 421 664 q 197 567 307 567 q 109 575 150 567 q 29 603 68 583 l 29 692 q 114 658 71 669 q 197 647 157 647 q 294 674 264 647 q 325 747 325 701 q 288 822 325 799 q 183 846 251 846 l 115 846 l 115 922 l 182 922 q 277 949 246 922 q 308 1021 308 976 q 282 1084 308 1064 q 214 1104 256 1104 q 144 1091 176 1104 q 76 1053 111 1078 l 29 1117 q 115 1167 69 1150 q 217 1185 160 1185 z "},"´":{"ha":383,"x_min":56,"x_max":328,"o":"m 328 1050 q 292 1003 315 1031 q 240 945 268 975 q 185 888 213 915 q 133 842 157 861 l 56 842 l 56 858 q 102 924 78 889 q 148 997 126 960 q 185 1064 169 1033 l 328 1064 l 328 1050 z "},"µ":{"ha":782,"x_min":108,"x_max":674,"o":"m 674 744 l 674 0 l 578 0 l 561 100 l 554 100 q 506 38 533 64 q 442 -1 478 13 q 363 -14 406 -14 q 282 3 315 -14 q 225 50 249 21 l 219 50 q 224 7 222 31 q 226 -44 225 -17 q 226 -103 226 -72 l 226 -333 l 108 -333 l 108 744 l 226 744 l 226 265 q 261 133 226 179 q 365 88 296 88 q 478 119 438 88 q 537 210 519 150 q 554 357 554 269 l 554 744 l 674 744 z "},"¶":{"ha":822,"x_min":79,"x_max":688,"o":"m 688 -176 l 607 -176 l 607 978 l 483 978 l 483 -176 l 403 -176 l 403 379 q 364 370 386 374 q 321 367 342 367 q 192 401 246 367 q 108 510 138 435 q 79 707 79 585 q 111 910 79 833 q 203 1021 143 986 q 344 1056 263 1056 l 688 1056 l 688 -176 z "},"·":{"ha":351,"x_min":93,"x_max":257,"o":"m 93 489 q 116 560 93 539 q 175 581 139 581 q 233 560 210 581 q 257 489 257 539 q 233 419 257 440 q 175 397 210 397 q 117 419 140 397 q 93 489 93 442 z "},"¸":{"ha":301,"x_min":18,"x_max":281,"o":"m 281 -192 q 232 -297 281 -260 q 90 -333 183 -333 q 49 -331 68 -333 q 18 -326 29 -329 l 18 -250 q 49 -255 31 -253 q 86 -257 68 -257 q 158 -242 133 -257 q 183 -194 183 -226 q 150 -140 183 -158 q 64 -115 117 -122 l 119 0 l 196 0 l 161 -72 q 223 -94 196 -79 q 265 -133 250 -110 q 281 -192 281 -157 z "},"¹":{"ha":468,"x_min":51,"x_max":322,"o":"m 322 1172 l 322 578 l 226 578 l 226 954 q 227 997 226 976 q 229 1038 228 1018 q 232 1078 231 1058 q 206 1054 219 1067 q 176 1032 192 1042 l 100 975 l 51 1042 l 229 1172 l 322 1172 z "},"º":{"ha":490,"x_min":43,"x_max":447,"o":"m 447 768 q 393 594 447 656 q 244 532 339 532 q 99 593 154 532 q 43 768 43 654 q 97 942 43 881 q 247 1003 151 1003 q 353 976 308 1003 q 423 897 399 949 q 447 768 447 844 m 132 768 q 159 646 132 686 q 246 606 186 606 q 333 646 306 606 q 360 768 360 686 q 333 890 360 850 q 246 929 306 929 q 160 890 188 929 q 132 768 132 850 z "},"»":{"ha":682,"x_min":53,"x_max":629,"o":"m 629 357 l 406 82 l 324 129 l 500 367 l 324 604 l 406 651 l 629 375 l 629 357 m 358 357 l 135 82 l 53 129 l 229 367 l 53 604 l 135 651 l 358 375 l 358 357 z "},"¼":{"ha":1019,"x_min":43,"x_max":1003,"o":"m 189 0 l 760 992 l 861 992 l 290 0 l 189 0 m 218 774 q 219 818 218 797 q 221 859 219 839 q 224 899 222 879 q 197 875 211 888 q 169 851 183 863 l 92 796 l 43 861 l 221 992 l 314 992 l 314 397 l 218 397 l 218 774 m 825 0 l 825 132 l 571 132 l 571 201 l 825 599 l 922 599 l 922 213 l 1003 213 l 1003 132 l 922 132 l 922 0 l 825 0 m 664 213 l 825 213 l 825 356 q 826 422 825 388 q 828 485 826 457 q 806 443 822 471 q 775 392 789 415 l 664 213 z "},"½":{"ha":1057,"x_min":33,"x_max":996,"o":"m 156 0 l 726 992 l 828 992 l 257 0 l 156 0 m 207 774 q 208 808 207 792 q 209 839 208 824 q 210 869 210 854 q 213 899 211 883 q 186 875 200 888 q 158 851 172 863 l 81 796 l 33 861 l 211 992 l 303 992 l 303 397 l 207 397 l 207 774 m 624 0 l 624 76 l 769 229 q 847 315 819 281 q 885 378 874 349 q 896 439 896 407 q 872 504 896 482 q 807 526 847 526 q 740 511 771 526 q 675 468 708 496 l 626 531 q 709 586 664 565 q 811 607 754 607 q 944 564 896 607 q 993 446 993 521 q 975 360 993 399 q 924 281 957 321 q 843 193 890 242 l 738 85 l 996 85 l 996 0 l 624 0 z "},"¾":{"ha":1058,"x_min":28,"x_max":1042,"o":"m 235 0 l 804 992 l 906 992 l 336 0 l 235 0 m 196 386 q 108 395 149 386 q 28 424 67 404 l 28 511 q 113 478 69 490 q 196 467 156 467 q 292 494 263 467 q 322 567 322 521 q 286 642 322 618 q 182 667 250 667 l 114 667 l 114 743 l 181 743 q 275 770 244 743 q 306 842 306 797 q 279 904 306 883 q 213 925 253 925 q 142 911 175 925 q 75 874 110 897 l 28 938 q 113 987 68 969 q 215 1004 158 1004 q 353 963 306 1004 q 401 851 401 921 q 374 763 401 799 q 303 711 346 726 l 303 706 q 389 658 358 694 q 419 564 419 622 q 363 435 419 483 q 196 386 306 386 m 864 0 l 864 132 l 610 132 l 610 201 l 864 599 l 961 599 l 961 213 l 1042 213 l 1042 132 l 961 132 l 961 0 l 864 0 m 703 213 l 864 213 l 864 356 q 865 422 864 388 q 867 485 865 457 q 844 443 861 471 q 814 392 828 415 l 703 213 z "},"¿":{"ha":543,"x_min":32,"x_max":525,"o":"m 369 421 q 360 332 369 371 q 330 259 351 293 q 268 188 308 225 q 196 112 222 144 q 158 48 169 79 q 147 -25 147 17 q 185 -126 147 -92 q 292 -161 222 -161 q 395 -145 350 -161 q 482 -107 440 -129 l 525 -200 q 415 -249 475 -231 q 285 -267 356 -267 q 98 -204 164 -267 q 32 -29 32 -142 q 49 76 32 32 q 99 158 67 119 q 178 242 132 196 q 239 309 218 281 q 267 367 260 338 q 274 435 274 396 l 274 460 l 369 460 l 369 421 m 400 663 q 377 592 400 614 q 317 571 354 571 q 259 592 282 571 q 236 663 236 613 q 260 733 236 711 q 317 756 283 756 q 377 733 354 756 q 400 663 400 711 z "},"À":{"ha":792,"x_min":0,"x_max":790,"o":"m 664 0 l 561 308 l 228 308 l 126 0 l 0 0 l 333 994 l 456 994 l 790 0 l 664 0 m 432 728 q 420 772 428 744 q 405 827 413 799 q 393 874 397 856 q 383 822 389 849 q 369 772 376 796 q 357 728 363 747 l 260 418 l 529 418 l 432 728 m 364 1311 q 401 1242 379 1281 q 449 1168 424 1204 q 494 1106 474 1132 l 494 1089 l 415 1089 q 365 1135 393 1108 q 308 1191 336 1161 q 258 1249 281 1221 q 222 1297 235 1278 l 222 1311 l 364 1311 z "},"Á":{"ha":792,"x_min":0,"x_max":790,"o":"m 664 0 l 561 308 l 228 308 l 126 0 l 0 0 l 333 994 l 456 994 l 790 0 l 664 0 m 432 728 q 420 772 428 744 q 405 827 413 799 q 393 874 397 856 q 383 822 389 849 q 369 772 376 796 q 357 728 363 747 l 260 418 l 529 418 l 432 728 m 590 1297 q 554 1250 578 1278 q 503 1192 531 1222 q 447 1135 475 1163 q 396 1089 419 1108 l 318 1089 l 318 1106 q 365 1172 340 1136 q 410 1244 389 1207 q 447 1311 432 1281 l 590 1311 l 590 1297 z "},"Â":{"ha":792,"x_min":0,"x_max":790,"o":"m 664 0 l 561 308 l 228 308 l 126 0 l 0 0 l 333 994 l 456 994 l 790 0 l 664 0 m 432 728 q 420 772 428 744 q 405 827 413 799 q 393 874 397 856 q 383 822 389 849 q 369 772 376 796 q 357 728 363 747 l 260 418 l 529 418 l 432 728 m 451 1311 q 495 1243 468 1281 q 553 1169 522 1206 q 608 1104 583 1132 l 608 1089 l 531 1089 q 462 1146 497 1113 q 392 1215 426 1179 q 321 1146 356 1179 q 254 1089 286 1113 l 178 1089 l 178 1104 q 233 1170 204 1133 q 290 1244 263 1207 q 333 1311 317 1281 l 451 1311 z "},"Ã":{"ha":792,"x_min":0,"x_max":790,"o":"m 664 0 l 561 308 l 228 308 l 126 0 l 0 0 l 333 994 l 456 994 l 790 0 l 664 0 m 432 728 q 420 772 428 744 q 405 827 413 799 q 393 874 397 856 q 383 822 389 849 q 369 772 376 796 q 357 728 363 747 l 260 418 l 529 418 l 432 728 m 158 1089 q 172 1158 163 1126 q 199 1214 182 1190 q 241 1250 217 1238 q 297 1263 265 1263 q 353 1251 326 1263 q 404 1223 379 1239 q 452 1195 429 1207 q 496 1183 475 1183 q 539 1205 524 1183 q 563 1264 554 1226 l 632 1264 q 589 1137 625 1183 q 494 1090 553 1090 q 440 1102 467 1090 q 388 1130 414 1114 q 340 1158 363 1146 q 296 1169 318 1169 q 253 1149 268 1169 q 229 1089 238 1128 l 158 1089 z "},"Ä":{"ha":792,"x_min":0,"x_max":790,"o":"m 664 0 l 561 308 l 228 308 l 126 0 l 0 0 l 333 994 l 456 994 l 790 0 l 664 0 m 432 728 q 420 772 428 744 q 405 827 413 799 q 393 874 397 856 q 383 822 389 849 q 369 772 376 796 q 357 728 363 747 l 260 418 l 529 418 l 432 728 m 207 1186 q 226 1239 207 1222 q 269 1256 244 1256 q 314 1239 296 1256 q 332 1186 332 1222 q 314 1134 332 1151 q 269 1117 296 1117 q 226 1134 244 1117 q 207 1186 207 1151 m 454 1186 q 473 1239 454 1222 q 517 1256 492 1256 q 562 1239 543 1256 q 581 1186 581 1222 q 562 1134 581 1151 q 517 1117 543 1117 q 472 1134 490 1117 q 454 1186 454 1151 z "},"Å":{"ha":792,"x_min":0,"x_max":790,"o":"m 664 0 l 561 308 l 228 308 l 126 0 l 0 0 l 333 994 l 456 994 l 790 0 l 664 0 m 432 728 q 420 772 428 744 q 405 827 413 799 q 393 874 397 856 q 383 822 389 849 q 369 772 376 796 q 357 728 363 747 l 260 418 l 529 418 l 432 728 m 394 928 q 285 967 326 928 q 244 1072 244 1006 q 285 1177 244 1139 q 394 1215 326 1215 q 501 1178 458 1215 q 544 1074 544 1140 q 503 967 544 1006 q 394 928 461 928 m 394 997 q 449 1017 428 997 q 471 1072 471 1038 q 450 1128 471 1107 q 394 1149 429 1149 q 340 1128 361 1149 q 318 1072 318 1107 q 338 1017 318 1038 q 394 997 357 997 z "},"Æ":{"ha":1089,"x_min":-1,"x_max":1013,"o":"m 1013 0 l 540 0 l 540 308 l 253 308 l 126 0 l -1 0 l 406 992 l 1013 992 l 1013 883 l 663 883 l 663 571 l 989 571 l 989 464 l 663 464 l 663 108 l 1013 108 l 1013 0 m 294 418 l 542 418 l 542 882 l 482 882 l 294 418 z "},"Ç":{"ha":783,"x_min":79,"x_max":743,"o":"m 503 897 q 376 869 432 897 q 283 786 321 840 q 226 658 246 732 q 207 496 207 585 q 241 282 207 372 q 342 143 275 192 q 506 94 408 94 q 612 106 561 94 q 710 133 663 117 l 710 25 q 610 -4 663 6 q 489 -14 558 -14 q 264 48 356 -14 q 126 225 172 110 q 79 497 79 340 q 106 700 79 607 q 187 862 133 793 q 319 968 240 931 q 503 1006 399 1006 q 631 992 569 1006 q 743 951 693 978 l 697 847 q 608 883 657 868 q 503 897 560 897 m 597 -192 q 549 -297 597 -260 q 407 -333 500 -333 q 365 -331 385 -333 q 335 -326 346 -329 l 335 -250 q 366 -255 347 -253 q 403 -257 385 -257 q 475 -242 450 -257 q 500 -194 500 -226 q 467 -140 500 -158 q 381 -115 433 -122 l 436 0 l 513 0 l 478 -72 q 540 -94 513 -79 q 582 -133 567 -110 q 597 -192 597 -157 z "},"È":{"ha":694,"x_min":122,"x_max":618,"o":"m 618 0 l 122 0 l 122 992 l 618 992 l 618 883 l 244 883 l 244 571 l 596 571 l 596 464 l 244 464 l 244 108 l 618 108 l 618 0 m 349 1311 q 386 1242 364 1281 q 433 1168 408 1204 q 479 1106 458 1132 l 479 1089 l 400 1089 q 349 1135 378 1108 q 293 1191 321 1161 q 242 1249 265 1221 q 207 1297 219 1278 l 207 1311 l 349 1311 z "},"É":{"ha":694,"x_min":122,"x_max":618,"o":"m 618 0 l 122 0 l 122 992 l 618 992 l 618 883 l 244 883 l 244 571 l 596 571 l 596 464 l 244 464 l 244 108 l 618 108 l 618 0 m 575 1297 q 539 1250 563 1278 q 488 1192 515 1222 q 432 1135 460 1163 q 381 1089 404 1108 l 303 1089 l 303 1106 q 349 1172 325 1136 q 395 1244 374 1207 q 432 1311 417 1281 l 575 1311 l 575 1297 z "},"Ê":{"ha":694,"x_min":122,"x_max":618,"o":"m 618 0 l 122 0 l 122 992 l 618 992 l 618 883 l 244 883 l 244 571 l 596 571 l 596 464 l 244 464 l 244 108 l 618 108 l 618 0 m 436 1311 q 480 1243 453 1281 q 538 1169 507 1206 q 593 1104 568 1132 l 593 1089 l 515 1089 q 447 1146 482 1113 q 376 1215 411 1179 q 306 1146 340 1179 q 239 1089 271 1113 l 163 1089 l 163 1104 q 218 1170 189 1133 q 274 1244 247 1207 q 318 1311 301 1281 l 436 1311 z "},"Ë":{"ha":694,"x_min":122,"x_max":618,"o":"m 618 0 l 122 0 l 122 992 l 618 992 l 618 883 l 244 883 l 244 571 l 596 571 l 596 464 l 244 464 l 244 108 l 618 108 l 618 0 m 192 1186 q 210 1239 192 1222 q 254 1256 229 1256 q 299 1239 281 1256 q 317 1186 317 1222 q 299 1134 317 1151 q 254 1117 281 1117 q 210 1134 229 1117 q 192 1186 192 1151 m 439 1186 q 458 1239 439 1222 q 501 1256 476 1256 q 547 1239 528 1256 q 565 1186 565 1222 q 547 1134 565 1151 q 501 1117 528 1117 q 457 1134 475 1117 q 439 1186 439 1151 z "},"Ì":{"ha":442,"x_min":50,"x_max":389,"o":"m 389 0 l 53 0 l 53 71 l 160 96 l 160 896 l 53 921 l 53 992 l 389 992 l 389 921 l 282 896 l 282 96 l 389 71 l 389 0 m 192 1311 q 229 1242 207 1281 q 276 1168 251 1204 q 322 1106 301 1132 l 322 1089 l 243 1089 q 192 1135 221 1108 q 136 1191 164 1161 q 85 1249 108 1221 q 50 1297 63 1278 l 50 1311 l 192 1311 z "},"Í":{"ha":442,"x_min":53,"x_max":418,"o":"m 389 0 l 53 0 l 53 71 l 160 96 l 160 896 l 53 921 l 53 992 l 389 992 l 389 921 l 282 896 l 282 96 l 389 71 l 389 0 m 418 1297 q 382 1250 406 1278 q 331 1192 358 1222 q 275 1135 303 1163 q 224 1089 247 1108 l 146 1089 l 146 1106 q 192 1172 168 1136 q 238 1244 217 1207 q 275 1311 260 1281 l 418 1311 l 418 1297 z "},"Î":{"ha":442,"x_min":6,"x_max":436,"o":"m 389 0 l 53 0 l 53 71 l 160 96 l 160 896 l 53 921 l 53 992 l 389 992 l 389 921 l 282 896 l 282 96 l 389 71 l 389 0 m 279 1311 q 323 1243 296 1281 q 381 1169 350 1206 q 436 1104 411 1132 l 436 1089 l 358 1089 q 290 1146 325 1113 q 219 1215 254 1179 q 149 1146 183 1179 q 82 1089 114 1113 l 6 1089 l 6 1104 q 61 1170 32 1133 q 117 1244 90 1207 q 161 1311 144 1281 l 279 1311 z "},"Ï":{"ha":442,"x_min":35,"x_max":408,"o":"m 389 0 l 53 0 l 53 71 l 160 96 l 160 896 l 53 921 l 53 992 l 389 992 l 389 921 l 282 896 l 282 96 l 389 71 l 389 0 m 35 1186 q 53 1239 35 1222 q 97 1256 72 1256 q 142 1239 124 1256 q 160 1186 160 1222 q 142 1134 160 1151 q 97 1117 124 1117 q 53 1134 72 1117 q 35 1186 35 1151 m 282 1186 q 301 1239 282 1222 q 344 1256 319 1256 q 390 1239 371 1256 q 408 1186 408 1222 q 390 1134 408 1151 q 344 1117 371 1117 q 300 1134 318 1117 q 282 1186 282 1151 z "},"Ð":{"ha":906,"x_min":38,"x_max":826,"o":"m 392 992 q 624 936 526 992 q 774 774 721 881 q 826 507 826 667 q 772 227 826 340 q 617 57 718 114 q 369 0 515 0 l 128 0 l 128 446 l 38 446 l 38 549 l 128 549 l 128 992 l 392 992 m 379 886 l 250 886 l 250 549 l 457 549 l 457 446 l 250 446 l 250 106 l 358 106 q 615 206 531 106 q 699 501 699 306 q 661 717 699 632 q 553 844 624 803 q 379 886 482 886 z "},"Ñ":{"ha":958,"x_min":122,"x_max":836,"o":"m 836 0 l 692 0 l 232 818 l 226 818 q 231 744 229 785 q 235 660 233 703 q 236 574 236 617 l 236 0 l 122 0 l 122 992 l 265 992 l 725 181 l 731 181 q 727 251 729 210 q 724 337 725 292 q 722 419 722 382 l 722 992 l 836 992 l 836 0 m 243 1089 q 257 1158 247 1126 q 284 1214 267 1190 q 326 1250 301 1238 q 382 1263 350 1263 q 438 1251 411 1263 q 489 1223 464 1239 q 537 1195 514 1207 q 581 1183 560 1183 q 624 1205 608 1183 q 647 1264 639 1226 l 717 1264 q 674 1137 710 1183 q 579 1090 638 1090 q 525 1102 551 1090 q 473 1130 499 1114 q 425 1158 447 1146 q 381 1169 403 1169 q 338 1149 353 1169 q 314 1089 322 1128 l 243 1089 z "},"Ò":{"ha":967,"x_min":79,"x_max":889,"o":"m 889 497 q 864 292 889 385 q 789 129 839 199 q 663 23 739 60 q 485 -14 588 -14 q 303 24 379 -14 q 176 131 226 63 q 103 293 126 199 q 79 499 79 388 q 124 771 79 657 q 258 946 168 885 q 485 1007 349 1007 q 710 942 621 1007 q 844 762 800 876 q 889 497 889 647 m 207 497 q 237 279 207 369 q 328 142 267 189 q 483 94 390 94 q 639 141 578 94 q 730 278 700 188 q 760 497 760 368 q 693 794 760 690 q 485 899 626 899 q 328 851 390 899 q 237 715 267 804 q 207 497 207 625 m 454 1311 q 492 1242 469 1281 q 539 1168 514 1204 q 585 1106 564 1132 l 585 1089 l 506 1089 q 455 1135 483 1108 q 399 1191 426 1161 q 348 1249 371 1221 q 313 1297 325 1278 l 313 1311 l 454 1311 z "},"Ó":{"ha":967,"x_min":79,"x_max":889,"o":"m 889 497 q 864 292 889 385 q 789 129 839 199 q 663 23 739 60 q 485 -14 588 -14 q 303 24 379 -14 q 176 131 226 63 q 103 293 126 199 q 79 499 79 388 q 124 771 79 657 q 258 946 168 885 q 485 1007 349 1007 q 710 942 621 1007 q 844 762 800 876 q 889 497 889 647 m 207 497 q 237 279 207 369 q 328 142 267 189 q 483 94 390 94 q 639 141 578 94 q 730 278 700 188 q 760 497 760 368 q 693 794 760 690 q 485 899 626 899 q 328 851 390 899 q 237 715 267 804 q 207 497 207 625 m 681 1297 q 644 1250 668 1278 q 593 1192 621 1222 q 538 1135 565 1163 q 486 1089 510 1108 l 408 1089 l 408 1106 q 455 1172 431 1136 q 501 1244 479 1207 q 538 1311 522 1281 l 681 1311 l 681 1297 z "},"Ô":{"ha":967,"x_min":79,"x_max":889,"o":"m 889 497 q 864 292 889 385 q 789 129 839 199 q 663 23 739 60 q 485 -14 588 -14 q 303 24 379 -14 q 176 131 226 63 q 103 293 126 199 q 79 499 79 388 q 124 771 79 657 q 258 946 168 885 q 485 1007 349 1007 q 710 942 621 1007 q 844 762 800 876 q 889 497 889 647 m 207 497 q 237 279 207 369 q 328 142 267 189 q 483 94 390 94 q 639 141 578 94 q 730 278 700 188 q 760 497 760 368 q 693 794 760 690 q 485 899 626 899 q 328 851 390 899 q 237 715 267 804 q 207 497 207 625 m 542 1311 q 585 1243 558 1281 q 643 1169 613 1206 q 699 1104 674 1132 l 699 1089 l 621 1089 q 552 1146 588 1113 q 482 1215 517 1179 q 411 1146 446 1179 q 344 1089 376 1113 l 268 1089 l 268 1104 q 324 1170 294 1133 q 380 1244 353 1207 q 424 1311 407 1281 l 542 1311 z "},"Õ":{"ha":967,"x_min":79,"x_max":889,"o":"m 889 497 q 864 292 889 385 q 789 129 839 199 q 663 23 739 60 q 485 -14 588 -14 q 303 24 379 -14 q 176 131 226 63 q 103 293 126 199 q 79 499 79 388 q 124 771 79 657 q 258 946 168 885 q 485 1007 349 1007 q 710 942 621 1007 q 844 762 800 876 q 889 497 889 647 m 207 497 q 237 279 207 369 q 328 142 267 189 q 483 94 390 94 q 639 141 578 94 q 730 278 700 188 q 760 497 760 368 q 693 794 760 690 q 485 899 626 899 q 328 851 390 899 q 237 715 267 804 q 207 497 207 625 m 249 1089 q 263 1158 253 1126 q 290 1214 272 1190 q 331 1250 307 1238 q 388 1263 356 1263 q 443 1251 417 1263 q 494 1223 469 1239 q 542 1195 519 1207 q 586 1183 565 1183 q 629 1205 614 1183 q 653 1264 644 1226 l 722 1264 q 679 1137 715 1183 q 585 1090 643 1090 q 531 1102 557 1090 q 478 1130 504 1114 q 431 1158 453 1146 q 386 1169 408 1169 q 343 1149 358 1169 q 319 1089 328 1128 l 249 1089 z "},"Ö":{"ha":967,"x_min":79,"x_max":889,"o":"m 889 497 q 864 292 889 385 q 789 129 839 199 q 663 23 739 60 q 485 -14 588 -14 q 303 24 379 -14 q 176 131 226 63 q 103 293 126 199 q 79 499 79 388 q 124 771 79 657 q 258 946 168 885 q 485 1007 349 1007 q 710 942 621 1007 q 844 762 800 876 q 889 497 889 647 m 207 497 q 237 279 207 369 q 328 142 267 189 q 483 94 390 94 q 639 141 578 94 q 730 278 700 188 q 760 497 760 368 q 693 794 760 690 q 485 899 626 899 q 328 851 390 899 q 237 715 267 804 q 207 497 207 625 m 297 1186 q 316 1239 297 1222 q 360 1256 335 1256 q 404 1239 386 1256 q 422 1186 422 1222 q 404 1134 422 1151 q 360 1117 386 1117 q 316 1134 335 1117 q 297 1186 297 1151 m 544 1186 q 563 1239 544 1222 q 607 1256 582 1256 q 652 1239 633 1256 q 671 1186 671 1222 q 652 1134 671 1151 q 607 1117 633 1117 q 563 1134 581 1117 q 544 1186 544 1151 z "},"×":{"ha":722,"x_min":72,"x_max":649,"o":"m 581 778 l 649 710 l 429 490 l 646 271 l 579 203 l 358 421 l 143 203 l 74 271 l 290 490 l 72 708 l 142 778 l 360 558 l 581 778 z "},"Ø":{"ha":967,"x_min":79,"x_max":889,"o":"m 889 497 q 863 285 889 379 q 785 124 836 190 q 659 22 735 57 q 485 -14 583 -14 q 360 3 417 -14 q 258 51 303 19 l 194 -51 l 115 -4 l 188 115 q 106 280 132 183 q 79 499 79 376 q 124 771 79 657 q 258 946 168 885 q 485 1007 349 1007 q 606 990 550 1007 q 708 940 663 972 l 769 1040 l 849 992 l 778 875 q 860 714 832 810 q 889 497 889 618 m 761 497 q 707 761 761 663 l 318 150 q 392 108 350 122 q 483 93 433 93 q 640 140 579 93 q 731 278 701 188 q 761 497 761 368 m 207 497 q 220 347 207 414 q 260 231 233 279 l 647 840 q 576 884 617 869 q 485 899 536 899 q 328 851 390 899 q 237 715 267 804 q 207 497 207 625 z "},"Ù":{"ha":908,"x_min":114,"x_max":794,"o":"m 794 336 q 757 151 794 229 q 644 29 719 72 q 451 -14 568 -14 q 200 79 286 -14 q 114 338 114 172 l 114 992 l 235 992 l 235 333 q 291 155 235 215 q 457 94 347 94 q 580 123 532 94 q 651 206 628 151 q 674 335 674 260 l 674 992 l 794 992 l 794 336 m 425 1311 q 463 1242 440 1281 q 510 1168 485 1204 q 556 1106 535 1132 l 556 1089 l 476 1089 q 426 1135 454 1108 q 369 1191 397 1161 q 319 1249 342 1221 q 283 1297 296 1278 l 283 1311 l 425 1311 z "},"Ú":{"ha":908,"x_min":114,"x_max":794,"o":"m 794 336 q 757 151 794 229 q 644 29 719 72 q 451 -14 568 -14 q 200 79 286 -14 q 114 338 114 172 l 114 992 l 235 992 l 235 333 q 291 155 235 215 q 457 94 347 94 q 580 123 532 94 q 651 206 628 151 q 674 335 674 260 l 674 992 l 794 992 l 794 336 m 651 1297 q 615 1250 639 1278 q 564 1192 592 1222 q 508 1135 536 1163 q 457 1089 481 1108 l 379 1089 l 379 1106 q 426 1172 401 1136 q 472 1244 450 1207 q 508 1311 493 1281 l 651 1311 l 651 1297 z "},"Û":{"ha":908,"x_min":114,"x_max":794,"o":"m 794 336 q 757 151 794 229 q 644 29 719 72 q 451 -14 568 -14 q 200 79 286 -14 q 114 338 114 172 l 114 992 l 235 992 l 235 333 q 291 155 235 215 q 457 94 347 94 q 580 123 532 94 q 651 206 628 151 q 674 335 674 260 l 674 992 l 794 992 l 794 336 m 513 1311 q 556 1243 529 1281 q 614 1169 583 1206 q 669 1104 644 1132 l 669 1089 l 592 1089 q 523 1146 558 1113 q 453 1215 488 1179 q 382 1146 417 1179 q 315 1089 347 1113 l 239 1089 l 239 1104 q 294 1170 265 1133 q 351 1244 324 1207 q 394 1311 378 1281 l 513 1311 z "},"Ü":{"ha":908,"x_min":114,"x_max":794,"o":"m 794 336 q 757 151 794 229 q 644 29 719 72 q 451 -14 568 -14 q 200 79 286 -14 q 114 338 114 172 l 114 992 l 235 992 l 235 333 q 291 155 235 215 q 457 94 347 94 q 580 123 532 94 q 651 206 628 151 q 674 335 674 260 l 674 992 l 794 992 l 794 336 m 268 1186 q 287 1239 268 1222 q 331 1256 306 1256 q 375 1239 357 1256 q 393 1186 393 1222 q 375 1134 393 1151 q 331 1117 357 1117 q 287 1134 306 1117 q 268 1186 268 1151 m 515 1186 q 534 1239 515 1222 q 578 1256 553 1256 q 623 1239 604 1256 q 642 1186 642 1222 q 623 1134 642 1151 q 578 1117 604 1117 q 533 1134 551 1117 q 515 1186 515 1151 z "},"Ý":{"ha":697,"x_min":0,"x_max":697,"o":"m 349 511 l 568 992 l 697 992 l 410 385 l 410 0 l 288 0 l 288 381 l 0 992 l 131 992 l 349 511 m 546 1297 q 510 1250 533 1278 q 458 1192 486 1222 q 403 1135 431 1163 q 351 1089 375 1108 l 274 1089 l 274 1106 q 320 1172 296 1136 q 366 1244 344 1207 q 403 1311 388 1281 l 546 1311 l 546 1297 z "},"Þ":{"ha":754,"x_min":122,"x_max":696,"o":"m 696 531 q 677 406 696 464 q 617 306 658 349 q 507 239 575 263 q 340 215 439 215 l 244 215 l 244 0 l 122 0 l 122 992 l 244 992 l 244 819 l 353 819 q 615 745 533 819 q 696 531 696 671 m 328 319 q 466 340 413 319 q 545 407 519 361 q 571 524 571 453 q 517 667 571 621 q 346 714 464 714 l 244 714 l 244 319 l 328 319 z "},"ß":{"ha":788,"x_min":108,"x_max":732,"o":"m 653 857 q 635 777 653 811 q 592 716 618 743 q 542 666 567 689 q 499 621 517 643 q 482 572 482 599 q 491 535 482 553 q 523 497 500 518 q 588 444 546 476 q 667 373 635 407 q 716 301 700 339 q 732 213 732 264 q 703 86 732 136 q 620 11 674 36 q 496 -14 567 -14 q 397 -3 442 -14 q 318 29 351 8 l 318 139 q 367 114 340 126 q 426 94 394 101 q 489 86 457 86 q 585 117 556 86 q 615 204 615 149 q 604 261 615 236 q 568 312 593 286 q 500 369 543 338 q 419 439 449 407 q 378 501 390 471 q 367 567 367 532 q 383 638 367 608 q 425 690 400 667 q 475 737 450 714 q 517 786 500 760 q 533 851 533 813 q 493 935 533 907 q 385 963 453 963 q 306 947 342 963 q 248 897 269 931 q 226 804 226 863 l 226 0 l 108 0 l 108 806 q 144 951 108 894 q 242 1035 179 1008 q 386 1063 306 1063 q 527 1040 468 1063 q 619 971 586 1017 q 653 857 653 925 z "},"à":{"ha":706,"x_min":58,"x_max":601,"o":"m 363 758 q 544 696 486 758 q 601 506 601 633 l 601 0 l 514 0 l 493 104 l 489 104 q 431 38 461 65 q 360 -1 400 11 q 268 -14 321 -14 q 157 13 204 -14 q 84 89 110 39 q 58 207 58 139 q 137 379 58 318 q 374 446 215 440 l 485 450 l 485 496 q 451 624 485 586 q 351 661 417 661 q 256 646 303 661 q 167 608 210 631 l 129 697 q 237 742 176 725 q 363 758 297 758 m 390 361 q 228 318 275 357 q 181 207 181 279 q 213 113 181 143 q 300 82 246 82 q 433 136 381 82 q 485 296 485 190 l 485 365 l 390 361 m 326 1064 q 364 995 342 1033 q 411 921 386 957 q 457 858 436 885 l 457 842 l 378 842 q 327 888 356 861 q 271 944 299 914 q 220 1002 243 974 q 185 1050 197 1031 l 185 1064 l 326 1064 z "},"á":{"ha":706,"x_min":58,"x_max":601,"o":"m 363 758 q 544 696 486 758 q 601 506 601 633 l 601 0 l 514 0 l 493 104 l 489 104 q 431 38 461 65 q 360 -1 400 11 q 268 -14 321 -14 q 157 13 204 -14 q 84 89 110 39 q 58 207 58 139 q 137 379 58 318 q 374 446 215 440 l 485 450 l 485 496 q 451 624 485 586 q 351 661 417 661 q 256 646 303 661 q 167 608 210 631 l 129 697 q 237 742 176 725 q 363 758 297 758 m 390 361 q 228 318 275 357 q 181 207 181 279 q 213 113 181 143 q 300 82 246 82 q 433 136 381 82 q 485 296 485 190 l 485 365 l 390 361 m 553 1050 q 517 1003 540 1031 q 465 945 493 975 q 410 888 438 915 q 358 842 382 861 l 281 842 l 281 858 q 327 924 303 889 q 373 997 351 960 q 410 1064 394 1033 l 553 1064 l 553 1050 z "},"â":{"ha":706,"x_min":58,"x_max":601,"o":"m 363 758 q 544 696 486 758 q 601 506 601 633 l 601 0 l 514 0 l 493 104 l 489 104 q 431 38 461 65 q 360 -1 400 11 q 268 -14 321 -14 q 157 13 204 -14 q 84 89 110 39 q 58 207 58 139 q 137 379 58 318 q 374 446 215 440 l 485 450 l 485 496 q 451 624 485 586 q 351 661 417 661 q 256 646 303 661 q 167 608 210 631 l 129 697 q 237 742 176 725 q 363 758 297 758 m 390 361 q 228 318 275 357 q 181 207 181 279 q 213 113 181 143 q 300 82 246 82 q 433 136 381 82 q 485 296 485 190 l 485 365 l 390 361 m 414 1064 q 458 996 431 1033 q 515 922 485 958 q 571 857 546 885 l 571 842 l 493 842 q 424 899 460 865 q 354 968 389 932 q 283 899 318 932 q 217 842 249 865 l 140 842 l 140 857 q 196 923 167 886 q 252 997 225 960 q 296 1064 279 1033 l 414 1064 z "},"ã":{"ha":706,"x_min":58,"x_max":601,"o":"m 363 758 q 544 696 486 758 q 601 506 601 633 l 601 0 l 514 0 l 493 104 l 489 104 q 431 38 461 65 q 360 -1 400 11 q 268 -14 321 -14 q 157 13 204 -14 q 84 89 110 39 q 58 207 58 139 q 137 379 58 318 q 374 446 215 440 l 485 450 l 485 496 q 451 624 485 586 q 351 661 417 661 q 256 646 303 661 q 167 608 210 631 l 129 697 q 237 742 176 725 q 363 758 297 758 m 390 361 q 228 318 275 357 q 181 207 181 279 q 213 113 181 143 q 300 82 246 82 q 433 136 381 82 q 485 296 485 190 l 485 365 l 390 361 m 121 842 q 135 911 125 879 q 162 967 144 943 q 203 1003 179 990 q 260 1015 228 1015 q 315 1003 289 1015 q 367 976 342 992 q 415 948 392 960 q 458 936 438 936 q 501 958 486 936 q 525 1017 517 979 l 594 1017 q 551 890 588 936 q 457 843 515 843 q 403 855 429 843 q 351 883 376 867 q 303 910 325 899 q 258 922 281 922 q 215 901 231 922 q 192 842 200 881 l 121 842 z "},"ä":{"ha":706,"x_min":58,"x_max":601,"o":"m 363 758 q 544 696 486 758 q 601 506 601 633 l 601 0 l 514 0 l 493 104 l 489 104 q 431 38 461 65 q 360 -1 400 11 q 268 -14 321 -14 q 157 13 204 -14 q 84 89 110 39 q 58 207 58 139 q 137 379 58 318 q 374 446 215 440 l 485 450 l 485 496 q 451 624 485 586 q 351 661 417 661 q 256 646 303 661 q 167 608 210 631 l 129 697 q 237 742 176 725 q 363 758 297 758 m 390 361 q 228 318 275 357 q 181 207 181 279 q 213 113 181 143 q 300 82 246 82 q 433 136 381 82 q 485 296 485 190 l 485 365 l 390 361 m 169 939 q 188 992 169 975 q 232 1008 207 1008 q 276 992 258 1008 q 294 939 294 975 q 276 887 294 904 q 232 869 258 869 q 188 887 207 869 q 169 939 169 904 m 417 939 q 435 992 417 975 q 479 1008 454 1008 q 524 992 506 1008 q 543 939 543 975 q 524 887 543 904 q 479 869 506 869 q 435 887 453 869 q 417 939 417 904 z "},"å":{"ha":706,"x_min":58,"x_max":601,"o":"m 363 758 q 544 696 486 758 q 601 506 601 633 l 601 0 l 514 0 l 493 104 l 489 104 q 431 38 461 65 q 360 -1 400 11 q 268 -14 321 -14 q 157 13 204 -14 q 84 89 110 39 q 58 207 58 139 q 137 379 58 318 q 374 446 215 440 l 485 450 l 485 496 q 451 624 485 586 q 351 661 417 661 q 256 646 303 661 q 167 608 210 631 l 129 697 q 237 742 176 725 q 363 758 297 758 m 390 361 q 228 318 275 357 q 181 207 181 279 q 213 113 181 143 q 300 82 246 82 q 433 136 381 82 q 485 296 485 190 l 485 365 l 390 361 m 356 843 q 247 882 288 843 q 206 988 206 921 q 247 1092 206 1054 q 356 1131 288 1131 q 463 1093 419 1131 q 506 989 506 1056 q 464 882 506 921 q 356 843 422 843 m 356 913 q 410 933 389 913 q 432 988 432 953 q 411 1043 432 1022 q 356 1064 390 1064 q 301 1043 322 1064 q 279 988 279 1022 q 299 933 279 953 q 356 913 318 913 z "},"æ":{"ha":1090,"x_min":58,"x_max":1024,"o":"m 757 758 q 901 716 842 758 q 992 599 961 674 q 1024 426 1024 524 l 1024 350 l 593 350 q 645 151 596 217 q 788 86 694 86 q 896 99 847 86 q 993 138 944 113 l 993 35 q 894 -2 943 10 q 782 -14 844 -14 q 674 3 724 -14 q 587 56 625 21 q 524 140 549 90 q 459 57 494 92 q 378 4 424 22 q 271 -14 333 -14 q 159 13 207 -14 q 85 89 111 39 q 58 207 58 139 q 92 333 58 282 q 194 414 125 385 q 363 446 263 443 l 472 450 l 472 497 q 437 623 472 585 q 338 661 401 661 q 245 647 292 661 q 154 608 199 632 l 117 697 q 223 741 163 724 q 347 758 283 758 q 474 731 424 758 q 550 644 524 704 q 636 729 583 700 q 757 758 689 758 m 381 361 q 226 319 271 357 q 181 207 181 281 q 211 113 181 143 q 294 82 242 82 q 386 106 346 82 q 449 178 426 131 q 472 296 472 225 l 472 365 l 381 361 m 756 661 q 643 606 685 661 q 594 444 601 551 l 904 444 q 888 557 904 508 q 840 633 872 606 q 756 661 807 661 z "},"ç":{"ha":599,"x_min":71,"x_max":560,"o":"m 376 -14 q 215 27 283 -14 q 108 153 146 68 q 71 368 71 238 q 110 587 71 500 q 219 716 149 674 q 383 758 289 758 q 481 748 435 758 q 560 721 528 738 l 522 622 q 454 644 492 635 q 385 654 417 654 q 277 622 319 654 q 214 527 235 590 q 193 369 193 464 q 214 216 193 279 q 276 121 235 153 q 381 89 318 89 q 472 100 431 89 q 549 129 513 111 l 549 26 q 472 -3 514 7 q 376 -14 429 -14 m 492 -192 q 443 -297 492 -260 q 301 -333 394 -333 q 260 -331 279 -333 q 229 -326 240 -329 l 229 -250 q 260 -255 242 -253 q 297 -257 279 -257 q 369 -242 344 -257 q 394 -194 394 -226 q 361 -140 394 -158 q 275 -115 328 -122 l 331 0 l 407 0 l 372 -72 q 434 -94 407 -79 q 476 -133 461 -110 q 492 -192 492 -157 z "},"è":{"ha":708,"x_min":71,"x_max":644,"o":"m 367 758 q 517 716 456 758 q 612 599 579 674 q 644 425 644 524 l 644 350 l 192 350 q 248 154 194 221 q 403 88 301 88 q 510 100 461 88 q 613 139 560 113 l 613 35 q 511 -2 563 10 q 394 -14 460 -14 q 220 32 293 -14 q 109 163 147 78 q 71 367 71 249 q 106 578 71 490 q 208 712 142 665 q 367 758 275 758 m 365 661 q 245 606 289 661 q 193 444 201 550 l 524 444 q 507 556 524 507 q 456 633 490 604 q 365 661 421 661 m 328 1064 q 365 995 343 1033 q 413 921 388 957 q 458 858 438 885 l 458 842 l 379 842 q 328 888 357 861 q 272 944 300 914 q 222 1002 244 974 q 186 1050 199 1031 l 186 1064 l 328 1064 z "},"é":{"ha":708,"x_min":71,"x_max":644,"o":"m 367 758 q 517 716 456 758 q 612 599 579 674 q 644 425 644 524 l 644 350 l 192 350 q 248 154 194 221 q 403 88 301 88 q 510 100 461 88 q 613 139 560 113 l 613 35 q 511 -2 563 10 q 394 -14 460 -14 q 220 32 293 -14 q 109 163 147 78 q 71 367 71 249 q 106 578 71 490 q 208 712 142 665 q 367 758 275 758 m 365 661 q 245 606 289 661 q 193 444 201 550 l 524 444 q 507 556 524 507 q 456 633 490 604 q 365 661 421 661 m 556 1050 q 519 1003 543 1031 q 468 945 496 975 q 413 888 440 915 q 361 842 385 861 l 283 842 l 283 858 q 330 924 306 889 q 376 997 354 960 q 413 1064 397 1033 l 556 1064 l 556 1050 z "},"ê":{"ha":708,"x_min":71,"x_max":644,"o":"m 367 758 q 517 716 456 758 q 612 599 579 674 q 644 425 644 524 l 644 350 l 192 350 q 248 154 194 221 q 403 88 301 88 q 510 100 461 88 q 613 139 560 113 l 613 35 q 511 -2 563 10 q 394 -14 460 -14 q 220 32 293 -14 q 109 163 147 78 q 71 367 71 249 q 106 578 71 490 q 208 712 142 665 q 367 758 275 758 m 365 661 q 245 606 289 661 q 193 444 201 550 l 524 444 q 507 556 524 507 q 456 633 490 604 q 365 661 421 661 m 417 1064 q 460 996 433 1033 q 518 922 488 958 q 574 857 549 885 l 574 842 l 496 842 q 427 899 463 865 q 357 968 392 932 q 286 899 321 932 q 219 842 251 865 l 143 842 l 143 857 q 199 923 169 886 q 255 997 228 960 q 299 1064 282 1033 l 417 1064 z "},"ë":{"ha":708,"x_min":71,"x_max":644,"o":"m 367 758 q 517 716 456 758 q 612 599 579 674 q 644 425 644 524 l 644 350 l 192 350 q 248 154 194 221 q 403 88 301 88 q 510 100 461 88 q 613 139 560 113 l 613 35 q 511 -2 563 10 q 394 -14 460 -14 q 220 32 293 -14 q 109 163 147 78 q 71 367 71 249 q 106 578 71 490 q 208 712 142 665 q 367 758 275 758 m 365 661 q 245 606 289 661 q 193 444 201 550 l 524 444 q 507 556 524 507 q 456 633 490 604 q 365 661 421 661 m 172 939 q 191 992 172 975 q 235 1008 210 1008 q 279 992 261 1008 q 297 939 297 975 q 279 887 297 904 q 235 869 261 869 q 191 887 210 869 q 172 939 172 904 m 419 939 q 438 992 419 975 q 482 1008 457 1008 q 527 992 508 1008 q 546 939 546 975 q 527 887 546 904 q 482 869 508 869 q 438 887 456 869 q 419 939 419 904 z "},"ì":{"ha":335,"x_min":-6,"x_max":267,"o":"m 226 0 l 108 0 l 108 744 l 226 744 l 226 0 m 136 1064 q 174 995 151 1033 q 221 921 196 957 q 267 858 246 885 l 267 842 l 188 842 q 137 888 165 861 q 81 944 108 914 q 30 1002 53 974 q -6 1050 7 1031 l -6 1064 l 136 1064 z "},"í":{"ha":335,"x_min":92,"x_max":364,"o":"m 226 0 l 108 0 l 108 744 l 226 744 l 226 0 m 364 1050 q 328 1003 351 1031 q 276 945 304 975 q 221 888 249 915 q 169 842 193 861 l 92 842 l 92 858 q 138 924 114 889 q 184 997 163 960 q 221 1064 206 1033 l 364 1064 l 364 1050 z "},"î":{"ha":335,"x_min":-49,"x_max":382,"o":"m 226 0 l 108 0 l 108 744 l 226 744 l 226 0 m 225 1064 q 269 996 242 1033 q 326 922 296 958 q 382 857 357 885 l 382 842 l 304 842 q 235 899 271 865 q 165 968 200 932 q 94 899 129 932 q 28 842 60 865 l -49 842 l -49 857 q 7 923 -22 886 q 63 997 36 960 q 107 1064 90 1033 l 225 1064 z "},"ï":{"ha":335,"x_min":-19,"x_max":354,"o":"m 226 0 l 108 0 l 108 744 l 226 744 l 226 0 m -19 939 q -1 992 -19 975 q 43 1008 18 1008 q 88 992 69 1008 q 106 939 106 975 q 88 887 106 904 q 43 869 69 869 q -1 887 18 869 q -19 939 -19 904 m 228 939 q 247 992 228 975 q 290 1008 265 1008 q 335 992 317 1008 q 354 939 354 975 q 335 887 354 904 q 290 869 317 869 q 246 887 264 869 q 228 939 228 904 z "},"ð":{"ha":760,"x_min":69,"x_max":690,"o":"m 271 1061 q 347 1020 308 1043 q 419 969 385 997 l 563 1057 l 613 986 l 486 911 q 594 768 549 849 q 665 589 640 688 q 690 374 690 490 q 653 159 690 246 q 547 29 617 72 q 378 -14 476 -14 q 215 29 285 -14 q 108 148 146 72 q 69 324 69 224 q 106 503 69 429 q 207 617 142 578 q 361 657 272 657 q 438 649 403 657 q 500 626 472 642 q 547 583 528 610 l 553 586 q 492 731 533 664 q 396 854 450 799 l 242 763 l 193 833 l 328 914 q 276 951 303 933 q 221 985 249 968 l 271 1061 m 381 558 q 273 531 315 558 q 210 451 231 504 q 190 319 190 397 q 210 199 190 253 q 272 115 229 146 q 381 85 315 85 q 526 150 481 85 q 571 342 571 215 q 560 426 571 386 q 524 495 549 465 q 465 542 500 525 q 381 558 431 558 z "},"ñ":{"ha":776,"x_min":108,"x_max":672,"o":"m 435 758 q 613 694 553 758 q 672 492 672 631 l 672 0 l 554 0 l 554 479 q 521 613 554 568 q 414 657 488 657 q 268 590 310 657 q 226 386 226 522 l 226 0 l 108 0 l 108 744 l 203 744 l 219 643 l 226 643 q 281 708 249 682 q 353 746 313 733 q 435 758 393 758 m 156 842 q 169 911 160 879 q 197 967 179 943 q 238 1003 214 990 q 294 1015 263 1015 q 350 1003 324 1015 q 401 976 376 992 q 449 948 426 960 q 493 936 472 936 q 536 958 521 936 q 560 1017 551 979 l 629 1017 q 586 890 622 936 q 492 843 550 843 q 438 855 464 843 q 385 883 411 867 q 338 910 360 899 q 293 922 315 922 q 250 901 265 922 q 226 842 235 881 l 156 842 z "},"ò":{"ha":758,"x_min":69,"x_max":690,"o":"m 690 374 q 669 211 690 282 q 608 90 649 140 q 510 13 568 39 q 378 -14 451 -14 q 251 13 308 -14 q 154 89 194 39 q 92 210 114 139 q 69 374 69 282 q 106 583 69 497 q 213 713 143 668 q 381 758 282 758 q 543 714 474 758 q 651 584 613 669 q 690 374 690 499 m 192 374 q 212 219 192 283 q 274 120 232 154 q 381 86 315 86 q 486 120 444 86 q 548 219 528 154 q 568 374 568 283 q 548 528 568 465 q 486 624 528 592 q 379 657 444 657 q 236 583 281 657 q 192 374 192 510 m 350 1064 q 388 995 365 1033 q 435 921 410 957 q 481 858 460 885 l 481 842 l 401 842 q 351 888 379 861 q 294 944 322 914 q 244 1002 267 974 q 208 1050 221 1031 l 208 1064 l 350 1064 z "},"ó":{"ha":758,"x_min":69,"x_max":690,"o":"m 690 374 q 669 211 690 282 q 608 90 649 140 q 510 13 568 39 q 378 -14 451 -14 q 251 13 308 -14 q 154 89 194 39 q 92 210 114 139 q 69 374 69 282 q 106 583 69 497 q 213 713 143 668 q 381 758 282 758 q 543 714 474 758 q 651 584 613 669 q 690 374 690 499 m 192 374 q 212 219 192 283 q 274 120 232 154 q 381 86 315 86 q 486 120 444 86 q 548 219 528 154 q 568 374 568 283 q 548 528 568 465 q 486 624 528 592 q 379 657 444 657 q 236 583 281 657 q 192 374 192 510 m 576 1050 q 540 1003 564 1031 q 489 945 517 975 q 433 888 461 915 q 382 842 406 861 l 304 842 l 304 858 q 351 924 326 889 q 397 997 375 960 q 433 1064 418 1033 l 576 1064 l 576 1050 z "},"ô":{"ha":758,"x_min":69,"x_max":690,"o":"m 690 374 q 669 211 690 282 q 608 90 649 140 q 510 13 568 39 q 378 -14 451 -14 q 251 13 308 -14 q 154 89 194 39 q 92 210 114 139 q 69 374 69 282 q 106 583 69 497 q 213 713 143 668 q 381 758 282 758 q 543 714 474 758 q 651 584 613 669 q 690 374 690 499 m 192 374 q 212 219 192 283 q 274 120 232 154 q 381 86 315 86 q 486 120 444 86 q 548 219 528 154 q 568 374 568 283 q 548 528 568 465 q 486 624 528 592 q 379 657 444 657 q 236 583 281 657 q 192 374 192 510 m 438 1064 q 481 996 454 1033 q 539 922 508 958 q 594 857 569 885 l 594 842 l 517 842 q 448 899 483 865 q 378 968 413 932 q 307 899 342 932 q 240 842 272 865 l 164 842 l 164 857 q 219 923 190 886 q 276 997 249 960 q 319 1064 303 1033 l 438 1064 z "},"õ":{"ha":758,"x_min":69,"x_max":690,"o":"m 690 374 q 669 211 690 282 q 608 90 649 140 q 510 13 568 39 q 378 -14 451 -14 q 251 13 308 -14 q 154 89 194 39 q 92 210 114 139 q 69 374 69 282 q 106 583 69 497 q 213 713 143 668 q 381 758 282 758 q 543 714 474 758 q 651 584 613 669 q 690 374 690 499 m 192 374 q 212 219 192 283 q 274 120 232 154 q 381 86 315 86 q 486 120 444 86 q 548 219 528 154 q 568 374 568 283 q 548 528 568 465 q 486 624 528 592 q 379 657 444 657 q 236 583 281 657 q 192 374 192 510 m 144 842 q 158 911 149 879 q 185 967 168 943 q 227 1003 203 990 q 283 1015 251 1015 q 339 1003 313 1015 q 390 976 365 992 q 438 948 415 960 q 482 936 461 936 q 525 958 510 936 q 549 1017 540 979 l 618 1017 q 575 890 611 936 q 481 843 539 843 q 426 855 453 843 q 374 883 400 867 q 326 910 349 899 q 282 922 304 922 q 239 901 254 922 q 215 842 224 881 l 144 842 z "},"ö":{"ha":758,"x_min":69,"x_max":690,"o":"m 690 374 q 669 211 690 282 q 608 90 649 140 q 510 13 568 39 q 378 -14 451 -14 q 251 13 308 -14 q 154 89 194 39 q 92 210 114 139 q 69 374 69 282 q 106 583 69 497 q 213 713 143 668 q 381 758 282 758 q 543 714 474 758 q 651 584 613 669 q 690 374 690 499 m 192 374 q 212 219 192 283 q 274 120 232 154 q 381 86 315 86 q 486 120 444 86 q 548 219 528 154 q 568 374 568 283 q 548 528 568 465 q 486 624 528 592 q 379 657 444 657 q 236 583 281 657 q 192 374 192 510 m 193 939 q 212 992 193 975 q 256 1008 231 1008 q 300 992 282 1008 q 318 939 318 975 q 300 887 318 904 q 256 869 282 869 q 212 887 231 869 q 193 939 193 904 m 440 939 q 459 992 440 975 q 503 1008 478 1008 q 548 992 529 1008 q 567 939 567 975 q 548 887 567 904 q 503 869 529 869 q 458 887 476 869 q 440 939 440 904 z "},"÷":{"ha":722,"x_min":60,"x_max":661,"o":"m 60 442 l 60 539 l 661 539 l 661 442 l 60 442 m 361 164 q 307 184 328 164 q 286 249 286 204 q 307 314 286 294 q 361 333 328 333 q 414 314 393 333 q 435 249 435 294 q 413 184 435 204 q 361 164 392 164 m 361 646 q 307 666 328 646 q 286 731 286 686 q 307 796 286 776 q 361 815 328 815 q 414 796 393 815 q 435 731 435 776 q 413 666 435 686 q 361 646 392 646 z "},"ø":{"ha":758,"x_min":69,"x_max":689,"o":"m 689 374 q 651 163 689 250 q 544 31 614 76 q 376 -14 475 -14 q 291 -3 331 -14 q 218 31 251 8 l 163 -62 l 86 -17 l 151 90 q 90 213 111 142 q 69 374 69 283 q 152 659 69 560 q 381 758 235 758 q 468 746 428 758 q 543 710 508 733 l 596 796 l 674 750 l 611 649 q 668 529 647 599 q 689 374 689 460 m 190 374 q 197 275 190 319 q 219 197 204 231 l 489 621 q 440 649 468 639 q 379 658 411 658 q 235 585 281 658 q 190 374 190 511 m 569 374 q 563 467 569 425 q 543 540 556 508 l 274 119 q 322 94 294 103 q 379 85 349 85 q 487 119 444 85 q 549 217 529 153 q 569 374 569 282 z "},"ù":{"ha":776,"x_min":101,"x_max":668,"o":"m 668 744 l 668 0 l 572 0 l 556 99 l 549 99 q 495 36 528 61 q 424 -1 463 11 q 340 -14 385 -14 q 207 17 260 -14 q 128 108 154 47 q 101 258 101 168 l 101 744 l 221 744 l 221 271 q 255 133 221 178 q 360 88 289 88 q 472 118 431 88 q 532 208 514 149 q 550 354 550 267 l 550 744 l 668 744 m 358 1064 q 396 995 374 1033 q 443 921 418 957 q 489 858 468 885 l 489 842 l 410 842 q 359 888 388 861 q 303 944 331 914 q 252 1002 275 974 q 217 1050 229 1031 l 217 1064 l 358 1064 z "},"ú":{"ha":776,"x_min":101,"x_max":668,"o":"m 668 744 l 668 0 l 572 0 l 556 99 l 549 99 q 495 36 528 61 q 424 -1 463 11 q 340 -14 385 -14 q 207 17 260 -14 q 128 108 154 47 q 101 258 101 168 l 101 744 l 221 744 l 221 271 q 255 133 221 178 q 360 88 289 88 q 472 118 431 88 q 532 208 514 149 q 550 354 550 267 l 550 744 l 668 744 m 586 1050 q 550 1003 574 1031 q 499 945 526 975 q 443 888 471 915 q 392 842 415 861 l 314 842 l 314 858 q 360 924 336 889 q 406 997 385 960 q 443 1064 428 1033 l 586 1064 l 586 1050 z "},"û":{"ha":776,"x_min":101,"x_max":668,"o":"m 668 744 l 668 0 l 572 0 l 556 99 l 549 99 q 495 36 528 61 q 424 -1 463 11 q 340 -14 385 -14 q 207 17 260 -14 q 128 108 154 47 q 101 258 101 168 l 101 744 l 221 744 l 221 271 q 255 133 221 178 q 360 88 289 88 q 472 118 431 88 q 532 208 514 149 q 550 354 550 267 l 550 744 l 668 744 m 447 1064 q 491 996 464 1033 q 549 922 518 958 q 604 857 579 885 l 604 842 l 526 842 q 458 899 493 865 q 388 968 422 932 q 317 899 351 932 q 250 842 282 865 l 174 842 l 174 857 q 229 923 200 886 q 285 997 258 960 q 329 1064 313 1033 l 447 1064 z "},"ü":{"ha":776,"x_min":101,"x_max":668,"o":"m 668 744 l 668 0 l 572 0 l 556 99 l 549 99 q 495 36 528 61 q 424 -1 463 11 q 340 -14 385 -14 q 207 17 260 -14 q 128 108 154 47 q 101 258 101 168 l 101 744 l 221 744 l 221 271 q 255 133 221 178 q 360 88 289 88 q 472 118 431 88 q 532 208 514 149 q 550 354 550 267 l 550 744 l 668 744 m 203 939 q 222 992 203 975 q 265 1008 240 1008 q 310 992 292 1008 q 328 939 328 975 q 310 887 328 904 q 265 869 292 869 q 222 887 240 869 q 203 939 203 904 m 450 939 q 469 992 450 975 q 513 1008 488 1008 q 558 992 539 1008 q 576 939 576 975 q 558 887 576 904 q 513 869 539 869 q 468 887 486 869 q 450 939 450 904 z "},"ý":{"ha":638,"x_min":3,"x_max":635,"o":"m 3 744 l 128 744 l 268 322 q 288 256 278 289 q 306 192 297 224 q 319 132 314 161 l 325 132 q 347 219 332 168 q 378 322 361 269 l 510 744 l 635 744 l 351 -107 q 294 -229 326 -178 q 217 -307 263 -281 q 107 -333 171 -333 q 57 -330 79 -333 q 17 -322 35 -326 l 17 -224 q 51 -231 32 -228 q 89 -233 69 -233 q 153 -218 126 -233 q 198 -172 179 -203 q 232 -97 217 -142 l 265 0 l 3 744 m 515 1050 q 479 1003 503 1031 q 428 945 456 975 q 372 888 400 915 q 321 842 344 861 l 243 842 l 243 858 q 290 924 265 889 q 335 997 314 960 q 372 1064 357 1033 l 515 1064 l 515 1050 z "},"þ":{"ha":776,"x_min":108,"x_max":707,"o":"m 707 374 q 674 162 707 249 q 579 31 640 75 q 436 -14 518 -14 q 345 0 385 -14 q 276 40 306 14 q 226 96 247 65 l 219 96 q 222 63 221 83 q 225 21 224 42 q 226 -14 226 0 l 226 -333 l 108 -333 l 108 1056 l 226 1056 l 226 749 q 225 697 226 726 q 222 644 224 667 l 228 644 q 278 705 249 679 q 345 744 307 731 q 433 758 383 758 q 633 661 560 758 q 707 374 707 564 m 585 374 q 543 588 585 518 q 411 657 501 657 q 270 593 313 657 q 226 399 228 529 l 226 372 q 267 158 226 231 q 413 86 308 86 q 512 122 474 86 q 567 223 550 158 q 585 374 585 288 z "},"ÿ":{"ha":638,"x_min":3,"x_max":635,"o":"m 3 744 l 128 744 l 268 322 q 288 256 278 289 q 306 192 297 224 q 319 132 314 161 l 325 132 q 347 219 332 168 q 378 322 361 269 l 510 744 l 635 744 l 351 -107 q 294 -229 326 -178 q 217 -307 263 -281 q 107 -333 171 -333 q 57 -330 79 -333 q 17 -322 35 -326 l 17 -224 q 51 -231 32 -228 q 89 -233 69 -233 q 153 -218 126 -233 q 198 -172 179 -203 q 232 -97 217 -142 l 265 0 l 3 744 m 132 939 q 151 992 132 975 q 194 1008 169 1008 q 239 992 221 1008 q 257 939 257 975 q 239 887 257 904 q 194 869 221 869 q 151 887 169 869 q 132 939 132 904 m 379 939 q 398 992 379 975 q 442 1008 417 1008 q 487 992 468 1008 q 506 939 506 975 q 487 887 506 904 q 442 869 468 869 q 397 887 415 869 q 379 939 379 904 z "},"Ā":{"ha":792,"x_min":0,"x_max":790,"o":"m 664 0 l 561 308 l 228 308 l 126 0 l 0 0 l 333 994 l 456 994 l 790 0 l 664 0 m 432 728 q 420 772 428 744 q 405 827 413 799 q 393 874 397 856 q 383 822 389 849 q 369 772 376 796 q 357 728 363 747 l 260 418 l 529 418 l 432 728 m 585 1188 l 585 1093 l 200 1093 l 200 1188 l 585 1188 z "},"ā":{"ha":706,"x_min":58,"x_max":601,"o":"m 363 758 q 544 696 486 758 q 601 506 601 633 l 601 0 l 514 0 l 493 104 l 489 104 q 431 38 461 65 q 360 -1 400 11 q 268 -14 321 -14 q 157 13 204 -14 q 84 89 110 39 q 58 207 58 139 q 137 379 58 318 q 374 446 215 440 l 485 450 l 485 496 q 451 624 485 586 q 351 661 417 661 q 256 646 303 661 q 167 608 210 631 l 129 697 q 237 742 176 725 q 363 758 297 758 m 390 361 q 228 318 275 357 q 181 207 181 279 q 213 113 181 143 q 300 82 246 82 q 433 136 381 82 q 485 296 485 190 l 485 365 l 390 361 m 547 940 l 547 846 l 163 846 l 163 940 l 547 940 z "},"Ă":{"ha":792,"x_min":0,"x_max":790,"o":"m 664 0 l 561 308 l 228 308 l 126 0 l 0 0 l 333 994 l 456 994 l 790 0 l 664 0 m 432 728 q 420 772 428 744 q 405 827 413 799 q 393 874 397 856 q 383 822 389 849 q 369 772 376 796 q 357 728 363 747 l 260 418 l 529 418 l 432 728 m 592 1275 q 565 1178 590 1219 q 495 1113 539 1136 q 390 1089 451 1089 q 248 1138 297 1089 q 194 1275 199 1188 l 269 1275 q 288 1219 272 1239 q 330 1192 303 1200 q 393 1183 357 1183 q 453 1192 426 1183 q 497 1220 479 1200 q 518 1275 514 1240 l 592 1275 z "},"ă":{"ha":706,"x_min":58,"x_max":601,"o":"m 363 758 q 544 696 486 758 q 601 506 601 633 l 601 0 l 514 0 l 493 104 l 489 104 q 431 38 461 65 q 360 -1 400 11 q 268 -14 321 -14 q 157 13 204 -14 q 84 89 110 39 q 58 207 58 139 q 137 379 58 318 q 374 446 215 440 l 485 450 l 485 496 q 451 624 485 586 q 351 661 417 661 q 256 646 303 661 q 167 608 210 631 l 129 697 q 237 742 176 725 q 363 758 297 758 m 390 361 q 228 318 275 357 q 181 207 181 279 q 213 113 181 143 q 300 82 246 82 q 433 136 381 82 q 485 296 485 190 l 485 365 l 390 361 m 554 1028 q 527 931 553 972 q 458 865 501 889 q 353 842 414 842 q 210 891 260 842 q 157 1028 161 940 l 232 1028 q 250 972 235 992 q 292 944 265 953 q 356 936 319 936 q 415 944 389 936 q 459 973 442 953 q 481 1028 476 993 l 554 1028 z "},"Ą":{"ha":792,"x_min":0,"x_max":790,"o":"m 664 0 l 561 308 l 228 308 l 126 0 l 0 0 l 333 994 l 456 994 l 790 0 l 664 0 m 432 728 q 420 772 428 744 q 405 827 413 799 q 393 874 397 856 q 383 822 389 849 q 369 772 376 796 q 357 728 363 747 l 260 418 l 529 418 l 432 728 m 663 -161 q 679 -210 663 -193 q 725 -226 696 -226 q 760 -223 746 -226 q 783 -218 774 -219 l 783 -296 q 749 -304 767 -301 q 704 -307 731 -307 q 599 -274 633 -307 q 565 -178 565 -240 q 583 -103 565 -139 q 628 -35 600 -67 q 688 19 657 -3 l 753 0 q 684 -83 706 -46 q 663 -161 663 -119 z "},"ą":{"ha":706,"x_min":58,"x_max":629,"o":"m 363 758 q 544 696 486 758 q 601 506 601 633 l 601 0 l 514 0 l 493 104 l 489 104 q 431 38 461 65 q 360 -1 400 11 q 268 -14 321 -14 q 157 13 204 -14 q 84 89 110 39 q 58 207 58 139 q 137 379 58 318 q 374 446 215 440 l 485 450 l 485 496 q 451 624 485 586 q 351 661 417 661 q 256 646 303 661 q 167 608 210 631 l 129 697 q 237 742 176 725 q 363 758 297 758 m 390 361 q 228 318 275 357 q 181 207 181 279 q 213 113 181 143 q 300 82 246 82 q 433 136 381 82 q 485 296 485 190 l 485 365 l 390 361 m 508 -161 q 525 -210 508 -193 q 571 -226 542 -226 q 606 -223 592 -226 q 629 -218 619 -219 l 629 -296 q 594 -304 613 -301 q 550 -307 576 -307 q 445 -274 479 -307 q 411 -178 411 -240 q 428 -103 411 -139 q 474 -35 446 -67 q 533 19 503 -3 l 599 0 q 530 -83 551 -46 q 508 -161 508 -119 z "},"Ć":{"ha":783,"x_min":79,"x_max":743,"o":"m 503 897 q 376 869 432 897 q 283 786 321 840 q 226 658 246 732 q 207 496 207 585 q 241 282 207 372 q 342 143 275 192 q 506 94 408 94 q 612 106 561 94 q 710 133 663 117 l 710 25 q 610 -4 663 6 q 489 -14 558 -14 q 264 48 356 -14 q 126 225 172 110 q 79 497 79 340 q 106 700 79 607 q 187 862 133 793 q 319 968 240 931 q 503 1006 399 1006 q 631 992 569 1006 q 743 951 693 978 l 697 847 q 608 883 657 868 q 503 897 560 897 m 672 1297 q 636 1250 660 1278 q 585 1192 613 1222 q 529 1135 557 1163 q 478 1089 501 1108 l 400 1089 l 400 1106 q 447 1172 422 1136 q 492 1244 471 1207 q 529 1311 514 1281 l 672 1311 l 672 1297 z "},"ć":{"ha":599,"x_min":71,"x_max":560,"o":"m 376 -14 q 215 27 283 -14 q 108 153 146 68 q 71 368 71 238 q 110 587 71 500 q 219 716 149 674 q 383 758 289 758 q 481 748 435 758 q 560 721 528 738 l 522 622 q 454 644 492 635 q 385 654 417 654 q 277 622 319 654 q 214 527 235 590 q 193 369 193 464 q 214 216 193 279 q 276 121 235 153 q 381 89 318 89 q 472 100 431 89 q 549 129 513 111 l 549 26 q 472 -3 514 7 q 376 -14 429 -14 m 553 1050 q 517 1003 540 1031 q 465 945 493 975 q 410 888 438 915 q 358 842 382 861 l 281 842 l 281 858 q 327 924 303 889 q 373 997 351 960 q 410 1064 394 1033 l 553 1064 l 553 1050 z "},"Ĉ":{"ha":783,"x_min":79,"x_max":743,"o":"m 503 897 q 376 869 432 897 q 283 786 321 840 q 226 658 246 732 q 207 496 207 585 q 241 282 207 372 q 342 143 275 192 q 506 94 408 94 q 612 106 561 94 q 710 133 663 117 l 710 25 q 610 -4 663 6 q 489 -14 558 -14 q 264 48 356 -14 q 126 225 172 110 q 79 497 79 340 q 106 700 79 607 q 187 862 133 793 q 319 968 240 931 q 503 1006 399 1006 q 631 992 569 1006 q 743 951 693 978 l 697 847 q 608 883 657 868 q 503 897 560 897 m 533 1311 q 577 1243 550 1281 q 635 1169 604 1206 q 690 1104 665 1132 l 690 1089 l 613 1089 q 544 1146 579 1113 q 474 1215 508 1179 q 403 1146 438 1179 q 336 1089 368 1113 l 260 1089 l 260 1104 q 315 1170 286 1133 q 372 1244 344 1207 q 415 1311 399 1281 l 533 1311 z "},"ĉ":{"ha":599,"x_min":71,"x_max":571,"o":"m 376 -14 q 215 27 283 -14 q 108 153 146 68 q 71 368 71 238 q 110 587 71 500 q 219 716 149 674 q 383 758 289 758 q 481 748 435 758 q 560 721 528 738 l 522 622 q 454 644 492 635 q 385 654 417 654 q 277 622 319 654 q 214 527 235 590 q 193 369 193 464 q 214 216 193 279 q 276 121 235 153 q 381 89 318 89 q 472 100 431 89 q 549 129 513 111 l 549 26 q 472 -3 514 7 q 376 -14 429 -14 m 414 1064 q 458 996 431 1033 q 515 922 485 958 q 571 857 546 885 l 571 842 l 493 842 q 424 899 460 865 q 354 968 389 932 q 283 899 318 932 q 217 842 249 865 l 140 842 l 140 857 q 196 923 167 886 q 252 997 225 960 q 296 1064 279 1033 l 414 1064 z "},"Ċ":{"ha":783,"x_min":79,"x_max":743,"o":"m 503 897 q 376 869 432 897 q 283 786 321 840 q 226 658 246 732 q 207 496 207 585 q 241 282 207 372 q 342 143 275 192 q 506 94 408 94 q 612 106 561 94 q 710 133 663 117 l 710 25 q 610 -4 663 6 q 489 -14 558 -14 q 264 48 356 -14 q 126 225 172 110 q 79 497 79 340 q 106 700 79 607 q 187 862 133 793 q 319 968 240 931 q 503 1006 399 1006 q 631 992 569 1006 q 743 951 693 978 l 697 847 q 608 883 657 868 q 503 897 560 897 m 478 1272 q 526 1253 507 1272 q 546 1193 546 1233 q 526 1135 546 1154 q 478 1115 507 1115 q 427 1135 447 1115 q 407 1193 407 1154 q 426 1253 407 1233 q 478 1272 446 1272 z "},"ċ":{"ha":599,"x_min":71,"x_max":560,"o":"m 376 -14 q 215 27 283 -14 q 108 153 146 68 q 71 368 71 238 q 110 587 71 500 q 219 716 149 674 q 383 758 289 758 q 481 748 435 758 q 560 721 528 738 l 522 622 q 454 644 492 635 q 385 654 417 654 q 277 622 319 654 q 214 527 235 590 q 193 369 193 464 q 214 216 193 279 q 276 121 235 153 q 381 89 318 89 q 472 100 431 89 q 549 129 513 111 l 549 26 q 472 -3 514 7 q 376 -14 429 -14 m 358 1025 q 407 1006 388 1025 q 426 946 426 986 q 407 888 426 907 q 358 868 388 868 q 308 888 328 868 q 288 946 288 907 q 307 1006 288 986 q 358 1025 326 1025 z "},"Č":{"ha":783,"x_min":79,"x_max":743,"o":"m 503 897 q 376 869 432 897 q 283 786 321 840 q 226 658 246 732 q 207 496 207 585 q 241 282 207 372 q 342 143 275 192 q 506 94 408 94 q 612 106 561 94 q 710 133 663 117 l 710 25 q 610 -4 663 6 q 489 -14 558 -14 q 264 48 356 -14 q 126 225 172 110 q 79 497 79 340 q 106 700 79 607 q 187 862 133 793 q 319 968 240 931 q 503 1006 399 1006 q 631 992 569 1006 q 743 951 693 978 l 697 847 q 608 883 657 868 q 503 897 560 897 m 415 1089 q 372 1157 399 1121 q 315 1230 344 1193 q 260 1294 285 1267 l 260 1311 l 336 1311 q 404 1253 368 1288 q 474 1182 440 1219 q 544 1252 510 1221 q 613 1311 578 1283 l 690 1311 l 690 1294 q 636 1231 667 1268 q 578 1158 606 1194 q 533 1089 550 1121 l 415 1089 z "},"č":{"ha":599,"x_min":71,"x_max":571,"o":"m 376 -14 q 215 27 283 -14 q 108 153 146 68 q 71 368 71 238 q 110 587 71 500 q 219 716 149 674 q 383 758 289 758 q 481 748 435 758 q 560 721 528 738 l 522 622 q 454 644 492 635 q 385 654 417 654 q 277 622 319 654 q 214 527 235 590 q 193 369 193 464 q 214 216 193 279 q 276 121 235 153 q 381 89 318 89 q 472 100 431 89 q 549 129 513 111 l 549 26 q 472 -3 514 7 q 376 -14 429 -14 m 296 842 q 252 910 279 874 q 195 983 225 946 q 140 1047 165 1019 l 140 1064 l 217 1064 q 285 1006 249 1040 q 354 935 321 972 q 424 1005 390 974 q 493 1064 458 1036 l 571 1064 l 571 1047 q 517 984 547 1021 q 458 910 486 947 q 414 842 431 874 l 296 842 z "},"Ď":{"ha":906,"x_min":122,"x_max":826,"o":"m 826 507 q 773 227 826 340 q 618 57 719 114 q 371 0 517 0 l 122 0 l 122 992 l 393 992 q 625 936 528 992 q 774 773 722 881 q 826 507 826 665 m 699 501 q 661 717 699 632 q 553 844 624 803 q 379 886 482 886 l 244 886 l 244 106 l 358 106 q 615 206 531 106 q 699 501 699 306 m 386 1089 q 342 1157 369 1121 q 285 1230 315 1193 q 231 1294 256 1267 l 231 1311 l 307 1311 q 375 1253 339 1288 q 444 1182 411 1219 q 515 1252 481 1221 q 583 1311 549 1283 l 661 1311 l 661 1294 q 607 1231 638 1268 q 549 1158 576 1194 q 504 1089 521 1121 l 386 1089 z "},"ď":{"ha":776,"x_min":69,"x_max":883,"o":"m 883 1043 q 863 978 878 1017 q 828 900 847 939 q 789 833 808 861 l 724 833 l 724 850 q 735 892 729 865 q 747 949 742 919 q 758 1007 753 979 q 764 1056 763 1035 l 883 1056 l 883 1043 m 343 -14 q 143 83 217 -14 q 69 371 69 181 q 143 660 69 561 q 343 758 217 758 q 431 744 392 758 q 499 706 469 731 q 550 649 529 682 l 557 649 q 553 703 556 672 q 550 757 550 735 l 550 1056 l 669 1056 l 669 0 l 574 0 l 557 99 l 550 99 q 500 40 529 65 q 432 1 471 15 q 343 -14 393 -14 m 365 86 q 508 150 465 86 q 551 344 551 214 l 551 374 q 510 586 551 514 q 364 658 468 658 q 234 581 276 658 q 192 369 192 504 q 235 160 192 233 q 365 86 278 86 z "},"Đ":{"ha":906,"x_min":38,"x_max":826,"o":"m 392 992 q 624 936 526 992 q 774 774 721 881 q 826 507 826 667 q 772 227 826 340 q 617 57 718 114 q 369 0 515 0 l 128 0 l 128 446 l 38 446 l 38 549 l 128 549 l 128 992 l 392 992 m 379 886 l 250 886 l 250 549 l 457 549 l 457 446 l 250 446 l 250 106 l 358 106 q 615 206 531 106 q 699 501 699 306 q 661 717 699 632 q 553 844 624 803 q 379 886 482 886 z "},"đ":{"ha":778,"x_min":69,"x_max":765,"o":"m 343 -14 q 143 83 217 -14 q 69 368 69 181 q 143 656 69 558 q 342 753 217 753 q 431 739 392 753 q 499 700 469 725 q 550 643 529 675 l 557 643 q 552 697 554 665 q 550 751 550 729 l 550 842 l 306 842 l 306 932 l 550 932 l 550 1056 l 669 1056 l 669 932 l 765 932 l 765 842 l 669 842 l 669 0 l 572 0 l 556 99 l 549 99 q 499 40 528 65 q 431 0 469 14 q 343 -14 393 -14 m 367 86 q 508 150 465 86 q 551 346 551 214 l 551 371 q 510 581 551 511 q 364 651 468 651 q 235 576 276 651 q 193 367 193 501 q 235 158 193 231 q 367 86 278 86 z "},"Ē":{"ha":694,"x_min":122,"x_max":618,"o":"m 618 0 l 122 0 l 122 992 l 618 992 l 618 883 l 244 883 l 244 571 l 596 571 l 596 464 l 244 464 l 244 108 l 618 108 l 618 0 m 569 1188 l 569 1093 l 185 1093 l 185 1188 l 569 1188 z "},"ē":{"ha":708,"x_min":71,"x_max":644,"o":"m 367 758 q 517 716 456 758 q 612 599 579 674 q 644 425 644 524 l 644 350 l 192 350 q 248 154 194 221 q 403 88 301 88 q 510 100 461 88 q 613 139 560 113 l 613 35 q 511 -2 563 10 q 394 -14 460 -14 q 220 32 293 -14 q 109 163 147 78 q 71 367 71 249 q 106 578 71 490 q 208 712 142 665 q 367 758 275 758 m 365 661 q 245 606 289 661 q 193 444 201 550 l 524 444 q 507 556 524 507 q 456 633 490 604 q 365 661 421 661 m 550 940 l 550 846 l 165 846 l 165 940 l 550 940 z "},"Ĕ":{"ha":694,"x_min":122,"x_max":618,"o":"m 618 0 l 122 0 l 122 992 l 618 992 l 618 883 l 244 883 l 244 571 l 596 571 l 596 464 l 244 464 l 244 108 l 618 108 l 618 0 m 576 1275 q 549 1178 575 1219 q 480 1113 524 1136 q 375 1089 436 1089 q 233 1138 282 1089 q 179 1275 183 1188 l 254 1275 q 272 1219 257 1239 q 315 1192 288 1200 q 378 1183 342 1183 q 438 1192 411 1183 q 481 1220 464 1200 q 503 1275 499 1240 l 576 1275 z "},"ĕ":{"ha":708,"x_min":71,"x_max":644,"o":"m 367 758 q 517 716 456 758 q 612 599 579 674 q 644 425 644 524 l 644 350 l 192 350 q 248 154 194 221 q 403 88 301 88 q 510 100 461 88 q 613 139 560 113 l 613 35 q 511 -2 563 10 q 394 -14 460 -14 q 220 32 293 -14 q 109 163 147 78 q 71 367 71 249 q 106 578 71 490 q 208 712 142 665 q 367 758 275 758 m 365 661 q 245 606 289 661 q 193 444 201 550 l 524 444 q 507 556 524 507 q 456 633 490 604 q 365 661 421 661 m 557 1028 q 530 931 556 972 q 460 865 504 889 q 356 842 417 842 q 213 891 263 842 q 160 1028 164 940 l 235 1028 q 253 972 238 992 q 295 944 268 953 q 358 936 322 936 q 418 944 392 936 q 462 973 444 953 q 483 1028 479 993 l 557 1028 z "},"Ė":{"ha":694,"x_min":122,"x_max":618,"o":"m 618 0 l 122 0 l 122 992 l 618 992 l 618 883 l 244 883 l 244 571 l 596 571 l 596 464 l 244 464 l 244 108 l 618 108 l 618 0 m 381 1272 q 429 1253 410 1272 q 449 1193 449 1233 q 429 1135 449 1154 q 381 1115 410 1115 q 330 1135 350 1115 q 310 1193 310 1154 q 329 1253 310 1233 q 381 1272 349 1272 z "},"ė":{"ha":708,"x_min":71,"x_max":644,"o":"m 367 758 q 517 716 456 758 q 612 599 579 674 q 644 425 644 524 l 644 350 l 192 350 q 248 154 194 221 q 403 88 301 88 q 510 100 461 88 q 613 139 560 113 l 613 35 q 511 -2 563 10 q 394 -14 460 -14 q 220 32 293 -14 q 109 163 147 78 q 71 367 71 249 q 106 578 71 490 q 208 712 142 665 q 367 758 275 758 m 365 661 q 245 606 289 661 q 193 444 201 550 l 524 444 q 507 556 524 507 q 456 633 490 604 q 365 661 421 661 m 361 1025 q 410 1006 390 1025 q 429 946 429 986 q 410 888 429 907 q 361 868 390 868 q 310 888 331 868 q 290 946 290 907 q 310 1006 290 986 q 361 1025 329 1025 z "},"Ę":{"ha":694,"x_min":122,"x_max":618,"o":"m 618 0 l 122 0 l 122 992 l 618 992 l 618 883 l 244 883 l 244 571 l 596 571 l 596 464 l 244 464 l 244 108 l 618 108 l 618 0 m 489 -161 q 506 -210 489 -193 q 551 -226 522 -226 q 586 -223 572 -226 q 610 -218 600 -219 l 610 -296 q 575 -304 593 -301 q 531 -307 557 -307 q 426 -274 460 -307 q 392 -178 392 -240 q 409 -103 392 -139 q 455 -35 426 -67 q 514 19 483 -3 l 579 0 q 510 -83 532 -46 q 489 -161 489 -119 z "},"ę":{"ha":708,"x_min":71,"x_max":644,"o":"m 483 -161 q 500 -209 483 -193 q 546 -225 517 -225 q 580 -222 565 -225 q 604 -217 594 -218 l 604 -294 q 568 -303 588 -300 q 524 -307 549 -307 q 419 -273 453 -307 q 386 -176 386 -239 q 403 -103 386 -139 q 448 -37 421 -67 q 504 14 475 -7 l 613 35 q 535 -41 564 -7 q 495 -104 507 -75 q 483 -161 483 -133 m 367 758 q 517 716 456 758 q 612 599 579 674 q 644 425 644 524 l 644 350 l 192 350 q 248 154 194 221 q 403 88 301 88 q 510 100 461 88 q 613 139 560 113 l 613 35 q 511 -2 563 10 q 394 -14 460 -14 q 220 32 293 -14 q 109 163 147 78 q 71 367 71 249 q 106 578 71 490 q 208 712 142 665 q 367 758 275 758 m 365 661 q 245 606 289 661 q 193 444 201 550 l 524 444 q 507 556 524 507 q 456 633 490 604 q 365 661 421 661 z "},"Ě":{"ha":694,"x_min":122,"x_max":618,"o":"m 618 0 l 122 0 l 122 992 l 618 992 l 618 883 l 244 883 l 244 571 l 596 571 l 596 464 l 244 464 l 244 108 l 618 108 l 618 0 m 318 1089 q 274 1157 301 1121 q 217 1230 247 1193 q 163 1294 188 1267 l 163 1311 l 239 1311 q 307 1253 271 1288 q 376 1182 343 1219 q 447 1252 413 1221 q 515 1311 481 1283 l 593 1311 l 593 1294 q 539 1231 569 1268 q 481 1158 508 1194 q 436 1089 453 1121 l 318 1089 z "},"ě":{"ha":708,"x_min":71,"x_max":644,"o":"m 367 758 q 517 716 456 758 q 612 599 579 674 q 644 425 644 524 l 644 350 l 192 350 q 248 154 194 221 q 403 88 301 88 q 510 100 461 88 q 613 139 560 113 l 613 35 q 511 -2 563 10 q 394 -14 460 -14 q 220 32 293 -14 q 109 163 147 78 q 71 367 71 249 q 106 578 71 490 q 208 712 142 665 q 367 758 275 758 m 365 661 q 245 606 289 661 q 193 444 201 550 l 524 444 q 507 556 524 507 q 456 633 490 604 q 365 661 421 661 m 299 842 q 255 910 282 874 q 198 983 228 946 q 143 1047 168 1019 l 143 1064 l 219 1064 q 288 1006 251 1040 q 357 935 324 972 q 427 1005 393 974 q 496 1064 461 1036 l 574 1064 l 574 1047 q 519 984 550 1021 q 461 910 489 947 q 417 842 433 874 l 299 842 z "},"Ĝ":{"ha":918,"x_min":79,"x_max":825,"o":"m 515 524 l 825 524 l 825 36 q 676 -1 751 11 q 510 -14 600 -14 q 272 50 368 -14 q 128 229 176 114 q 79 497 79 344 q 133 764 79 650 q 290 942 186 878 q 542 1006 393 1006 q 686 990 618 1006 q 813 946 754 975 l 767 840 q 658 882 717 867 q 539 897 600 897 q 359 850 433 897 q 246 713 285 803 q 207 496 207 622 q 240 288 207 379 q 344 145 272 197 q 532 93 415 93 q 628 100 588 93 q 704 117 669 107 l 704 415 l 515 415 l 515 524 m 571 1311 q 615 1243 588 1281 q 672 1169 642 1206 q 728 1104 703 1132 l 728 1089 l 650 1089 q 581 1146 617 1113 q 511 1215 546 1179 q 440 1146 475 1179 q 374 1089 406 1113 l 297 1089 l 297 1104 q 353 1170 324 1133 q 409 1244 382 1207 q 453 1311 436 1281 l 571 1311 z "},"ĝ":{"ha":776,"x_min":69,"x_max":669,"o":"m 343 758 q 461 731 410 758 q 550 646 513 704 l 557 646 l 572 744 l 669 744 l 669 -11 q 635 -187 669 -115 q 532 -297 601 -260 q 354 -333 463 -333 q 226 -322 285 -333 q 119 -287 168 -311 l 119 -178 q 231 -218 171 -204 q 358 -232 292 -232 q 501 -180 450 -232 q 551 -26 551 -128 l 551 0 q 553 50 551 19 q 556 100 554 81 l 550 100 q 463 15 514 43 q 343 -14 413 -14 q 142 86 214 -14 q 69 371 69 186 q 142 656 69 554 q 343 758 215 758 m 363 657 q 269 624 307 657 q 211 526 231 590 q 192 369 192 463 q 235 157 192 228 q 365 86 279 86 q 449 101 414 86 q 506 147 483 115 q 540 227 529 179 q 551 342 551 275 l 551 372 q 532 535 551 472 q 470 628 513 599 q 363 657 428 657 m 442 1064 q 485 996 458 1033 q 543 922 513 958 q 599 857 574 885 l 599 842 l 521 842 q 452 899 488 865 q 382 968 417 932 q 311 899 346 932 q 244 842 276 865 l 168 842 l 168 857 q 224 923 194 886 q 280 997 253 960 q 324 1064 307 1033 l 442 1064 z "},"Ğ":{"ha":918,"x_min":79,"x_max":825,"o":"m 515 524 l 825 524 l 825 36 q 676 -1 751 11 q 510 -14 600 -14 q 272 50 368 -14 q 128 229 176 114 q 79 497 79 344 q 133 764 79 650 q 290 942 186 878 q 542 1006 393 1006 q 686 990 618 1006 q 813 946 754 975 l 767 840 q 658 882 717 867 q 539 897 600 897 q 359 850 433 897 q 246 713 285 803 q 207 496 207 622 q 240 288 207 379 q 344 145 272 197 q 532 93 415 93 q 628 100 588 93 q 704 117 669 107 l 704 415 l 515 415 l 515 524 m 711 1275 q 684 1178 710 1219 q 615 1113 658 1136 q 510 1089 571 1089 q 367 1138 417 1089 q 314 1275 318 1188 l 389 1275 q 407 1219 392 1239 q 449 1192 422 1200 q 513 1183 476 1183 q 572 1192 546 1183 q 616 1220 599 1200 q 638 1275 633 1240 l 711 1275 z "},"ğ":{"ha":776,"x_min":69,"x_max":669,"o":"m 343 758 q 461 731 410 758 q 550 646 513 704 l 557 646 l 572 744 l 669 744 l 669 -11 q 635 -187 669 -115 q 532 -297 601 -260 q 354 -333 463 -333 q 226 -322 285 -333 q 119 -287 168 -311 l 119 -178 q 231 -218 171 -204 q 358 -232 292 -232 q 501 -180 450 -232 q 551 -26 551 -128 l 551 0 q 553 50 551 19 q 556 100 554 81 l 550 100 q 463 15 514 43 q 343 -14 413 -14 q 142 86 214 -14 q 69 371 69 186 q 142 656 69 554 q 343 758 215 758 m 363 657 q 269 624 307 657 q 211 526 231 590 q 192 369 192 463 q 235 157 192 228 q 365 86 279 86 q 449 101 414 86 q 506 147 483 115 q 540 227 529 179 q 551 342 551 275 l 551 372 q 532 535 551 472 q 470 628 513 599 q 363 657 428 657 m 581 1028 q 553 931 579 972 q 484 865 528 889 q 379 842 440 842 q 237 891 286 842 q 183 1028 188 940 l 258 1028 q 276 972 261 992 q 319 944 292 953 q 382 936 346 936 q 442 944 415 936 q 485 973 468 953 q 507 1028 503 993 l 581 1028 z "},"Ġ":{"ha":918,"x_min":79,"x_max":825,"o":"m 515 524 l 825 524 l 825 36 q 676 -1 751 11 q 510 -14 600 -14 q 272 50 368 -14 q 128 229 176 114 q 79 497 79 344 q 133 764 79 650 q 290 942 186 878 q 542 1006 393 1006 q 686 990 618 1006 q 813 946 754 975 l 767 840 q 658 882 717 867 q 539 897 600 897 q 359 850 433 897 q 246 713 285 803 q 207 496 207 622 q 240 288 207 379 q 344 145 272 197 q 532 93 415 93 q 628 100 588 93 q 704 117 669 107 l 704 415 l 515 415 l 515 524 m 515 1272 q 564 1253 544 1272 q 583 1193 583 1233 q 564 1135 583 1154 q 515 1115 544 1115 q 465 1135 485 1115 q 444 1193 444 1154 q 464 1253 444 1233 q 515 1272 483 1272 z "},"ġ":{"ha":776,"x_min":69,"x_max":669,"o":"m 343 758 q 461 731 410 758 q 550 646 513 704 l 557 646 l 572 744 l 669 744 l 669 -11 q 635 -187 669 -115 q 532 -297 601 -260 q 354 -333 463 -333 q 226 -322 285 -333 q 119 -287 168 -311 l 119 -178 q 231 -218 171 -204 q 358 -232 292 -232 q 501 -180 450 -232 q 551 -26 551 -128 l 551 0 q 553 50 551 19 q 556 100 554 81 l 550 100 q 463 15 514 43 q 343 -14 413 -14 q 142 86 214 -14 q 69 371 69 186 q 142 656 69 554 q 343 758 215 758 m 363 657 q 269 624 307 657 q 211 526 231 590 q 192 369 192 463 q 235 157 192 228 q 365 86 279 86 q 449 101 414 86 q 506 147 483 115 q 540 227 529 179 q 551 342 551 275 l 551 372 q 532 535 551 472 q 470 628 513 599 q 363 657 428 657 m 385 1025 q 433 1006 414 1025 q 453 946 453 986 q 433 888 453 907 q 385 868 414 868 q 334 888 354 868 q 314 946 314 907 q 333 1006 314 986 q 385 1025 353 1025 z "},"Ģ":{"ha":918,"x_min":79,"x_max":825,"o":"m 515 524 l 825 524 l 825 36 q 676 -1 751 11 q 510 -14 600 -14 q 272 50 368 -14 q 128 229 176 114 q 79 497 79 344 q 133 764 79 650 q 290 942 186 878 q 542 1006 393 1006 q 686 990 618 1006 q 813 946 754 975 l 767 840 q 658 882 717 867 q 539 897 600 897 q 359 850 433 897 q 246 713 285 803 q 207 496 207 622 q 240 288 207 379 q 344 145 272 197 q 532 93 415 93 q 628 100 588 93 q 704 117 669 107 l 704 415 l 515 415 l 515 524 m 596 -97 q 572 -165 589 -126 q 535 -240 556 -203 q 490 -307 514 -278 l 425 -307 l 425 -290 q 446 -229 435 -267 q 466 -153 457 -192 q 478 -85 475 -114 l 596 -85 l 596 -97 z "},"ģ":{"ha":776,"x_min":69,"x_max":669,"o":"m 468 1047 q 445 986 457 1024 q 424 910 433 949 q 411 842 415 871 l 293 842 l 293 854 q 316 921 300 883 q 354 997 332 958 q 401 1064 376 1035 l 468 1064 l 468 1047 m 343 758 q 461 731 410 758 q 550 646 513 704 l 557 646 l 572 744 l 669 744 l 669 -11 q 635 -187 669 -115 q 532 -297 601 -260 q 354 -333 463 -333 q 226 -322 285 -333 q 119 -287 168 -311 l 119 -178 q 231 -218 171 -204 q 358 -232 292 -232 q 501 -180 450 -232 q 551 -26 551 -128 l 551 0 q 553 50 551 19 q 556 100 554 81 l 550 100 q 463 15 514 43 q 343 -14 413 -14 q 142 86 214 -14 q 69 371 69 186 q 142 656 69 554 q 343 758 215 758 m 363 657 q 269 624 307 657 q 211 526 231 590 q 192 369 192 463 q 235 157 192 228 q 365 86 279 86 q 449 101 414 86 q 506 147 483 115 q 540 227 529 179 q 551 342 551 275 l 551 372 q 532 535 551 472 q 470 628 513 599 q 363 657 428 657 z "},"Ĥ":{"ha":924,"x_min":122,"x_max":800,"o":"m 800 0 l 678 0 l 678 464 l 244 464 l 244 0 l 122 0 l 122 992 l 244 992 l 244 572 l 678 572 l 678 992 l 800 992 l 800 0 m 521 1311 q 565 1243 538 1281 q 622 1169 592 1206 q 678 1104 653 1132 l 678 1089 l 600 1089 q 531 1146 567 1113 q 461 1215 496 1179 q 390 1146 425 1179 q 324 1089 356 1113 l 247 1089 l 247 1104 q 303 1170 274 1133 q 359 1244 332 1207 q 403 1311 386 1281 l 521 1311 z "},"ĥ":{"ha":776,"x_min":-47,"x_max":672,"o":"m 226 750 q 224 694 226 722 q 219 643 222 667 l 228 643 q 279 706 247 681 q 351 745 311 732 q 433 758 390 758 q 567 729 514 758 q 646 642 619 700 q 672 492 672 583 l 672 0 l 554 0 l 554 479 q 521 614 554 571 q 414 657 488 657 q 303 626 344 657 q 244 535 263 596 q 226 386 226 475 l 226 0 l 108 0 l 108 1056 l 226 1056 l 226 750 m 226 1375 q 270 1307 243 1344 q 328 1233 297 1269 q 383 1168 358 1196 l 383 1153 l 306 1153 q 237 1210 272 1176 q 167 1279 201 1243 q 96 1210 131 1243 q 29 1153 61 1176 l -47 1153 l -47 1168 q 8 1234 -21 1197 q 65 1308 38 1271 q 108 1375 92 1344 l 226 1375 z "},"Ħ":{"ha":924,"x_min":-1,"x_max":922,"o":"m 122 0 l 122 731 l -1 731 l -1 826 l 122 826 l 122 992 l 244 992 l 244 826 l 678 826 l 678 992 l 800 992 l 800 826 l 922 826 l 922 731 l 800 731 l 800 0 l 678 0 l 678 463 l 244 463 l 244 0 l 122 0 m 244 572 l 678 572 l 678 731 l 244 731 l 244 572 z "},"ħ":{"ha":776,"x_min":11,"x_max":672,"o":"m 226 1056 l 226 931 l 472 931 l 472 840 l 226 840 l 226 724 q 224 672 226 699 q 219 622 222 646 l 228 622 q 279 686 247 661 q 351 724 311 711 q 433 738 390 738 q 567 709 514 738 q 646 622 619 681 q 672 471 672 563 l 672 0 l 554 0 l 554 458 q 521 592 554 549 q 414 635 488 635 q 303 605 344 635 q 244 516 263 575 q 226 365 226 457 l 226 0 l 108 0 l 108 840 l 11 840 l 11 931 l 108 931 l 108 1056 l 226 1056 z "},"Ĩ":{"ha":442,"x_min":-14,"x_max":460,"o":"m 389 0 l 53 0 l 53 71 l 160 96 l 160 896 l 53 921 l 53 992 l 389 992 l 389 921 l 282 896 l 282 96 l 389 71 l 389 0 m -14 1089 q 0 1158 -10 1126 q 27 1214 10 1190 q 69 1250 44 1238 q 125 1263 93 1263 q 181 1251 154 1263 q 232 1223 207 1239 q 280 1195 257 1207 q 324 1183 303 1183 q 367 1205 351 1183 q 390 1264 382 1226 l 460 1264 q 417 1137 453 1183 q 322 1090 381 1090 q 268 1102 294 1090 q 216 1130 242 1114 q 168 1158 190 1146 q 124 1169 146 1169 q 81 1149 96 1169 q 57 1089 65 1128 l -14 1089 z "},"ĩ":{"ha":335,"x_min":-69,"x_max":404,"o":"m 226 0 l 108 0 l 108 744 l 226 744 l 226 0 m -69 842 q -56 911 -65 879 q -28 967 -46 943 q 13 1003 -11 990 q 69 1015 38 1015 q 125 1003 99 1015 q 176 976 151 992 q 224 948 201 960 q 268 936 247 936 q 311 958 296 936 q 335 1017 326 979 l 404 1017 q 361 890 397 936 q 267 843 325 843 q 213 855 239 843 q 160 883 186 867 q 113 910 135 899 q 68 922 90 922 q 25 901 40 922 q 1 842 10 881 l -69 842 z "},"Ī":{"ha":442,"x_min":28,"x_max":413,"o":"m 389 0 l 53 0 l 53 71 l 160 96 l 160 896 l 53 921 l 53 992 l 389 992 l 389 921 l 282 896 l 282 96 l 389 71 l 389 0 m 413 1188 l 413 1093 l 28 1093 l 28 1188 l 413 1188 z "},"ī":{"ha":335,"x_min":-26,"x_max":358,"o":"m 226 0 l 108 0 l 108 744 l 226 744 l 226 0 m 358 940 l 358 846 l -26 846 l -26 940 l 358 940 z "},"Ĭ":{"ha":442,"x_min":22,"x_max":419,"o":"m 389 0 l 53 0 l 53 71 l 160 96 l 160 896 l 53 921 l 53 992 l 389 992 l 389 921 l 282 896 l 282 96 l 389 71 l 389 0 m 419 1275 q 392 1178 418 1219 q 323 1113 367 1136 q 218 1089 279 1089 q 76 1138 125 1089 q 22 1275 26 1188 l 97 1275 q 115 1219 100 1239 q 158 1192 131 1200 q 221 1183 185 1183 q 281 1192 254 1183 q 324 1220 307 1200 q 346 1275 342 1240 l 419 1275 z "},"ĭ":{"ha":335,"x_min":-32,"x_max":365,"o":"m 226 0 l 108 0 l 108 744 l 226 744 l 226 0 m 365 1028 q 338 931 364 972 q 269 865 313 889 q 164 842 225 842 q 22 891 71 842 q -32 1028 -28 940 l 43 1028 q 61 972 46 992 q 103 944 76 953 q 167 936 131 936 q 226 944 200 936 q 270 973 253 953 q 292 1028 288 993 l 365 1028 z "},"Į":{"ha":442,"x_min":53,"x_max":389,"o":"m 389 0 l 53 0 l 53 71 l 160 96 l 160 896 l 53 921 l 53 992 l 389 992 l 389 921 l 282 896 l 282 96 l 389 71 l 389 0 m 263 -161 q 279 -210 263 -193 q 325 -226 296 -226 q 360 -223 346 -226 q 383 -218 374 -219 l 383 -296 q 349 -304 367 -301 q 304 -307 331 -307 q 199 -274 233 -307 q 165 -178 165 -240 q 183 -103 165 -139 q 228 -35 200 -67 q 288 19 257 -3 l 353 0 q 284 -83 306 -46 q 263 -161 263 -119 z "},"į":{"ha":335,"x_min":31,"x_max":247,"o":"m 226 744 l 226 0 l 108 0 l 108 744 l 226 744 m 169 1025 q 218 1006 199 1025 q 238 946 238 986 q 218 888 238 907 q 169 868 199 868 q 119 888 139 868 q 99 946 99 907 q 118 1006 99 986 q 169 1025 138 1025 m 128 -161 q 144 -210 128 -193 q 190 -226 161 -226 q 225 -223 211 -226 q 249 -218 239 -219 l 249 -296 q 214 -304 232 -301 q 169 -307 196 -307 q 65 -274 99 -307 q 31 -178 31 -240 q 48 -103 31 -139 q 94 -35 65 -67 q 153 19 122 -3 l 218 0 q 149 -83 171 -46 q 128 -161 128 -119 z "},"İ":{"ha":442,"x_min":53,"x_max":389,"o":"m 389 0 l 53 0 l 53 71 l 160 96 l 160 896 l 53 921 l 53 992 l 389 992 l 389 921 l 282 896 l 282 96 l 389 71 l 389 0 m 224 1272 q 272 1253 253 1272 q 292 1193 292 1233 q 272 1135 292 1154 q 224 1115 253 1115 q 173 1135 193 1115 q 153 1193 153 1154 q 172 1253 153 1233 q 224 1272 192 1272 z "},"Ĳ":{"ha":788,"x_min":53,"x_max":672,"o":"m 389 0 l 53 0 l 53 71 l 160 96 l 160 896 l 53 921 l 53 992 l 389 992 l 389 921 l 282 896 l 282 96 l 389 71 l 389 0 m 438 -265 q 384 -261 408 -265 q 340 -249 360 -257 l 340 -143 q 383 -153 360 -149 q 432 -157 406 -157 q 492 -142 465 -157 q 534 -92 518 -128 q 550 7 550 -56 l 550 992 l 672 992 l 672 10 q 644 -148 672 -87 q 563 -237 615 -208 q 438 -265 510 -265 z "},"ĳ":{"ha":669,"x_min":99,"x_max":572,"o":"m 226 744 l 226 0 l 108 0 l 108 744 l 226 744 m 169 1025 q 218 1006 199 1025 q 238 946 238 986 q 218 888 238 907 q 169 868 199 868 q 119 888 139 868 q 99 946 99 907 q 118 1006 99 986 q 169 1025 138 1025 m 372 -333 q 320 -329 343 -333 q 279 -318 297 -325 l 279 -219 q 316 -228 297 -225 q 356 -232 335 -232 q 419 -206 396 -232 q 443 -115 443 -181 l 443 744 l 561 744 l 561 -112 q 541 -233 561 -183 q 479 -308 521 -282 q 372 -333 438 -333 m 433 946 q 453 1006 433 986 q 504 1025 472 1025 q 553 1006 533 1025 q 572 946 572 986 q 553 888 572 907 q 504 868 533 868 q 453 888 474 868 q 433 946 433 907 z "},"Ĵ":{"ha":354,"x_min":-93,"x_max":393,"o":"m 4 -265 q -49 -261 -25 -265 q -93 -249 -74 -257 l -93 -143 q -51 -153 -74 -149 q -1 -157 -28 -157 q 58 -142 32 -157 q 101 -92 85 -128 q 117 7 117 -56 l 117 992 l 239 992 l 239 10 q 210 -148 239 -87 q 129 -237 182 -208 q 4 -265 76 -265 m 236 1311 q 280 1243 253 1281 q 338 1169 307 1206 q 393 1104 368 1132 l 393 1089 l 315 1089 q 247 1146 282 1113 q 176 1215 211 1179 q 106 1146 140 1179 q 39 1089 71 1113 l -37 1089 l -37 1104 q 18 1170 -11 1133 q 74 1244 47 1207 q 118 1311 101 1281 l 236 1311 z "},"ĵ":{"ha":335,"x_min":-56,"x_max":382,"o":"m 38 -333 q -15 -329 10 -333 q -56 -318 -39 -325 l -56 -219 q -19 -228 -37 -225 q 21 -232 0 -232 q 85 -206 61 -232 q 108 -117 108 -181 l 108 744 l 226 744 l 226 -112 q 206 -232 226 -182 q 144 -308 186 -282 q 38 -333 103 -333 m 225 1064 q 269 996 242 1033 q 326 922 296 958 q 382 857 357 885 l 382 842 l 304 842 q 235 899 271 865 q 165 968 200 932 q 94 899 129 932 q 28 842 60 865 l -49 842 l -49 857 q 7 923 -22 886 q 63 997 36 960 q 107 1064 90 1033 l 225 1064 z "},"Ķ":{"ha":772,"x_min":122,"x_max":774,"o":"m 774 0 l 633 0 l 335 468 l 244 381 l 244 0 l 122 0 l 122 992 l 244 992 l 244 500 q 308 580 274 536 q 381 672 342 624 l 621 992 l 760 992 l 421 557 l 774 0 m 504 -97 q 481 -165 497 -126 q 443 -240 464 -203 q 399 -307 422 -278 l 333 -307 l 333 -290 q 354 -229 343 -267 q 374 -153 365 -192 q 386 -85 383 -114 l 504 -85 l 504 -97 z "},"ķ":{"ha":674,"x_min":108,"x_max":663,"o":"m 225 514 q 223 450 225 486 q 219 383 221 414 l 225 383 q 247 415 233 396 q 274 452 260 433 q 299 485 288 471 l 510 744 l 646 744 l 388 438 l 663 0 l 525 0 l 307 354 l 225 275 l 225 0 l 108 0 l 108 1056 l 225 1056 l 225 514 m 429 -97 q 406 -165 422 -126 q 368 -240 389 -203 q 324 -307 347 -278 l 258 -307 l 258 -290 q 279 -229 268 -267 q 299 -153 290 -192 q 311 -85 308 -114 l 429 -85 l 429 -97 z "},"ĸ":{"ha":674,"x_min":108,"x_max":663,"o":"m 644 744 l 400 431 l 663 0 l 526 0 l 317 347 l 231 267 l 231 0 l 108 0 l 108 744 l 231 744 l 231 544 q 228 447 231 494 q 224 369 226 400 l 226 369 q 251 407 239 389 q 275 440 264 425 l 507 744 l 644 744 z "},"Ĺ":{"ha":650,"x_min":107,"x_max":619,"o":"m 122 0 l 122 992 l 244 992 l 244 110 l 619 110 l 619 0 l 122 0 m 379 1297 q 343 1250 367 1278 q 292 1192 319 1222 q 236 1135 264 1163 q 185 1089 208 1108 l 107 1089 l 107 1106 q 153 1172 129 1136 q 199 1244 178 1207 q 236 1311 221 1281 l 379 1311 l 379 1297 z "},"ĺ":{"ha":333,"x_min":92,"x_max":364,"o":"m 226 0 l 108 0 l 108 1056 l 226 1056 l 226 0 m 364 1361 q 328 1314 351 1342 q 276 1256 304 1286 q 221 1199 249 1226 q 169 1153 193 1172 l 92 1153 l 92 1169 q 138 1235 114 1200 q 184 1308 163 1271 q 221 1375 206 1344 l 364 1375 l 364 1361 z "},"Ļ":{"ha":650,"x_min":122,"x_max":619,"o":"m 122 0 l 122 992 l 244 992 l 244 110 l 619 110 l 619 0 l 122 0 m 460 -97 q 436 -165 453 -126 q 399 -240 419 -203 q 354 -307 378 -278 l 289 -307 l 289 -290 q 310 -229 299 -267 q 330 -153 321 -192 q 342 -85 339 -114 l 460 -85 l 460 -97 z "},"ļ":{"ha":333,"x_min":82,"x_max":253,"o":"m 226 0 l 108 0 l 108 1056 l 226 1056 l 226 0 m 253 -97 q 229 -165 246 -126 q 192 -240 213 -203 q 147 -307 171 -278 l 82 -307 l 82 -290 q 103 -229 92 -267 q 123 -153 114 -192 q 135 -85 132 -114 l 253 -85 l 253 -97 z "},"Ľ":{"ha":650,"x_min":122,"x_max":631,"o":"m 631 979 q 609 914 625 953 q 574 836 593 875 q 535 769 554 797 l 469 769 l 469 786 q 481 828 475 801 q 493 885 488 856 q 503 943 499 915 q 510 992 508 971 l 631 992 l 631 979 m 122 0 l 122 992 l 244 992 l 244 110 l 619 110 l 619 0 l 122 0 z "},"ľ":{"ha":333,"x_min":108,"x_max":444,"o":"m 444 1043 q 424 978 439 1017 q 388 900 408 939 q 350 833 368 861 l 285 833 l 285 850 q 297 892 290 865 q 308 949 303 919 q 319 1007 314 979 q 325 1056 324 1035 l 444 1056 l 444 1043 m 226 0 l 108 0 l 108 1056 l 226 1056 l 226 0 z "},"Ŀ":{"ha":650,"x_min":122,"x_max":619,"o":"m 122 0 l 122 992 l 244 992 l 244 110 l 619 110 l 619 0 l 122 0 m 489 592 q 538 572 518 592 q 557 513 557 553 q 538 454 557 474 q 489 435 518 435 q 438 454 458 435 q 418 513 418 474 q 438 572 418 553 q 489 592 457 592 z "},"ŀ":{"ha":374,"x_min":108,"x_max":422,"o":"m 226 0 l 108 0 l 108 1056 l 226 1056 l 226 0 m 356 617 q 404 597 385 617 q 424 538 424 578 q 404 479 424 499 q 356 460 385 460 q 305 479 325 460 q 285 538 285 499 q 304 597 285 578 q 356 617 324 617 z "},"Ł":{"ha":654,"x_min":8,"x_max":622,"o":"m 125 0 l 125 342 l 60 301 l 8 382 l 125 456 l 125 992 l 247 992 l 247 531 l 424 638 l 475 554 l 247 417 l 247 110 l 622 110 l 622 0 l 125 0 z "},"ł":{"ha":343,"x_min":-18,"x_max":363,"o":"m 106 0 l 106 403 l 33 354 l -18 433 l 106 518 l 106 1056 l 225 1056 l 225 599 l 308 658 l 363 579 l 225 483 l 225 0 l 106 0 z "},"Ń":{"ha":958,"x_min":122,"x_max":836,"o":"m 836 0 l 692 0 l 232 818 l 226 818 q 231 744 229 785 q 235 660 233 703 q 236 574 236 617 l 236 0 l 122 0 l 122 992 l 265 992 l 725 181 l 731 181 q 727 251 729 210 q 724 337 725 292 q 722 419 722 382 l 722 992 l 836 992 l 836 0 m 676 1297 q 640 1250 664 1278 q 589 1192 617 1222 q 533 1135 561 1163 q 482 1089 506 1108 l 404 1089 l 404 1106 q 451 1172 426 1136 q 497 1244 475 1207 q 533 1311 518 1281 l 676 1311 l 676 1297 z "},"ń":{"ha":776,"x_min":108,"x_max":672,"o":"m 435 758 q 613 694 553 758 q 672 492 672 631 l 672 0 l 554 0 l 554 479 q 521 613 554 568 q 414 657 488 657 q 268 590 310 657 q 226 386 226 522 l 226 0 l 108 0 l 108 744 l 203 744 l 219 643 l 226 643 q 281 708 249 682 q 353 746 313 733 q 435 758 393 758 m 589 1050 q 553 1003 576 1031 q 501 945 529 975 q 446 888 474 915 q 394 842 418 861 l 317 842 l 317 858 q 363 924 339 889 q 409 997 388 960 q 446 1064 431 1033 l 589 1064 l 589 1050 z "},"Ņ":{"ha":958,"x_min":122,"x_max":836,"o":"m 836 0 l 692 0 l 232 818 l 226 818 q 231 744 229 785 q 235 660 233 703 q 236 574 236 617 l 236 0 l 122 0 l 122 992 l 265 992 l 725 181 l 731 181 q 727 251 729 210 q 724 337 725 292 q 722 419 722 382 l 722 992 l 836 992 l 836 0 m 564 -97 q 540 -165 557 -126 q 503 -240 524 -203 q 458 -307 482 -278 l 393 -307 l 393 -290 q 414 -229 403 -267 q 434 -153 425 -192 q 446 -85 443 -114 l 564 -85 l 564 -97 z "},"ņ":{"ha":776,"x_min":108,"x_max":672,"o":"m 435 758 q 613 694 553 758 q 672 492 672 631 l 672 0 l 554 0 l 554 479 q 521 613 554 568 q 414 657 488 657 q 268 590 310 657 q 226 386 226 522 l 226 0 l 108 0 l 108 744 l 203 744 l 219 643 l 226 643 q 281 708 249 682 q 353 746 313 733 q 435 758 393 758 m 474 -97 q 450 -165 467 -126 q 413 -240 433 -203 q 368 -307 392 -278 l 303 -307 l 303 -290 q 324 -229 313 -267 q 344 -153 335 -192 q 356 -85 353 -114 l 474 -85 l 474 -97 z "},"Ň":{"ha":958,"x_min":122,"x_max":836,"o":"m 836 0 l 692 0 l 232 818 l 226 818 q 231 744 229 785 q 235 660 233 703 q 236 574 236 617 l 236 0 l 122 0 l 122 992 l 265 992 l 725 181 l 731 181 q 727 251 729 210 q 724 337 725 292 q 722 419 722 382 l 722 992 l 836 992 l 836 0 m 419 1089 q 376 1157 403 1121 q 319 1230 349 1193 q 264 1294 289 1267 l 264 1311 l 340 1311 q 408 1253 372 1288 q 478 1182 444 1219 q 548 1252 514 1221 q 617 1311 582 1283 l 694 1311 l 694 1294 q 640 1231 671 1268 q 582 1158 610 1194 q 538 1089 554 1121 l 419 1089 z "},"ň":{"ha":776,"x_min":108,"x_max":672,"o":"m 435 758 q 613 694 553 758 q 672 492 672 631 l 672 0 l 554 0 l 554 479 q 521 613 554 568 q 414 657 488 657 q 268 590 310 657 q 226 386 226 522 l 226 0 l 108 0 l 108 744 l 203 744 l 219 643 l 226 643 q 281 708 249 682 q 353 746 313 733 q 435 758 393 758 m 332 842 q 288 910 315 874 q 231 983 261 946 q 176 1047 201 1019 l 176 1064 l 253 1064 q 321 1006 285 1040 q 390 935 357 972 q 460 1005 426 974 q 529 1064 494 1036 l 607 1064 l 607 1047 q 553 984 583 1021 q 494 910 522 947 q 450 842 467 874 l 332 842 z "},"ŉ":{"ha":872,"x_min":1,"x_max":768,"o":"m 531 758 q 708 694 649 758 q 768 492 768 631 l 768 0 l 650 0 l 650 479 q 617 613 650 568 q 510 657 583 657 q 364 590 406 657 q 322 386 322 522 l 322 0 l 204 0 l 204 744 l 299 744 l 315 643 l 322 643 q 376 708 344 682 q 449 746 408 733 q 531 758 489 758 m 204 976 q 173 869 192 925 q 133 757 154 813 q 90 651 113 701 l 1 651 q 22 735 11 690 q 40 826 32 781 q 56 913 49 871 q 68 992 64 956 l 194 992 l 204 976 z "},"Ŋ":{"ha":958,"x_min":122,"x_max":836,"o":"m 603 -265 q 547 -261 571 -265 q 503 -249 522 -257 l 503 -143 q 547 -153 524 -149 q 599 -157 571 -157 q 660 -142 632 -157 q 705 -93 688 -128 q 722 0 722 -58 l 231 822 l 226 822 q 231 748 229 792 q 235 657 233 704 q 236 567 236 610 l 236 0 l 122 0 l 122 992 l 265 992 l 725 215 l 731 215 q 726 290 728 249 q 723 377 724 332 q 722 464 722 422 l 722 992 l 836 992 l 836 7 q 808 -145 836 -85 q 728 -235 781 -206 q 603 -265 676 -265 z "},"ŋ":{"ha":776,"x_min":108,"x_max":674,"o":"m 490 -333 q 442 -329 463 -333 q 404 -318 421 -325 l 404 -219 q 438 -228 421 -225 q 475 -232 454 -232 q 533 -206 511 -232 q 554 -115 554 -181 l 554 479 q 520 612 554 568 q 414 656 486 656 q 304 626 346 656 q 244 538 263 597 q 226 388 226 479 l 226 0 l 108 0 l 108 744 l 203 744 l 221 643 l 226 643 q 280 708 249 682 q 351 746 311 733 q 435 758 392 758 q 569 728 517 758 q 648 638 622 699 q 674 486 674 578 l 674 -112 q 653 -231 674 -181 q 594 -307 633 -281 q 490 -333 554 -333 z "},"Ō":{"ha":967,"x_min":79,"x_max":889,"o":"m 889 497 q 864 292 889 385 q 789 129 839 199 q 663 23 739 60 q 485 -14 588 -14 q 303 24 379 -14 q 176 131 226 63 q 103 293 126 199 q 79 499 79 388 q 124 771 79 657 q 258 946 168 885 q 485 1007 349 1007 q 710 942 621 1007 q 844 762 800 876 q 889 497 889 647 m 207 497 q 237 279 207 369 q 328 142 267 189 q 483 94 390 94 q 639 141 578 94 q 730 278 700 188 q 760 497 760 368 q 693 794 760 690 q 485 899 626 899 q 328 851 390 899 q 237 715 267 804 q 207 497 207 625 m 675 1188 l 675 1093 l 290 1093 l 290 1188 l 675 1188 z "},"ō":{"ha":758,"x_min":69,"x_max":690,"o":"m 690 374 q 669 211 690 282 q 608 90 649 140 q 510 13 568 39 q 378 -14 451 -14 q 251 13 308 -14 q 154 89 194 39 q 92 210 114 139 q 69 374 69 282 q 106 583 69 497 q 213 713 143 668 q 381 758 282 758 q 543 714 474 758 q 651 584 613 669 q 690 374 690 499 m 192 374 q 212 219 192 283 q 274 120 232 154 q 381 86 315 86 q 486 120 444 86 q 548 219 528 154 q 568 374 568 283 q 548 528 568 465 q 486 624 528 592 q 379 657 444 657 q 236 583 281 657 q 192 374 192 510 m 571 940 l 571 846 l 186 846 l 186 940 l 571 940 z "},"Ŏ":{"ha":967,"x_min":79,"x_max":889,"o":"m 889 497 q 864 292 889 385 q 789 129 839 199 q 663 23 739 60 q 485 -14 588 -14 q 303 24 379 -14 q 176 131 226 63 q 103 293 126 199 q 79 499 79 388 q 124 771 79 657 q 258 946 168 885 q 485 1007 349 1007 q 710 942 621 1007 q 844 762 800 876 q 889 497 889 647 m 207 497 q 237 279 207 369 q 328 142 267 189 q 483 94 390 94 q 639 141 578 94 q 730 278 700 188 q 760 497 760 368 q 693 794 760 690 q 485 899 626 899 q 328 851 390 899 q 237 715 267 804 q 207 497 207 625 m 682 1275 q 655 1178 681 1219 q 585 1113 629 1136 q 481 1089 542 1089 q 338 1138 388 1089 q 285 1275 289 1188 l 360 1275 q 378 1219 363 1239 q 420 1192 393 1200 q 483 1183 447 1183 q 543 1192 517 1183 q 587 1220 569 1200 q 608 1275 604 1240 l 682 1275 z "},"ŏ":{"ha":758,"x_min":69,"x_max":690,"o":"m 690 374 q 669 211 690 282 q 608 90 649 140 q 510 13 568 39 q 378 -14 451 -14 q 251 13 308 -14 q 154 89 194 39 q 92 210 114 139 q 69 374 69 282 q 106 583 69 497 q 213 713 143 668 q 381 758 282 758 q 543 714 474 758 q 651 584 613 669 q 690 374 690 499 m 192 374 q 212 219 192 283 q 274 120 232 154 q 381 86 315 86 q 486 120 444 86 q 548 219 528 154 q 568 374 568 283 q 548 528 568 465 q 486 624 528 592 q 379 657 444 657 q 236 583 281 657 q 192 374 192 510 m 578 1028 q 551 931 576 972 q 481 865 525 889 q 376 842 438 842 q 234 891 283 842 q 181 1028 185 940 l 256 1028 q 274 972 258 992 q 316 944 289 953 q 379 936 343 936 q 439 944 413 936 q 483 973 465 953 q 504 1028 500 993 l 578 1028 z "},"Ő":{"ha":967,"x_min":79,"x_max":889,"o":"m 889 497 q 864 292 889 385 q 789 129 839 199 q 663 23 739 60 q 485 -14 588 -14 q 303 24 379 -14 q 176 131 226 63 q 103 293 126 199 q 79 499 79 388 q 124 771 79 657 q 258 946 168 885 q 485 1007 349 1007 q 710 942 621 1007 q 844 762 800 876 q 889 497 889 647 m 207 497 q 237 279 207 369 q 328 142 267 189 q 483 94 390 94 q 639 141 578 94 q 730 278 700 188 q 760 497 760 368 q 693 794 760 690 q 485 899 626 899 q 328 851 390 899 q 237 715 267 804 q 207 497 207 625 m 719 1297 q 688 1250 708 1278 q 640 1192 667 1222 q 588 1135 614 1161 q 540 1089 563 1108 l 475 1089 l 475 1106 q 518 1171 496 1133 q 560 1247 540 1208 q 592 1311 581 1285 l 719 1311 l 719 1297 m 492 1297 q 459 1250 479 1278 q 414 1192 439 1222 q 362 1135 389 1163 q 311 1089 335 1108 l 247 1089 l 247 1106 q 289 1171 267 1133 q 331 1246 311 1208 q 364 1311 351 1283 l 492 1311 l 492 1297 z "},"ő":{"ha":758,"x_min":69,"x_max":690,"o":"m 690 374 q 669 211 690 282 q 608 90 649 140 q 510 13 568 39 q 378 -14 451 -14 q 251 13 308 -14 q 154 89 194 39 q 92 210 114 139 q 69 374 69 282 q 106 583 69 497 q 213 713 143 668 q 381 758 282 758 q 543 714 474 758 q 651 584 613 669 q 690 374 690 499 m 192 374 q 212 219 192 283 q 274 120 232 154 q 381 86 315 86 q 486 120 444 86 q 548 219 528 154 q 568 374 568 283 q 548 528 568 465 q 486 624 528 592 q 379 657 444 657 q 236 583 281 657 q 192 374 192 510 m 615 1050 q 583 1003 604 1031 q 536 944 563 975 q 484 888 510 914 q 436 842 458 861 l 371 842 l 371 858 q 414 924 392 886 q 456 999 436 961 q 488 1064 476 1038 l 615 1064 l 615 1050 m 388 1050 q 355 1003 375 1031 q 310 945 335 975 q 258 888 285 915 q 207 842 231 861 l 143 842 l 143 858 q 185 924 163 886 q 227 999 207 961 q 260 1064 247 1036 l 388 1064 l 388 1050 z "},"Œ":{"ha":1146,"x_min":79,"x_max":1069,"o":"m 489 1004 q 549 1001 519 1004 q 604 992 578 997 l 1069 992 l 1069 883 l 715 883 l 715 571 l 1047 571 l 1047 464 l 715 464 l 715 108 l 1069 108 l 1069 0 l 610 0 q 553 -8 583 -4 q 492 -11 524 -11 q 261 51 353 -11 q 124 228 169 114 q 79 499 79 343 q 124 767 79 654 q 260 942 169 881 q 489 1004 351 1004 m 496 896 q 364 868 419 896 q 274 788 308 840 q 224 663 240 736 q 207 497 207 590 q 236 284 207 374 q 330 146 265 194 q 496 96 394 97 q 549 101 524 96 q 594 113 575 106 l 594 879 q 549 892 574 888 q 496 896 525 896 z "},"œ":{"ha":1186,"x_min":69,"x_max":1119,"o":"m 847 757 q 995 715 935 757 q 1088 597 1056 672 q 1119 425 1119 522 l 1119 350 l 676 350 q 731 151 679 215 q 879 86 782 86 q 989 99 940 86 q 1088 138 1038 113 l 1088 35 q 989 -2 1039 10 q 875 -14 939 -14 q 724 23 789 -14 q 619 133 658 60 q 518 23 581 60 q 374 -14 456 -14 q 214 32 282 -14 q 108 165 146 78 q 69 374 69 251 q 106 583 69 497 q 210 713 142 668 q 376 758 279 758 q 517 722 456 758 q 615 613 578 685 q 674 692 640 660 q 751 741 708 725 q 847 757 794 757 m 374 657 q 235 586 278 657 q 192 374 192 515 q 211 215 192 279 q 272 119 231 151 q 375 86 313 86 q 477 118 438 86 q 536 213 517 150 q 556 369 556 276 q 536 530 556 467 q 476 625 517 593 q 374 657 436 657 m 844 660 q 728 606 771 660 q 679 444 686 551 l 999 444 q 983 556 999 507 q 933 632 967 604 q 844 660 899 660 z "},"Ŕ":{"ha":782,"x_min":122,"x_max":763,"o":"m 360 992 q 551 960 476 992 q 661 867 625 929 q 697 711 697 804 q 674 584 697 636 q 609 499 650 532 q 517 444 568 465 l 763 0 l 622 0 l 406 411 l 244 411 l 244 0 l 122 0 l 122 992 l 360 992 m 356 885 l 244 885 l 244 514 l 365 514 q 522 563 471 514 q 572 706 572 611 q 549 808 572 769 q 478 866 526 847 q 356 885 431 885 m 589 1297 q 553 1250 576 1278 q 501 1192 529 1222 q 446 1135 474 1163 q 394 1089 418 1108 l 317 1089 l 317 1106 q 363 1172 339 1136 q 409 1244 388 1207 q 446 1311 431 1281 l 589 1311 l 589 1297 z "},"ŕ":{"ha":518,"x_min":108,"x_max":500,"o":"m 421 758 q 462 756 440 758 q 500 750 483 754 l 485 636 q 449 643 468 640 q 413 646 431 646 q 341 628 375 646 q 281 576 307 610 q 241 496 256 542 q 226 394 226 450 l 226 0 l 108 0 l 108 744 l 203 744 l 218 613 l 224 613 q 274 688 244 654 q 340 740 303 721 q 421 758 378 758 m 497 1050 q 461 1003 485 1031 q 410 945 438 975 q 354 888 382 915 q 303 842 326 861 l 225 842 l 225 858 q 272 924 247 889 q 317 997 296 960 q 354 1064 339 1033 l 497 1064 l 497 1050 z "},"Ŗ":{"ha":782,"x_min":122,"x_max":763,"o":"m 360 992 q 551 960 476 992 q 661 867 625 929 q 697 711 697 804 q 674 584 697 636 q 609 499 650 532 q 517 444 568 465 l 763 0 l 622 0 l 406 411 l 244 411 l 244 0 l 122 0 l 122 992 l 360 992 m 356 885 l 244 885 l 244 514 l 365 514 q 522 563 471 514 q 572 706 572 611 q 549 808 572 769 q 478 866 526 847 q 356 885 431 885 m 497 -97 q 474 -165 490 -126 q 436 -240 457 -203 q 392 -307 415 -278 l 326 -307 l 326 -290 q 347 -229 336 -267 q 367 -153 358 -192 q 379 -85 376 -114 l 497 -85 l 497 -97 z "},"ŗ":{"ha":518,"x_min":82,"x_max":500,"o":"m 421 758 q 462 756 440 758 q 500 750 483 754 l 485 636 q 449 643 468 640 q 413 646 431 646 q 341 628 375 646 q 281 576 307 610 q 241 496 256 542 q 226 394 226 450 l 226 0 l 108 0 l 108 744 l 203 744 l 218 613 l 224 613 q 274 688 244 654 q 340 740 303 721 q 421 758 378 758 m 253 -97 q 229 -165 246 -126 q 192 -240 213 -203 q 147 -307 171 -278 l 82 -307 l 82 -290 q 103 -229 92 -267 q 123 -153 114 -192 q 135 -85 132 -114 l 253 -85 l 253 -97 z "},"Ř":{"ha":782,"x_min":122,"x_max":763,"o":"m 360 992 q 551 960 476 992 q 661 867 625 929 q 697 711 697 804 q 674 584 697 636 q 609 499 650 532 q 517 444 568 465 l 763 0 l 622 0 l 406 411 l 244 411 l 244 0 l 122 0 l 122 992 l 360 992 m 356 885 l 244 885 l 244 514 l 365 514 q 522 563 471 514 q 572 706 572 611 q 549 808 572 769 q 478 866 526 847 q 356 885 431 885 m 332 1089 q 288 1157 315 1121 q 231 1230 261 1193 q 176 1294 201 1267 l 176 1311 l 253 1311 q 321 1253 285 1288 q 390 1182 357 1219 q 460 1252 426 1221 q 529 1311 494 1283 l 607 1311 l 607 1294 q 553 1231 583 1268 q 494 1158 522 1194 q 450 1089 467 1121 l 332 1089 z "},"ř":{"ha":518,"x_min":85,"x_max":517,"o":"m 421 758 q 462 756 440 758 q 500 750 483 754 l 485 636 q 449 643 468 640 q 413 646 431 646 q 341 628 375 646 q 281 576 307 610 q 241 496 256 542 q 226 394 226 450 l 226 0 l 108 0 l 108 744 l 203 744 l 218 613 l 224 613 q 274 688 244 654 q 340 740 303 721 q 421 758 378 758 m 240 842 q 197 910 224 874 q 140 983 169 946 q 85 1047 110 1019 l 85 1064 l 161 1064 q 229 1006 193 1040 q 299 935 265 972 q 369 1005 335 974 q 438 1064 403 1036 l 515 1064 l 515 1047 q 461 984 492 1021 q 403 910 431 947 q 358 842 375 874 l 240 842 z "},"Ś":{"ha":693,"x_min":64,"x_max":632,"o":"m 632 268 q 593 118 632 181 q 482 21 554 56 q 313 -14 410 -14 q 217 -8 263 -14 q 134 7 172 -3 q 64 32 96 17 l 64 151 q 181 111 114 128 q 314 94 247 94 q 422 115 378 94 q 488 173 465 136 q 510 257 510 210 q 492 339 510 306 q 429 400 474 372 q 307 460 385 428 q 206 510 250 483 q 133 570 163 536 q 90 648 104 604 q 75 750 75 692 q 111 885 74 828 q 215 974 149 943 q 368 1006 282 1006 q 503 990 442 1006 q 614 953 565 975 l 576 846 q 475 882 528 868 q 367 896 422 896 q 274 878 313 896 q 217 827 236 860 q 199 751 199 794 q 217 667 199 700 q 277 608 235 635 q 392 551 319 582 q 524 480 471 518 q 605 391 578 442 q 632 268 632 340 m 558 1297 q 522 1250 546 1278 q 471 1192 499 1222 q 415 1135 443 1163 q 364 1089 388 1108 l 286 1089 l 286 1106 q 333 1172 308 1136 q 378 1244 357 1207 q 415 1311 400 1281 l 558 1311 l 558 1297 z "},"ś":{"ha":594,"x_min":61,"x_max":538,"o":"m 538 204 q 506 85 538 133 q 415 11 474 36 q 272 -14 356 -14 q 153 -1 204 -14 q 63 32 101 11 l 63 144 q 158 103 101 121 q 272 86 214 86 q 386 115 350 86 q 422 194 422 144 q 408 246 422 224 q 360 290 394 268 q 265 338 326 311 q 157 395 203 367 q 86 463 111 424 q 61 563 61 503 q 131 706 61 654 q 315 758 201 758 q 428 746 376 758 q 528 710 481 733 l 486 615 q 401 647 446 635 q 310 660 357 660 q 210 635 246 660 q 175 568 175 610 q 191 516 175 538 q 243 474 207 494 q 340 426 279 454 q 446 370 401 399 q 514 302 490 342 q 538 204 538 263 m 500 1050 q 464 1003 488 1031 q 413 945 440 975 q 357 888 385 915 q 306 842 329 861 l 228 842 l 228 858 q 274 924 250 889 q 320 997 299 960 q 357 1064 342 1033 l 500 1064 l 500 1050 z "},"Ŝ":{"ha":693,"x_min":64,"x_max":632,"o":"m 632 268 q 593 118 632 181 q 482 21 554 56 q 313 -14 410 -14 q 217 -8 263 -14 q 134 7 172 -3 q 64 32 96 17 l 64 151 q 181 111 114 128 q 314 94 247 94 q 422 115 378 94 q 488 173 465 136 q 510 257 510 210 q 492 339 510 306 q 429 400 474 372 q 307 460 385 428 q 206 510 250 483 q 133 570 163 536 q 90 648 104 604 q 75 750 75 692 q 111 885 74 828 q 215 974 149 943 q 368 1006 282 1006 q 503 990 442 1006 q 614 953 565 975 l 576 846 q 475 882 528 868 q 367 896 422 896 q 274 878 313 896 q 217 827 236 860 q 199 751 199 794 q 217 667 199 700 q 277 608 235 635 q 392 551 319 582 q 524 480 471 518 q 605 391 578 442 q 632 268 632 340 m 419 1311 q 463 1243 436 1281 q 521 1169 490 1206 q 576 1104 551 1132 l 576 1089 l 499 1089 q 430 1146 465 1113 q 360 1215 394 1179 q 289 1146 324 1179 q 222 1089 254 1113 l 146 1089 l 146 1104 q 201 1170 172 1133 q 258 1244 231 1207 q 301 1311 285 1281 l 419 1311 z "},"ŝ":{"ha":594,"x_min":61,"x_max":538,"o":"m 538 204 q 506 85 538 133 q 415 11 474 36 q 272 -14 356 -14 q 153 -1 204 -14 q 63 32 101 11 l 63 144 q 158 103 101 121 q 272 86 214 86 q 386 115 350 86 q 422 194 422 144 q 408 246 422 224 q 360 290 394 268 q 265 338 326 311 q 157 395 203 367 q 86 463 111 424 q 61 563 61 503 q 131 706 61 654 q 315 758 201 758 q 428 746 376 758 q 528 710 481 733 l 486 615 q 401 647 446 635 q 310 660 357 660 q 210 635 246 660 q 175 568 175 610 q 191 516 175 538 q 243 474 207 494 q 340 426 279 454 q 446 370 401 399 q 514 302 490 342 q 538 204 538 263 m 361 1064 q 405 996 378 1033 q 463 922 432 958 q 518 857 493 885 l 518 842 l 440 842 q 372 899 407 865 q 301 968 336 932 q 231 899 265 932 q 164 842 196 865 l 88 842 l 88 857 q 143 923 114 886 q 199 997 172 960 q 243 1064 226 1033 l 361 1064 z "},"Ş":{"ha":693,"x_min":64,"x_max":632,"o":"m 632 268 q 593 118 632 181 q 482 21 554 56 q 313 -14 410 -14 q 217 -8 263 -14 q 134 7 172 -3 q 64 32 96 17 l 64 151 q 181 111 114 128 q 314 94 247 94 q 422 115 378 94 q 488 173 465 136 q 510 257 510 210 q 492 339 510 306 q 429 400 474 372 q 307 460 385 428 q 206 510 250 483 q 133 570 163 536 q 90 648 104 604 q 75 750 75 692 q 111 885 74 828 q 215 974 149 943 q 368 1006 282 1006 q 503 990 442 1006 q 614 953 565 975 l 576 846 q 475 882 528 868 q 367 896 422 896 q 274 878 313 896 q 217 827 236 860 q 199 751 199 794 q 217 667 199 700 q 277 608 235 635 q 392 551 319 582 q 524 480 471 518 q 605 391 578 442 q 632 268 632 340 m 457 -192 q 408 -297 457 -260 q 267 -333 360 -333 q 225 -331 244 -333 q 194 -326 206 -329 l 194 -250 q 226 -255 207 -253 q 263 -257 244 -257 q 335 -242 310 -257 q 360 -194 360 -226 q 326 -140 360 -158 q 240 -115 293 -122 l 296 0 l 372 0 l 338 -72 q 399 -94 372 -79 q 442 -133 426 -110 q 457 -192 457 -157 z "},"ş":{"ha":594,"x_min":61,"x_max":538,"o":"m 538 204 q 506 85 538 133 q 415 11 474 36 q 272 -14 356 -14 q 153 -1 204 -14 q 63 32 101 11 l 63 144 q 158 103 101 121 q 272 86 214 86 q 386 115 350 86 q 422 194 422 144 q 408 246 422 224 q 360 290 394 268 q 265 338 326 311 q 157 395 203 367 q 86 463 111 424 q 61 563 61 503 q 131 706 61 654 q 315 758 201 758 q 428 746 376 758 q 528 710 481 733 l 486 615 q 401 647 446 635 q 310 660 357 660 q 210 635 246 660 q 175 568 175 610 q 191 516 175 538 q 243 474 207 494 q 340 426 279 454 q 446 370 401 399 q 514 302 490 342 q 538 204 538 263 m 424 -192 q 375 -297 424 -260 q 233 -333 326 -333 q 192 -331 211 -333 q 161 -326 172 -329 l 161 -250 q 192 -255 174 -253 q 229 -257 211 -257 q 301 -242 276 -257 q 326 -194 326 -226 q 293 -140 326 -158 q 207 -115 260 -122 l 263 0 l 339 0 l 304 -72 q 366 -94 339 -79 q 408 -133 393 -110 q 424 -192 424 -157 z "},"Š":{"ha":693,"x_min":64,"x_max":632,"o":"m 632 268 q 593 118 632 181 q 482 21 554 56 q 313 -14 410 -14 q 217 -8 263 -14 q 134 7 172 -3 q 64 32 96 17 l 64 151 q 181 111 114 128 q 314 94 247 94 q 422 115 378 94 q 488 173 465 136 q 510 257 510 210 q 492 339 510 306 q 429 400 474 372 q 307 460 385 428 q 206 510 250 483 q 133 570 163 536 q 90 648 104 604 q 75 750 75 692 q 111 885 74 828 q 215 974 149 943 q 368 1006 282 1006 q 503 990 442 1006 q 614 953 565 975 l 576 846 q 475 882 528 868 q 367 896 422 896 q 274 878 313 896 q 217 827 236 860 q 199 751 199 794 q 217 667 199 700 q 277 608 235 635 q 392 551 319 582 q 524 480 471 518 q 605 391 578 442 q 632 268 632 340 m 301 1089 q 258 1157 285 1121 q 201 1230 231 1193 q 146 1294 171 1267 l 146 1311 l 222 1311 q 290 1253 254 1288 q 360 1182 326 1219 q 430 1252 396 1221 q 499 1311 464 1283 l 576 1311 l 576 1294 q 522 1231 553 1268 q 464 1158 492 1194 q 419 1089 436 1121 l 301 1089 z "},"š":{"ha":594,"x_min":61,"x_max":538,"o":"m 538 204 q 506 85 538 133 q 415 11 474 36 q 272 -14 356 -14 q 153 -1 204 -14 q 63 32 101 11 l 63 144 q 158 103 101 121 q 272 86 214 86 q 386 115 350 86 q 422 194 422 144 q 408 246 422 224 q 360 290 394 268 q 265 338 326 311 q 157 395 203 367 q 86 463 111 424 q 61 563 61 503 q 131 706 61 654 q 315 758 201 758 q 428 746 376 758 q 528 710 481 733 l 486 615 q 401 647 446 635 q 310 660 357 660 q 210 635 246 660 q 175 568 175 610 q 191 516 175 538 q 243 474 207 494 q 340 426 279 454 q 446 370 401 399 q 514 302 490 342 q 538 204 538 263 m 243 842 q 199 910 226 874 q 142 983 172 946 q 88 1047 113 1019 l 88 1064 l 164 1064 q 232 1006 196 1040 q 301 935 268 972 q 372 1005 338 974 q 440 1064 406 1036 l 518 1064 l 518 1047 q 464 984 494 1021 q 406 910 433 947 q 361 842 378 874 l 243 842 z "},"Ț":{"ha":683,"x_min":14,"x_max":668,"o":"m 403 0 l 281 0 l 281 883 l 14 883 l 14 992 l 668 992 l 668 883 l 403 883 l 403 0 m 428 -97 q 404 -165 421 -126 q 367 -240 388 -203 q 322 -307 346 -278 l 257 -307 l 257 -290 q 278 -229 267 -267 q 298 -153 289 -192 q 310 -85 307 -114 l 428 -85 l 428 -97 z "},"ț":{"ha":450,"x_min":22,"x_max":424,"o":"m 332 86 q 381 91 357 86 q 424 101 406 96 l 424 8 q 371 -8 403 -1 q 306 -14 339 -14 q 208 7 251 -14 q 140 76 165 28 q 115 206 115 124 l 115 650 l 22 650 l 22 710 l 118 751 l 160 915 l 233 915 l 233 744 l 415 744 l 415 650 l 233 650 l 233 213 q 259 117 233 149 q 332 86 285 86 m 354 -97 q 331 -165 347 -126 q 293 -240 314 -203 q 249 -307 272 -278 l 183 -307 l 183 -290 q 204 -229 193 -267 q 224 -153 215 -192 q 236 -85 233 -114 l 354 -85 l 354 -97 z "},"Ť":{"ha":683,"x_min":14,"x_max":668,"o":"m 403 0 l 281 0 l 281 883 l 14 883 l 14 992 l 668 992 l 668 883 l 403 883 l 403 0 m 282 1089 q 238 1157 265 1121 q 181 1230 211 1193 q 126 1294 151 1267 l 126 1311 l 203 1311 q 271 1253 235 1288 q 340 1182 307 1219 q 410 1252 376 1221 q 479 1311 444 1283 l 557 1311 l 557 1294 q 503 1231 533 1268 q 444 1158 472 1194 q 400 1089 417 1121 l 282 1089 z "},"ť":{"ha":450,"x_min":22,"x_max":597,"o":"m 597 1043 q 576 978 592 1017 q 542 900 561 939 q 503 833 522 861 l 438 833 l 438 850 q 449 892 443 865 q 461 949 456 919 q 472 1007 467 979 q 478 1056 476 1035 l 597 1056 l 597 1043 m 332 86 q 381 91 357 86 q 424 101 406 96 l 424 8 q 371 -8 403 -1 q 306 -14 339 -14 q 208 7 251 -14 q 140 76 165 28 q 115 206 115 124 l 115 650 l 22 650 l 22 710 l 118 751 l 160 915 l 233 915 l 233 744 l 415 744 l 415 650 l 233 650 l 233 213 q 259 117 233 149 q 332 86 285 86 z "},"Ŧ":{"ha":683,"x_min":14,"x_max":668,"o":"m 279 0 l 279 451 l 97 451 l 97 551 l 279 551 l 279 882 l 14 882 l 14 992 l 668 992 l 668 882 l 401 882 l 401 551 l 583 551 l 583 451 l 401 451 l 401 0 l 279 0 z "},"ŧ":{"ha":450,"x_min":22,"x_max":424,"o":"m 31 385 l 31 475 l 406 475 l 406 385 l 31 385 m 332 86 q 381 91 357 86 q 424 101 406 96 l 424 8 q 371 -8 403 -1 q 306 -14 339 -14 q 208 7 251 -14 q 140 76 165 28 q 115 206 115 124 l 115 650 l 22 650 l 22 710 l 118 751 l 160 915 l 233 915 l 233 744 l 415 744 l 415 650 l 233 650 l 233 213 q 259 117 233 149 q 332 86 285 86 z "},"Ũ":{"ha":908,"x_min":114,"x_max":794,"o":"m 794 336 q 757 151 794 229 q 644 29 719 72 q 451 -14 568 -14 q 200 79 286 -14 q 114 338 114 172 l 114 992 l 235 992 l 235 333 q 291 155 235 215 q 457 94 347 94 q 580 123 532 94 q 651 206 628 151 q 674 335 674 260 l 674 992 l 794 992 l 794 336 m 219 1089 q 233 1158 224 1126 q 260 1214 243 1190 q 302 1250 278 1238 q 358 1263 326 1263 q 414 1251 388 1263 q 465 1223 440 1239 q 513 1195 490 1207 q 557 1183 536 1183 q 600 1205 585 1183 q 624 1264 615 1226 l 693 1264 q 650 1137 686 1183 q 556 1090 614 1090 q 501 1102 528 1090 q 449 1130 475 1114 q 401 1158 424 1146 q 357 1169 379 1169 q 314 1149 329 1169 q 290 1089 299 1128 l 219 1089 z "},"ũ":{"ha":776,"x_min":101,"x_max":668,"o":"m 668 744 l 668 0 l 572 0 l 556 99 l 549 99 q 495 36 528 61 q 424 -1 463 11 q 340 -14 385 -14 q 207 17 260 -14 q 128 108 154 47 q 101 258 101 168 l 101 744 l 221 744 l 221 271 q 255 133 221 178 q 360 88 289 88 q 472 118 431 88 q 532 208 514 149 q 550 354 550 267 l 550 744 l 668 744 m 153 842 q 167 911 157 879 q 194 967 176 943 q 235 1003 211 990 q 292 1015 260 1015 q 347 1003 321 1015 q 399 976 374 992 q 447 948 424 960 q 490 936 469 936 q 533 958 518 936 q 557 1017 549 979 l 626 1017 q 583 890 619 936 q 489 843 547 843 q 435 855 461 843 q 383 883 408 867 q 335 910 357 899 q 290 922 313 922 q 247 901 263 922 q 224 842 232 881 l 153 842 z "},"Ū":{"ha":908,"x_min":114,"x_max":794,"o":"m 794 336 q 757 151 794 229 q 644 29 719 72 q 451 -14 568 -14 q 200 79 286 -14 q 114 338 114 172 l 114 992 l 235 992 l 235 333 q 291 155 235 215 q 457 94 347 94 q 580 123 532 94 q 651 206 628 151 q 674 335 674 260 l 674 992 l 794 992 l 794 336 m 646 1188 l 646 1093 l 261 1093 l 261 1188 l 646 1188 z "},"ū":{"ha":776,"x_min":101,"x_max":668,"o":"m 668 744 l 668 0 l 572 0 l 556 99 l 549 99 q 495 36 528 61 q 424 -1 463 11 q 340 -14 385 -14 q 207 17 260 -14 q 128 108 154 47 q 101 258 101 168 l 101 744 l 221 744 l 221 271 q 255 133 221 178 q 360 88 289 88 q 472 118 431 88 q 532 208 514 149 q 550 354 550 267 l 550 744 l 668 744 m 581 940 l 581 846 l 196 846 l 196 940 l 581 940 z "},"Ŭ":{"ha":908,"x_min":114,"x_max":794,"o":"m 794 336 q 757 151 794 229 q 644 29 719 72 q 451 -14 568 -14 q 200 79 286 -14 q 114 338 114 172 l 114 992 l 235 992 l 235 333 q 291 155 235 215 q 457 94 347 94 q 580 123 532 94 q 651 206 628 151 q 674 335 674 260 l 674 992 l 794 992 l 794 336 m 653 1275 q 626 1178 651 1219 q 556 1113 600 1136 q 451 1089 513 1089 q 309 1138 358 1089 q 256 1275 260 1188 l 331 1275 q 349 1219 333 1239 q 391 1192 364 1200 q 454 1183 418 1183 q 514 1192 488 1183 q 558 1220 540 1200 q 579 1275 575 1240 l 653 1275 z "},"ŭ":{"ha":776,"x_min":101,"x_max":668,"o":"m 668 744 l 668 0 l 572 0 l 556 99 l 549 99 q 495 36 528 61 q 424 -1 463 11 q 340 -14 385 -14 q 207 17 260 -14 q 128 108 154 47 q 101 258 101 168 l 101 744 l 221 744 l 221 271 q 255 133 221 178 q 360 88 289 88 q 472 118 431 88 q 532 208 514 149 q 550 354 550 267 l 550 744 l 668 744 m 586 1028 q 559 931 585 972 q 490 865 533 889 q 385 842 446 842 q 242 891 292 842 q 189 1028 193 940 l 264 1028 q 282 972 267 992 q 324 944 297 953 q 388 936 351 936 q 447 944 421 936 q 491 973 474 953 q 513 1028 508 993 l 586 1028 z "},"Ů":{"ha":908,"x_min":114,"x_max":794,"o":"m 794 336 q 757 151 794 229 q 644 29 719 72 q 451 -14 568 -14 q 200 79 286 -14 q 114 338 114 172 l 114 992 l 235 992 l 235 333 q 291 155 235 215 q 457 94 347 94 q 580 123 532 94 q 651 206 628 151 q 674 335 674 260 l 674 992 l 794 992 l 794 336 m 454 1090 q 345 1129 386 1090 q 304 1235 304 1168 q 345 1340 304 1301 q 454 1378 386 1378 q 561 1340 518 1378 q 604 1236 604 1303 q 563 1129 604 1168 q 454 1090 521 1090 m 454 1160 q 509 1180 488 1160 q 531 1235 531 1200 q 510 1290 531 1269 q 454 1311 489 1311 q 399 1290 421 1311 q 378 1235 378 1269 q 397 1180 378 1200 q 454 1160 417 1160 z "},"ů":{"ha":776,"x_min":101,"x_max":668,"o":"m 668 744 l 668 0 l 572 0 l 556 99 l 549 99 q 495 36 528 61 q 424 -1 463 11 q 340 -14 385 -14 q 207 17 260 -14 q 128 108 154 47 q 101 258 101 168 l 101 744 l 221 744 l 221 271 q 255 133 221 178 q 360 88 289 88 q 472 118 431 88 q 532 208 514 149 q 550 354 550 267 l 550 744 l 668 744 m 389 843 q 280 882 321 843 q 239 988 239 921 q 280 1092 239 1054 q 389 1131 321 1131 q 496 1093 453 1131 q 539 989 539 1056 q 497 882 539 921 q 389 843 456 843 m 389 913 q 444 933 422 913 q 465 988 465 953 q 444 1043 465 1022 q 389 1064 424 1064 q 334 1043 356 1064 q 313 988 313 1022 q 332 933 313 953 q 389 913 351 913 z "},"Ű":{"ha":908,"x_min":114,"x_max":794,"o":"m 794 336 q 757 151 794 229 q 644 29 719 72 q 451 -14 568 -14 q 200 79 286 -14 q 114 338 114 172 l 114 992 l 235 992 l 235 333 q 291 155 235 215 q 457 94 347 94 q 580 123 532 94 q 651 206 628 151 q 674 335 674 260 l 674 992 l 794 992 l 794 336 m 690 1297 q 658 1250 679 1278 q 611 1192 638 1222 q 559 1135 585 1161 q 511 1089 533 1108 l 446 1089 l 446 1106 q 489 1171 467 1133 q 531 1247 511 1208 q 563 1311 551 1285 l 690 1311 l 690 1297 m 463 1297 q 430 1250 450 1278 q 385 1192 410 1222 q 333 1135 360 1163 q 282 1089 306 1108 l 218 1089 l 218 1106 q 260 1171 238 1133 q 302 1246 282 1208 q 335 1311 322 1283 l 463 1311 l 463 1297 z "},"ű":{"ha":776,"x_min":101,"x_max":668,"o":"m 668 744 l 668 0 l 572 0 l 556 99 l 549 99 q 495 36 528 61 q 424 -1 463 11 q 340 -14 385 -14 q 207 17 260 -14 q 128 108 154 47 q 101 258 101 168 l 101 744 l 221 744 l 221 271 q 255 133 221 178 q 360 88 289 88 q 472 118 431 88 q 532 208 514 149 q 550 354 550 267 l 550 744 l 668 744 m 624 1050 q 592 1003 613 1031 q 544 944 571 975 q 492 888 518 914 q 444 842 467 861 l 379 842 l 379 858 q 422 924 400 886 q 465 999 444 961 q 496 1064 485 1038 l 624 1064 l 624 1050 m 396 1050 q 363 1003 383 1031 q 318 945 343 975 q 266 888 293 915 q 215 842 239 861 l 151 842 l 151 858 q 193 924 171 886 q 235 999 215 961 q 268 1064 256 1036 l 396 1064 l 396 1050 z "},"Ų":{"ha":908,"x_min":114,"x_max":794,"o":"m 564 -154 q 581 -208 564 -192 q 626 -225 597 -225 q 660 -222 646 -225 q 686 -217 675 -219 l 686 -296 q 649 -304 668 -301 q 606 -307 631 -307 q 501 -272 535 -307 q 467 -169 467 -237 q 486 -90 467 -129 q 534 -19 506 -51 q 590 35 563 14 l 690 65 q 617 -23 644 15 q 576 -92 589 -61 q 564 -154 564 -122 m 794 336 q 757 151 794 229 q 644 29 719 72 q 451 -14 568 -14 q 200 79 286 -14 q 114 338 114 172 l 114 992 l 235 992 l 235 333 q 291 155 235 215 q 457 94 347 94 q 580 123 532 94 q 651 206 628 151 q 674 335 674 260 l 674 992 l 794 992 l 794 336 z "},"ų":{"ha":776,"x_min":101,"x_max":679,"o":"m 668 744 l 668 0 l 572 0 l 556 99 l 549 99 q 495 36 528 61 q 424 -1 463 11 q 340 -14 385 -14 q 207 17 260 -14 q 128 108 154 47 q 101 258 101 168 l 101 744 l 221 744 l 221 271 q 255 133 221 178 q 360 88 289 88 q 472 118 431 88 q 532 208 514 149 q 550 354 550 267 l 550 744 l 668 744 m 558 -161 q 575 -210 558 -193 q 621 -226 592 -226 q 656 -223 642 -226 q 679 -218 669 -219 l 679 -296 q 644 -304 663 -301 q 600 -307 626 -307 q 495 -274 529 -307 q 461 -178 461 -240 q 478 -103 461 -139 q 524 -35 496 -67 q 583 19 553 -3 l 649 0 q 580 -83 601 -46 q 558 -161 558 -119 z "},"Ŵ":{"ha":1185,"x_min":13,"x_max":1171,"o":"m 1171 992 l 929 0 l 799 0 l 631 643 q 618 693 625 667 q 606 746 611 719 q 596 796 600 772 q 589 839 592 819 q 584 803 588 825 q 575 754 581 781 q 563 699 569 728 q 549 642 557 671 l 385 0 l 254 0 l 13 992 l 139 992 l 281 385 q 294 319 288 351 q 307 256 301 286 q 317 197 313 225 q 324 144 321 169 q 333 203 328 174 q 344 265 338 233 q 358 327 351 296 q 372 389 365 358 l 529 992 l 650 992 l 810 386 q 825 325 818 357 q 838 263 832 293 q 849 202 844 232 q 858 144 854 172 q 870 223 864 183 q 885 304 876 263 q 904 386 894 346 l 1046 992 l 1171 992 m 650 1311 q 694 1243 667 1281 q 751 1169 721 1206 q 807 1104 782 1132 l 807 1089 l 729 1089 q 660 1146 696 1113 q 590 1215 625 1179 q 519 1146 554 1179 q 453 1089 485 1113 l 376 1089 l 376 1104 q 432 1170 403 1133 q 488 1244 461 1207 q 532 1311 515 1281 l 650 1311 z "},"ŵ":{"ha":1000,"x_min":14,"x_max":985,"o":"m 543 432 q 530 483 536 457 q 519 533 524 508 q 509 578 514 557 q 501 617 504 600 l 497 617 q 490 578 494 600 q 480 532 485 557 q 469 482 475 507 q 456 431 464 457 l 338 1 l 203 1 l 14 746 l 136 746 l 228 358 q 247 278 238 318 q 263 199 256 238 q 274 131 269 161 l 278 131 q 287 176 282 150 q 297 230 292 201 q 310 287 303 258 q 324 342 317 315 l 436 746 l 567 746 l 675 342 q 692 276 683 311 q 709 203 701 240 q 721 131 717 165 l 725 131 q 734 184 728 153 q 749 253 740 215 q 765 329 757 290 l 865 746 l 985 746 l 794 1 l 656 1 l 543 432 m 558 1064 q 602 996 575 1033 q 660 922 629 958 q 715 857 690 885 l 715 842 l 638 842 q 569 899 604 865 q 499 968 533 932 q 428 899 463 932 q 361 842 393 865 l 285 842 l 285 857 q 340 923 311 886 q 397 997 369 960 q 440 1064 424 1033 l 558 1064 z "},"Ŷ":{"ha":697,"x_min":0,"x_max":697,"o":"m 349 511 l 568 992 l 697 992 l 410 385 l 410 0 l 288 0 l 288 381 l 0 992 l 131 992 l 349 511 m 407 1311 q 451 1243 424 1281 q 508 1169 478 1206 q 564 1104 539 1132 l 564 1089 l 486 1089 q 417 1146 453 1113 q 347 1215 382 1179 q 276 1146 311 1179 q 210 1089 242 1113 l 133 1089 l 133 1104 q 189 1170 160 1133 q 245 1244 218 1207 q 289 1311 272 1281 l 407 1311 z "},"ŷ":{"ha":638,"x_min":3,"x_max":635,"o":"m 3 744 l 128 744 l 268 322 q 288 256 278 289 q 306 192 297 224 q 319 132 314 161 l 325 132 q 347 219 332 168 q 378 322 361 269 l 510 744 l 635 744 l 351 -107 q 294 -229 326 -178 q 217 -307 263 -281 q 107 -333 171 -333 q 57 -330 79 -333 q 17 -322 35 -326 l 17 -224 q 51 -231 32 -228 q 89 -233 69 -233 q 153 -218 126 -233 q 198 -172 179 -203 q 232 -97 217 -142 l 265 0 l 3 744 m 376 1064 q 420 996 393 1033 q 478 922 447 958 q 533 857 508 885 l 533 842 l 456 842 q 387 899 422 865 q 317 968 351 932 q 246 899 281 932 q 179 842 211 865 l 103 842 l 103 857 q 158 923 129 886 q 215 997 188 960 q 258 1064 242 1033 l 376 1064 z "},"Ÿ":{"ha":697,"x_min":0,"x_max":697,"o":"m 349 511 l 568 992 l 697 992 l 410 385 l 410 0 l 288 0 l 288 381 l 0 992 l 131 992 l 349 511 m 163 1186 q 181 1239 163 1222 q 225 1256 200 1256 q 269 1239 251 1256 q 288 1186 288 1222 q 269 1134 288 1151 q 225 1117 251 1117 q 181 1134 200 1117 q 163 1186 163 1151 m 410 1186 q 428 1239 410 1222 q 472 1256 447 1256 q 517 1239 499 1256 q 536 1186 536 1222 q 517 1134 536 1151 q 472 1117 499 1117 q 428 1134 446 1117 q 410 1186 410 1151 z "},"Ź":{"ha":688,"x_min":47,"x_max":643,"o":"m 643 0 l 47 0 l 47 93 l 489 882 l 60 882 l 60 992 l 631 992 l 631 899 l 188 110 l 643 110 l 643 0 m 544 1297 q 508 1250 532 1278 q 457 1192 485 1222 q 401 1135 429 1163 q 350 1089 374 1108 l 272 1089 l 272 1106 q 319 1172 294 1136 q 365 1244 343 1207 q 401 1311 386 1281 l 544 1311 l 544 1297 z "},"ź":{"ha":568,"x_min":47,"x_max":522,"o":"m 522 0 l 47 0 l 47 79 l 382 650 l 67 650 l 67 744 l 513 744 l 513 657 l 182 94 l 522 94 l 522 0 m 485 1050 q 449 1003 472 1031 q 397 945 425 975 q 342 888 369 915 q 290 842 314 861 l 213 842 l 213 858 q 259 924 235 889 q 305 997 283 960 q 342 1064 326 1033 l 485 1064 l 485 1050 z "},"Ż":{"ha":688,"x_min":47,"x_max":643,"o":"m 643 0 l 47 0 l 47 93 l 489 882 l 60 882 l 60 992 l 631 992 l 631 899 l 188 110 l 643 110 l 643 0 m 350 1272 q 399 1253 379 1272 q 418 1193 418 1233 q 399 1135 418 1154 q 350 1115 379 1115 q 299 1135 319 1115 q 279 1193 279 1154 q 299 1253 279 1233 q 350 1272 318 1272 z "},"ż":{"ha":568,"x_min":47,"x_max":522,"o":"m 522 0 l 47 0 l 47 79 l 382 650 l 67 650 l 67 744 l 513 744 l 513 657 l 182 94 l 522 94 l 522 0 m 289 1025 q 338 1006 318 1025 q 357 946 357 986 q 338 888 357 907 q 289 868 318 868 q 238 888 258 868 q 218 946 218 907 q 238 1006 218 986 q 289 1025 257 1025 z "},"Ž":{"ha":688,"x_min":47,"x_max":643,"o":"m 643 0 l 47 0 l 47 93 l 489 882 l 60 882 l 60 992 l 631 992 l 631 899 l 188 110 l 643 110 l 643 0 m 288 1089 q 244 1157 271 1121 q 187 1230 217 1193 q 132 1294 157 1267 l 132 1311 l 208 1311 q 276 1253 240 1288 q 346 1182 313 1219 q 416 1252 382 1221 q 485 1311 450 1283 l 563 1311 l 563 1294 q 508 1231 539 1268 q 450 1158 478 1194 q 406 1089 422 1121 l 288 1089 z "},"ž":{"ha":568,"x_min":47,"x_max":522,"o":"m 522 0 l 47 0 l 47 79 l 382 650 l 67 650 l 67 744 l 513 744 l 513 657 l 182 94 l 522 94 l 522 0 m 228 842 q 184 910 211 874 q 127 983 157 946 q 72 1047 97 1019 l 72 1064 l 149 1064 q 217 1006 181 1040 q 286 935 253 972 q 356 1005 322 974 q 425 1064 390 1036 l 503 1064 l 503 1047 q 449 984 479 1021 q 390 910 418 947 q 346 842 363 874 l 228 842 z "},"ſ":{"ha":403,"x_min":111,"x_max":457,"o":"m 333 963 q 255 926 281 963 q 229 800 229 889 l 229 0 l 111 0 l 111 799 q 135 949 111 890 q 209 1035 160 1007 q 328 1063 258 1063 q 398 1056 367 1063 q 457 1038 429 1049 l 426 944 q 381 957 406 951 q 333 963 356 963 z "},"ƒ":{"ha":542,"x_min":-12,"x_max":590,"o":"m 179 -336 q 39 -287 90 -336 q -12 -157 -12 -239 q -11 -125 -12 -140 q -6 -96 -10 -110 l 96 -118 q 93 -132 94 -124 q 92 -151 92 -140 q 113 -215 92 -193 q 167 -236 135 -236 q 223 -210 203 -236 q 243 -125 243 -183 l 243 650 l 128 650 l 128 708 l 243 749 l 243 792 q 267 944 243 885 q 338 1033 290 1004 q 458 1063 386 1063 q 531 1056 499 1063 q 590 1039 564 1049 l 560 944 q 515 957 539 951 q 465 963 490 963 q 387 924 411 963 q 363 794 363 885 l 363 744 l 524 744 l 524 650 l 363 650 l 363 -119 q 341 -236 363 -187 q 279 -310 319 -285 q 179 -336 239 -336 z "},"Ǻ":{"ha":792,"x_min":0,"x_max":792,"o":"m 311 856 q 263 901 281 871 q 244 972 244 931 q 285 1078 244 1040 q 393 1117 326 1117 q 502 1079 458 1117 q 546 975 546 1042 q 528 902 546 932 q 479 856 510 872 l 792 0 l 664 0 l 568 264 l 219 264 l 128 0 l 0 0 l 311 856 m 254 374 l 538 374 l 435 671 q 420 715 428 690 q 406 763 413 739 q 394 808 400 788 q 385 776 390 793 q 376 741 381 758 q 366 708 371 724 q 358 681 361 693 l 254 374 m 394 897 q 449 917 428 897 q 469 974 469 938 q 449 1028 469 1008 q 394 1049 429 1049 q 339 1028 361 1049 q 317 974 317 1008 q 337 917 317 938 q 394 897 357 897 m 326 1165 q 375 1226 353 1196 q 415 1282 397 1256 q 444 1331 433 1308 l 589 1331 l 589 1321 q 557 1282 578 1304 q 510 1236 536 1260 q 458 1190 485 1213 q 407 1151 431 1168 l 326 1151 l 326 1165 z "},"ǻ":{"ha":706,"x_min":58,"x_max":601,"o":"m 363 758 q 544 696 486 758 q 601 506 601 633 l 601 0 l 514 0 l 493 104 l 489 104 q 431 38 461 65 q 360 -1 400 11 q 268 -14 321 -14 q 157 13 204 -14 q 84 89 110 39 q 58 207 58 139 q 137 379 58 318 q 374 446 215 440 l 485 450 l 485 496 q 451 624 485 586 q 351 661 417 661 q 256 646 303 661 q 167 608 210 631 l 129 697 q 237 742 176 725 q 363 758 297 758 m 390 361 q 228 318 275 357 q 181 207 181 279 q 213 113 181 143 q 300 82 246 82 q 433 136 381 82 q 485 296 485 190 l 485 365 l 390 361 m 360 1054 q 306 1033 328 1054 q 283 978 283 1013 q 303 923 283 943 q 360 903 322 903 q 415 923 394 903 q 436 978 436 943 q 415 1033 436 1013 q 360 1054 394 1054 m 360 1121 q 438 1104 404 1121 q 492 1056 472 1088 q 513 979 513 1025 q 469 872 513 911 q 360 833 426 833 q 251 872 292 833 q 211 978 211 911 q 252 1083 211 1044 q 360 1121 293 1121 m 572 1321 q 520 1272 557 1301 q 442 1213 483 1242 q 372 1168 401 1185 l 288 1168 l 288 1179 q 333 1232 311 1207 q 373 1283 354 1257 q 406 1331 392 1308 l 572 1331 l 572 1321 z "},"Ǽ":{"ha":1089,"x_min":-1,"x_max":1013,"o":"m 1013 0 l 540 0 l 540 308 l 253 308 l 126 0 l -1 0 l 406 992 l 1013 992 l 1013 883 l 663 883 l 663 571 l 989 571 l 989 464 l 663 464 l 663 108 l 1013 108 l 1013 0 m 294 418 l 542 418 l 542 882 l 482 882 l 294 418 m 793 1297 q 757 1250 781 1278 q 706 1192 733 1222 q 650 1135 678 1163 q 599 1089 622 1108 l 521 1089 l 521 1106 q 567 1172 543 1136 q 613 1244 592 1207 q 650 1311 635 1281 l 793 1311 l 793 1297 z "},"ǽ":{"ha":1090,"x_min":58,"x_max":1024,"o":"m 757 758 q 901 716 842 758 q 992 599 961 674 q 1024 426 1024 524 l 1024 350 l 593 350 q 645 151 596 217 q 788 86 694 86 q 896 99 847 86 q 993 138 944 113 l 993 35 q 894 -2 943 10 q 782 -14 844 -14 q 674 3 724 -14 q 587 56 625 21 q 524 140 549 90 q 459 57 494 92 q 378 4 424 22 q 271 -14 333 -14 q 159 13 207 -14 q 85 89 111 39 q 58 207 58 139 q 92 333 58 282 q 194 414 125 385 q 363 446 263 443 l 472 450 l 472 497 q 437 623 472 585 q 338 661 401 661 q 245 647 292 661 q 154 608 199 632 l 117 697 q 223 741 163 724 q 347 758 283 758 q 474 731 424 758 q 550 644 524 704 q 636 729 583 700 q 757 758 689 758 m 381 361 q 226 319 271 357 q 181 207 181 281 q 211 113 181 143 q 294 82 242 82 q 386 106 346 82 q 449 178 426 131 q 472 296 472 225 l 472 365 l 381 361 m 756 661 q 643 606 685 661 q 594 444 601 551 l 904 444 q 888 557 904 508 q 840 633 872 606 q 756 661 807 661 m 751 1050 q 715 1003 739 1031 q 664 945 692 975 q 608 888 636 915 q 557 842 581 861 l 479 842 l 479 858 q 526 924 501 889 q 572 997 550 960 q 608 1064 593 1033 l 751 1064 l 751 1050 z "},"Ǿ":{"ha":967,"x_min":79,"x_max":889,"o":"m 889 497 q 863 285 889 379 q 785 124 836 190 q 659 22 735 57 q 485 -14 583 -14 q 360 3 417 -14 q 258 51 303 19 l 194 -51 l 115 -4 l 188 115 q 106 280 132 183 q 79 499 79 376 q 124 771 79 657 q 258 946 168 885 q 485 1007 349 1007 q 606 990 550 1007 q 708 940 663 972 l 769 1040 l 849 992 l 778 875 q 860 714 832 810 q 889 497 889 618 m 761 497 q 707 761 761 663 l 318 150 q 392 108 350 122 q 483 93 433 93 q 640 140 579 93 q 731 278 701 188 q 761 497 761 368 m 207 497 q 220 347 207 414 q 260 231 233 279 l 647 840 q 576 884 617 869 q 485 899 536 899 q 328 851 390 899 q 237 715 267 804 q 207 497 207 625 m 683 1297 q 647 1250 671 1278 q 596 1192 624 1222 q 540 1135 568 1163 q 489 1089 513 1108 l 411 1089 l 411 1106 q 458 1172 433 1136 q 503 1244 482 1207 q 540 1311 525 1281 l 683 1311 l 683 1297 z "},"ǿ":{"ha":758,"x_min":69,"x_max":689,"o":"m 689 374 q 651 163 689 250 q 544 31 614 76 q 376 -14 475 -14 q 291 -3 331 -14 q 218 31 251 8 l 163 -62 l 86 -17 l 151 90 q 90 213 111 142 q 69 374 69 283 q 152 659 69 560 q 381 758 235 758 q 468 746 428 758 q 543 710 508 733 l 596 796 l 674 750 l 611 649 q 668 529 647 599 q 689 374 689 460 m 190 374 q 197 275 190 319 q 219 197 204 231 l 489 621 q 440 649 468 639 q 379 658 411 658 q 235 585 281 658 q 190 374 190 511 m 569 374 q 563 467 569 425 q 543 540 556 508 l 274 119 q 322 94 294 103 q 379 85 349 85 q 487 119 444 85 q 549 217 529 153 q 569 374 569 282 m 578 1050 q 542 1003 565 1031 q 490 945 518 975 q 435 888 463 915 q 383 842 407 861 l 306 842 l 306 858 q 352 924 328 889 q 398 997 376 960 q 435 1064 419 1033 l 578 1064 l 578 1050 z "},"Ș":{"ha":693,"x_min":64,"x_max":632,"o":"m 632 268 q 593 118 632 181 q 482 21 554 56 q 313 -14 410 -14 q 217 -8 263 -14 q 134 7 172 -3 q 64 32 96 17 l 64 151 q 181 111 114 128 q 314 94 247 94 q 422 115 378 94 q 488 173 465 136 q 510 257 510 210 q 492 339 510 306 q 429 400 474 372 q 307 460 385 428 q 206 510 250 483 q 133 570 163 536 q 90 648 104 604 q 75 750 75 692 q 111 885 74 828 q 215 974 149 943 q 368 1006 282 1006 q 503 990 442 1006 q 614 953 565 975 l 576 846 q 475 882 528 868 q 367 896 422 896 q 274 878 313 896 q 217 827 236 860 q 199 751 199 794 q 217 667 199 700 q 277 608 235 635 q 392 551 319 582 q 524 480 471 518 q 605 391 578 442 q 632 268 632 340 m 411 -97 q 388 -165 404 -126 q 350 -240 371 -203 q 306 -307 329 -278 l 240 -307 l 240 -290 q 261 -229 250 -267 q 281 -153 272 -192 q 293 -85 290 -114 l 411 -85 l 411 -97 z "},"ș":{"ha":594,"x_min":61,"x_max":538,"o":"m 538 204 q 506 85 538 133 q 415 11 474 36 q 272 -14 356 -14 q 153 -1 204 -14 q 63 32 101 11 l 63 144 q 158 103 101 121 q 272 86 214 86 q 386 115 350 86 q 422 194 422 144 q 408 246 422 224 q 360 290 394 268 q 265 338 326 311 q 157 395 203 367 q 86 463 111 424 q 61 563 61 503 q 131 706 61 654 q 315 758 201 758 q 428 746 376 758 q 528 710 481 733 l 486 615 q 401 647 446 635 q 310 660 357 660 q 210 635 246 660 q 175 568 175 610 q 191 516 175 538 q 243 474 207 494 q 340 426 279 454 q 446 370 401 399 q 514 302 490 342 q 538 204 538 263 m 376 -97 q 353 -165 369 -126 q 315 -240 336 -203 q 271 -307 294 -278 l 206 -307 l 206 -290 q 226 -229 215 -267 q 247 -153 238 -192 q 258 -85 256 -114 l 376 -85 l 376 -97 z "},"ˆ":{"ha":542,"x_min":56,"x_max":486,"o":"m 329 1064 q 373 996 346 1033 q 431 922 400 958 q 486 857 461 885 l 486 842 l 408 842 q 340 899 375 865 q 269 968 304 932 q 199 899 233 932 q 132 842 164 865 l 56 842 l 56 857 q 111 923 82 886 q 167 997 140 960 q 211 1064 194 1033 l 329 1064 z "},"ˇ":{"ha":542,"x_min":56,"x_max":486,"o":"m 211 842 q 167 910 194 874 q 110 983 140 946 q 56 1047 81 1019 l 56 1064 l 132 1064 q 200 1006 164 1040 q 269 935 236 972 q 340 1005 306 974 q 408 1064 374 1036 l 486 1064 l 486 1047 q 432 984 463 1021 q 374 910 401 947 q 329 842 346 874 l 211 842 z "},"ˉ":{"ha":496,"x_min":56,"x_max":440,"o":"m 440 940 l 440 846 l 56 846 l 56 940 l 440 940 z "},"˘":{"ha":508,"x_min":56,"x_max":453,"o":"m 453 1028 q 426 931 451 972 q 356 865 400 889 q 251 842 313 842 q 109 891 158 842 q 56 1028 60 940 l 131 1028 q 149 972 133 992 q 191 944 164 953 q 254 936 218 936 q 314 944 288 936 q 358 973 340 953 q 379 1028 375 993 l 453 1028 z "},"˙":{"ha":250,"x_min":56,"x_max":194,"o":"m 126 1025 q 175 1006 156 1025 q 194 946 194 986 q 175 888 194 907 q 126 868 156 868 q 76 888 96 868 q 56 946 56 907 q 75 1006 56 986 q 126 1025 94 1025 z "},"˚":{"ha":411,"x_min":56,"x_max":356,"o":"m 206 843 q 97 882 138 843 q 56 988 56 921 q 97 1092 56 1054 q 206 1131 138 1131 q 313 1093 269 1131 q 356 989 356 1056 q 314 882 356 921 q 206 843 272 843 m 206 913 q 260 933 239 913 q 282 988 282 953 q 261 1043 282 1022 q 206 1064 240 1064 q 151 1043 172 1064 q 129 988 129 1022 q 149 933 129 953 q 206 913 168 913 z "},"˛":{"ha":329,"x_min":56,"x_max":274,"o":"m 153 -161 q 169 -210 153 -193 q 215 -226 186 -226 q 250 -223 236 -226 q 274 -218 264 -219 l 274 -296 q 239 -304 257 -301 q 194 -307 221 -307 q 90 -274 124 -307 q 56 -178 56 -240 q 73 -103 56 -139 q 119 -35 90 -67 q 178 19 147 -3 l 243 0 q 174 -83 196 -46 q 153 -161 153 -119 z "},"˜":{"ha":585,"x_min":56,"x_max":529,"o":"m 56 842 q 69 911 60 879 q 97 967 79 943 q 138 1003 114 990 q 194 1015 163 1015 q 250 1003 224 1015 q 301 976 276 992 q 349 948 326 960 q 393 936 372 936 q 436 958 421 936 q 460 1017 451 979 l 529 1017 q 486 890 522 936 q 392 843 450 843 q 338 855 364 843 q 285 883 311 867 q 238 910 260 899 q 193 922 215 922 q 150 901 165 922 q 126 842 135 881 l 56 842 z "},"˝":{"ha":583,"x_min":56,"x_max":528,"o":"m 528 1050 q 496 1003 517 1031 q 449 944 475 975 q 397 888 422 914 q 349 842 371 861 l 283 842 l 283 858 q 326 924 304 886 q 369 999 349 961 q 400 1064 389 1038 l 528 1064 l 528 1050 m 300 1050 q 267 1003 288 1031 q 222 945 247 975 q 170 888 197 915 q 119 842 143 861 l 56 842 l 56 858 q 97 924 75 886 q 140 999 119 961 q 172 1064 160 1036 l 300 1064 l 300 1050 z "},"΄":{"ha":321,"x_min":56,"x_max":265,"o":"m 56 842 l 56 858 l 122 1078 l 265 1078 l 265 1064 l 133 842 l 56 842 z "},"΅":{"ha":878,"x_min":201,"x_max":675,"o":"m 357 842 l 357 858 l 411 1078 l 553 1078 l 553 1064 l 436 842 l 357 842 m 264 869 q 220 887 239 869 q 201 939 201 904 q 220 992 201 975 q 264 1008 239 1008 q 308 992 290 1008 q 326 939 326 975 q 308 887 326 904 q 264 869 290 869 m 613 869 q 568 887 586 869 q 550 939 550 904 q 568 992 550 975 q 613 1008 586 1008 q 656 992 638 1008 q 675 939 675 975 q 656 887 675 904 q 613 869 638 869 z "},"Ά":{"ha":883,"x_min":14,"x_max":883,"o":"m 756 0 l 653 308 l 319 308 l 218 0 l 92 0 l 425 994 l 547 994 l 882 0 l 756 0 m 524 728 q 512 772 519 744 q 497 827 504 799 q 485 874 489 856 q 474 822 481 849 q 461 772 468 796 q 449 728 454 747 l 351 418 l 621 418 l 524 728 m 14 756 l 14 772 l 81 992 l 224 992 l 224 978 l 92 756 l 14 756 z "},"·":{"ha":351,"x_min":93,"x_max":257,"o":"m 93 667 q 116 738 93 717 q 175 758 139 758 q 233 738 210 758 q 257 667 257 717 q 233 597 257 618 q 175 575 210 575 q 117 597 140 575 q 93 667 93 619 z "},"Έ":{"ha":918,"x_min":14,"x_max":842,"o":"m 842 0 l 346 0 l 346 992 l 842 992 l 842 883 l 468 883 l 468 571 l 819 571 l 819 464 l 468 464 l 468 108 l 842 108 l 842 0 m 14 756 l 14 772 l 81 992 l 224 992 l 224 978 l 92 756 l 14 756 z "},"Ή":{"ha":1147,"x_min":14,"x_max":1024,"o":"m 1024 0 l 901 0 l 901 464 l 468 464 l 468 0 l 346 0 l 346 992 l 468 992 l 468 572 l 901 572 l 901 992 l 1024 992 l 1024 0 m 14 756 l 14 772 l 81 992 l 224 992 l 224 978 l 92 756 l 14 756 z "},"Ί":{"ha":694,"x_min":14,"x_max":640,"o":"m 640 0 l 304 0 l 304 71 l 411 96 l 411 896 l 304 921 l 304 992 l 640 992 l 640 921 l 533 896 l 533 96 l 640 71 l 640 0 m 14 756 l 14 772 l 81 992 l 224 992 l 224 978 l 92 756 l 14 756 z "},"Ό":{"ha":1121,"x_min":14,"x_max":1043,"o":"m 1043 497 q 1018 292 1043 385 q 943 129 993 199 q 817 23 893 60 q 639 -14 742 -14 q 457 24 533 -14 q 331 131 381 63 q 257 293 281 199 q 233 499 233 388 q 278 771 233 657 q 413 946 322 885 q 639 1007 503 1007 q 865 942 775 1007 q 999 762 954 876 q 1043 497 1043 647 m 361 497 q 391 279 361 369 q 483 142 421 189 q 638 94 544 94 q 793 141 732 94 q 884 278 854 188 q 914 497 914 368 q 847 794 914 690 q 639 899 781 899 q 483 851 544 899 q 391 715 421 804 q 361 497 361 625 m 14 756 l 14 772 l 81 992 l 224 992 l 224 978 l 92 756 l 14 756 z "},"Ύ":{"ha":990,"x_min":14,"x_max":990,"o":"m 642 511 l 861 992 l 990 992 l 703 385 l 703 0 l 581 0 l 581 381 l 293 992 l 424 992 l 642 511 m 14 756 l 14 772 l 81 992 l 224 992 l 224 978 l 92 756 l 14 756 z "},"Ώ":{"ha":1050,"x_min":14,"x_max":1019,"o":"m 199 0 l 199 108 l 393 108 q 299 212 342 150 q 231 356 257 274 q 206 538 206 439 q 253 785 206 679 q 390 949 300 890 q 610 1007 481 1007 q 830 949 740 1007 q 966 785 919 890 q 1013 539 1013 679 q 988 355 1013 438 q 920 210 963 272 q 825 108 878 149 l 1019 108 l 1019 0 l 686 0 l 686 97 q 803 219 760 156 q 866 360 847 283 q 885 532 885 436 q 856 723 885 640 q 766 852 826 806 q 610 899 706 899 q 455 853 517 899 q 363 724 393 807 q 333 532 333 642 q 352 360 333 438 q 414 220 371 283 q 532 97 457 157 l 532 0 l 199 0 m 14 756 l 14 772 l 81 992 l 224 992 l 224 978 l 92 756 l 14 756 z "},"ΐ":{"ha":414,"x_min":-18,"x_max":457,"o":"m 294 -14 q 188 12 231 -14 q 126 87 146 38 q 106 207 106 136 l 106 744 l 224 744 l 224 204 q 247 113 224 139 q 311 88 271 88 q 351 91 332 88 q 386 100 369 94 l 386 1 q 347 -10 371 -6 q 294 -14 324 -14 m 139 842 l 139 858 l 193 1078 l 335 1078 l 335 1064 l 218 842 l 139 842 m 46 869 q 2 887 21 869 q -17 939 -17 904 q 2 992 -17 975 q 46 1008 21 1008 q 90 992 72 1008 q 108 939 108 975 q 90 887 108 904 q 46 869 72 869 m 394 869 q 350 887 368 869 q 332 939 332 904 q 350 992 332 975 q 394 1008 368 1008 q 438 992 419 1008 q 457 939 457 975 q 438 887 457 904 q 394 869 419 869 z "},"Α":{"ha":792,"x_min":0,"x_max":790,"o":"m 664 0 l 561 308 l 228 308 l 126 0 l 0 0 l 333 994 l 456 994 l 790 0 l 664 0 m 432 728 q 420 772 428 744 q 405 827 413 799 q 393 874 397 856 q 383 822 389 849 q 369 772 376 796 q 357 728 363 747 l 260 418 l 529 418 l 432 728 z "},"Β":{"ha":815,"x_min":122,"x_max":747,"o":"m 382 992 q 634 935 549 992 q 719 749 719 878 q 699 642 719 688 q 641 567 679 596 q 547 526 603 538 l 547 519 q 652 481 607 508 q 722 405 697 453 q 747 283 747 357 q 710 131 747 194 q 604 33 674 67 q 436 0 535 0 l 122 0 l 122 992 l 382 992 m 399 568 q 551 610 508 568 q 593 736 593 653 q 543 851 593 814 q 386 888 493 888 l 244 888 l 244 568 l 399 568 m 244 467 l 244 104 l 417 104 q 572 154 526 104 q 618 292 618 204 q 597 385 618 346 q 529 445 576 424 q 406 467 482 467 l 244 467 z "},"Γ":{"ha":628,"x_min":122,"x_max":596,"o":"m 122 0 l 122 992 l 596 992 l 596 883 l 244 883 l 244 0 l 122 0 z "},"Δ":{"ha":796,"x_min":14,"x_max":782,"o":"m 14 0 l 14 74 l 336 994 l 458 994 l 782 74 l 782 0 l 14 0 m 151 111 l 643 111 l 440 728 q 427 772 436 744 q 410 827 418 799 q 397 874 401 856 q 384 822 392 849 q 369 772 376 796 q 356 728 361 747 l 151 111 z "},"Ε":{"ha":694,"x_min":122,"x_max":618,"o":"m 618 0 l 122 0 l 122 992 l 618 992 l 618 883 l 244 883 l 244 571 l 596 571 l 596 464 l 244 464 l 244 108 l 618 108 l 618 0 z "},"Ζ":{"ha":688,"x_min":47,"x_max":643,"o":"m 643 0 l 47 0 l 47 93 l 489 882 l 60 882 l 60 992 l 631 992 l 631 899 l 188 110 l 643 110 l 643 0 z "},"Η":{"ha":924,"x_min":122,"x_max":800,"o":"m 800 0 l 678 0 l 678 464 l 244 464 l 244 0 l 122 0 l 122 992 l 244 992 l 244 572 l 678 572 l 678 992 l 800 992 l 800 0 z "},"Θ":{"ha":967,"x_min":79,"x_max":889,"o":"m 307 451 l 307 557 l 660 557 l 660 451 l 307 451 m 889 497 q 864 292 889 385 q 789 129 839 199 q 663 23 739 60 q 485 -14 588 -14 q 303 24 379 -14 q 176 131 226 63 q 103 293 126 199 q 79 499 79 388 q 124 771 79 657 q 258 946 168 885 q 485 1007 349 1007 q 710 942 621 1007 q 844 762 800 876 q 889 497 889 647 m 207 497 q 237 279 207 369 q 328 142 267 189 q 483 94 390 94 q 639 141 578 94 q 730 278 700 188 q 760 497 760 368 q 693 794 760 690 q 485 899 626 899 q 328 851 390 899 q 237 715 267 804 q 207 497 207 625 z "},"Ι":{"ha":442,"x_min":53,"x_max":389,"o":"m 389 0 l 53 0 l 53 71 l 160 96 l 160 896 l 53 921 l 53 992 l 389 992 l 389 921 l 282 896 l 282 96 l 389 71 l 389 0 z "},"Κ":{"ha":772,"x_min":122,"x_max":774,"o":"m 774 0 l 633 0 l 335 468 l 244 381 l 244 0 l 122 0 l 122 992 l 244 992 l 244 500 q 308 580 274 536 q 381 672 342 624 l 621 992 l 760 992 l 421 557 l 774 0 z "},"Λ":{"ha":765,"x_min":0,"x_max":764,"o":"m 0 0 l 321 994 l 443 994 l 764 0 l 638 0 l 418 728 q 406 772 414 744 q 392 827 399 799 q 381 874 385 856 q 369 822 375 849 q 356 772 363 796 q 344 728 350 747 l 126 0 l 0 0 z "},"Μ":{"ha":1164,"x_min":122,"x_max":1042,"o":"m 526 0 l 232 856 l 226 856 q 231 780 229 821 q 235 697 233 739 q 236 614 236 654 l 236 0 l 122 0 l 122 992 l 300 992 l 578 181 l 583 181 l 865 992 l 1042 992 l 1042 0 l 922 0 l 922 618 q 923 698 922 657 q 926 779 924 739 q 931 854 929 819 l 925 854 l 629 0 l 526 0 z "},"Ν":{"ha":958,"x_min":122,"x_max":836,"o":"m 836 0 l 692 0 l 232 818 l 226 818 q 231 744 229 785 q 235 660 233 703 q 236 574 236 617 l 236 0 l 122 0 l 122 992 l 265 992 l 725 181 l 731 181 q 727 251 729 210 q 724 337 725 292 q 722 419 722 382 l 722 992 l 836 992 l 836 0 z "},"Ξ":{"ha":778,"x_min":76,"x_max":703,"o":"m 76 0 l 76 111 l 703 111 l 703 0 l 76 0 m 146 464 l 146 575 l 633 575 l 633 464 l 146 464 m 100 881 l 100 992 l 679 992 l 679 881 l 100 881 z "},"Ο":{"ha":967,"x_min":79,"x_max":889,"o":"m 889 497 q 864 292 889 385 q 789 129 839 199 q 663 23 739 60 q 485 -14 588 -14 q 303 24 379 -14 q 176 131 226 63 q 103 293 126 199 q 79 499 79 388 q 124 771 79 657 q 258 946 168 885 q 485 1007 349 1007 q 710 942 621 1007 q 844 762 800 876 q 889 497 889 647 m 207 497 q 237 279 207 369 q 328 142 267 189 q 483 94 390 94 q 639 141 578 94 q 730 278 700 188 q 760 497 760 368 q 693 794 760 690 q 485 899 626 899 q 328 851 390 899 q 237 715 267 804 q 207 497 207 625 z "},"Π":{"ha":914,"x_min":122,"x_max":792,"o":"m 122 0 l 122 992 l 792 992 l 792 0 l 671 0 l 671 883 l 244 883 l 244 0 l 122 0 z "},"Ρ":{"ha":758,"x_min":122,"x_max":697,"o":"m 356 992 q 615 917 533 992 q 697 700 697 842 q 678 576 697 633 q 616 476 658 519 q 506 410 574 433 q 340 386 438 386 l 244 386 l 244 0 l 122 0 l 122 992 l 356 992 m 347 886 l 244 886 l 244 492 l 328 492 q 465 512 411 492 q 546 577 519 532 q 572 696 572 622 q 518 840 572 794 q 347 886 464 886 z "},"Σ":{"ha":688,"x_min":47,"x_max":643,"o":"m 47 0 l 47 101 l 328 511 l 60 892 l 60 992 l 629 992 l 629 883 l 333 883 q 267 884 304 883 q 208 886 231 885 l 454 543 l 454 510 l 181 107 q 264 109 224 108 q 347 110 304 110 l 643 110 l 643 0 l 47 0 z "},"Τ":{"ha":683,"x_min":14,"x_max":668,"o":"m 403 0 l 281 0 l 281 883 l 14 883 l 14 992 l 668 992 l 668 883 l 403 883 l 403 0 z "},"Υ":{"ha":697,"x_min":0,"x_max":697,"o":"m 349 511 l 568 992 l 697 992 l 410 385 l 410 0 l 288 0 l 288 381 l 0 992 l 131 992 l 349 511 z "},"Φ":{"ha":1079,"x_min":65,"x_max":1014,"o":"m 479 0 l 479 131 q 281 165 361 132 q 154 253 201 197 q 86 376 107 308 q 65 515 65 444 q 88 658 65 590 q 158 778 110 725 q 285 861 206 831 q 479 892 365 892 l 479 992 l 600 992 l 600 892 q 796 861 717 892 q 923 779 875 831 q 992 660 971 728 q 1014 515 1014 592 q 993 374 1014 443 q 924 251 972 306 q 797 165 876 197 q 600 131 717 132 l 600 0 l 479 0 m 479 232 l 479 788 q 307 751 371 786 q 216 657 243 717 q 189 517 189 597 q 218 367 189 431 q 312 269 247 304 q 479 232 376 235 m 600 232 q 769 271 706 235 q 863 370 833 307 q 892 517 892 433 q 865 659 892 599 q 774 753 838 719 q 600 788 710 786 l 600 232 z "},"Χ":{"ha":719,"x_min":7,"x_max":713,"o":"m 713 0 l 576 0 l 360 421 l 135 0 l 7 0 l 293 517 l 29 992 l 161 992 l 363 610 l 565 992 l 694 992 l 432 515 l 713 0 z "},"Ψ":{"ha":1029,"x_min":114,"x_max":915,"o":"m 454 0 l 454 258 q 306 288 369 263 q 199 360 242 314 q 135 477 157 407 q 114 639 114 547 l 114 992 l 238 992 l 238 643 q 262 484 238 546 q 335 393 286 422 q 454 364 383 364 l 454 992 l 574 992 l 574 364 q 690 390 642 364 q 765 478 739 417 q 790 643 790 539 l 790 992 l 915 992 l 915 642 q 876 435 915 518 q 762 308 838 351 q 574 258 686 265 l 574 0 l 454 0 z "},"Ω":{"ha":882,"x_min":31,"x_max":851,"o":"m 31 0 l 31 108 l 225 108 q 131 212 174 150 q 63 356 89 274 q 38 538 38 439 q 85 785 38 679 q 222 949 132 890 q 442 1007 313 1007 q 662 949 572 1007 q 798 785 751 890 q 844 539 844 679 q 819 355 844 438 q 752 210 794 272 q 657 108 710 149 l 851 108 l 851 0 l 518 0 l 518 97 q 635 219 592 156 q 698 360 679 283 q 717 532 717 436 q 688 723 717 640 q 598 852 658 806 q 442 899 538 899 q 287 853 349 899 q 195 724 225 807 q 165 532 165 642 q 184 360 165 438 q 246 220 203 283 q 364 97 289 157 l 364 0 l 31 0 z "},"Ϊ":{"ha":442,"x_min":35,"x_max":408,"o":"m 389 0 l 53 0 l 53 71 l 160 96 l 160 896 l 53 921 l 53 992 l 389 992 l 389 921 l 282 896 l 282 96 l 389 71 l 389 0 m 35 1186 q 53 1239 35 1222 q 97 1256 72 1256 q 142 1239 124 1256 q 160 1186 160 1222 q 142 1134 160 1151 q 97 1117 124 1117 q 53 1134 72 1117 q 35 1186 35 1151 m 282 1186 q 301 1239 282 1222 q 344 1256 319 1256 q 390 1239 371 1256 q 408 1186 408 1222 q 390 1134 408 1151 q 344 1117 371 1117 q 300 1134 318 1117 q 282 1186 282 1151 z "},"Ϋ":{"ha":697,"x_min":0,"x_max":697,"o":"m 349 511 l 568 992 l 697 992 l 410 385 l 410 0 l 288 0 l 288 381 l 0 992 l 131 992 l 349 511 m 163 1186 q 181 1239 163 1222 q 225 1256 200 1256 q 269 1239 251 1256 q 288 1186 288 1222 q 269 1134 288 1151 q 225 1117 251 1117 q 181 1134 200 1117 q 163 1186 163 1151 m 410 1186 q 428 1239 410 1222 q 472 1256 447 1256 q 517 1239 499 1256 q 536 1186 536 1222 q 517 1134 536 1151 q 472 1117 499 1117 q 428 1134 446 1117 q 410 1186 410 1151 z "},"ά":{"ha":792,"x_min":69,"x_max":765,"o":"m 340 -14 q 198 29 258 -14 q 103 158 138 72 q 69 369 69 243 q 143 659 69 560 q 347 758 217 758 q 429 745 392 758 q 497 707 467 732 q 550 644 528 682 l 557 644 l 572 744 l 669 744 l 669 169 q 685 105 669 125 q 724 85 700 85 q 747 88 735 85 q 765 92 758 90 l 765 3 q 748 -6 760 -1 q 722 -12 736 -10 q 694 -14 707 -14 q 606 12 640 -14 q 558 101 572 38 l 550 101 q 499 41 529 67 q 428 1 468 15 q 340 -14 389 -14 m 368 86 q 472 115 432 86 q 532 204 513 144 q 551 357 551 264 l 551 371 q 510 586 551 514 q 365 658 468 658 q 234 583 276 658 q 192 368 192 508 q 236 156 192 226 q 368 86 281 86 m 336 842 l 336 858 l 403 1078 l 546 1078 l 546 1064 l 414 842 l 336 842 z "},"έ":{"ha":585,"x_min":57,"x_max":544,"o":"m 340 -14 q 125 48 193 -14 q 57 204 57 110 q 76 294 57 258 q 129 353 96 331 q 200 386 163 375 l 200 393 q 113 453 147 411 q 79 561 79 494 q 109 667 79 622 q 194 735 139 711 q 326 758 250 758 q 449 744 394 758 q 544 707 504 731 l 508 608 q 427 645 469 632 q 335 658 385 658 q 229 630 263 658 q 196 550 196 601 q 239 463 196 490 q 347 436 282 436 l 425 436 l 425 342 l 347 342 q 256 327 293 342 q 199 283 218 313 q 179 211 179 254 q 224 119 179 150 q 347 89 268 89 q 448 98 401 89 q 535 129 494 107 l 535 26 q 447 -5 499 4 q 340 -14 396 -14 m 296 842 l 296 858 l 363 1078 l 506 1078 l 506 1064 l 374 842 l 296 842 z "},"ή":{"ha":763,"x_min":108,"x_max":658,"o":"m 540 -333 l 540 479 q 508 612 540 567 q 406 657 475 657 q 301 627 340 657 q 244 538 261 597 q 226 386 226 478 l 226 0 l 108 0 l 108 744 l 203 744 l 219 643 l 226 643 q 279 708 249 682 q 348 746 310 733 q 428 758 386 758 q 556 730 506 758 q 633 642 607 701 q 658 492 658 583 l 658 -333 l 540 -333 m 283 842 l 283 858 l 350 1078 l 493 1078 l 493 1064 l 361 842 l 283 842 z "},"ί":{"ha":414,"x_min":106,"x_max":386,"o":"m 294 -14 q 188 12 231 -14 q 126 87 146 38 q 106 207 106 136 l 106 744 l 224 744 l 224 204 q 247 113 224 139 q 311 88 271 88 q 351 91 332 88 q 386 100 369 94 l 386 1 q 347 -10 371 -6 q 294 -14 324 -14 m 140 842 l 140 858 l 207 1078 l 350 1078 l 350 1064 l 218 842 l 140 842 z "},"ΰ":{"ha":747,"x_min":101,"x_max":657,"o":"m 350 -14 q 225 7 274 -14 q 149 67 176 28 q 112 162 122 106 q 101 292 101 218 l 101 744 l 221 744 l 221 300 q 230 183 221 231 q 269 111 239 136 q 357 86 299 86 q 457 119 417 86 q 517 222 497 153 q 538 397 538 290 q 527 576 538 494 q 496 744 517 657 l 614 744 q 639 629 629 683 q 653 520 649 575 q 657 394 657 465 q 578 87 657 188 q 350 -14 499 -14 m 318 842 l 318 858 l 372 1078 l 514 1078 l 514 1064 l 397 842 l 318 842 m 225 869 q 181 887 200 869 q 163 939 163 904 q 181 992 163 975 q 225 1008 200 1008 q 269 992 251 1008 q 288 939 288 975 q 269 887 288 904 q 225 869 251 869 m 574 869 q 529 887 547 869 q 511 939 511 904 q 529 992 511 975 q 574 1008 547 1008 q 617 992 599 1008 q 636 939 636 975 q 617 887 636 904 q 574 869 599 869 z "},"α":{"ha":792,"x_min":69,"x_max":765,"o":"m 340 -14 q 198 29 258 -14 q 103 158 138 72 q 69 369 69 243 q 143 659 69 560 q 347 758 217 758 q 429 745 392 758 q 497 707 467 732 q 550 644 528 682 l 557 644 l 572 744 l 669 744 l 669 169 q 685 105 669 125 q 724 85 700 85 q 747 88 735 85 q 765 92 758 90 l 765 3 q 748 -6 760 -1 q 722 -12 736 -10 q 694 -14 707 -14 q 606 12 640 -14 q 558 101 572 38 l 550 101 q 499 41 529 67 q 428 1 468 15 q 340 -14 389 -14 m 368 86 q 472 115 432 86 q 532 204 513 144 q 551 357 551 264 l 551 371 q 510 586 551 514 q 365 658 468 658 q 234 583 276 658 q 192 368 192 508 q 236 156 192 226 q 368 86 281 86 z "},"β":{"ha":774,"x_min":108,"x_max":704,"o":"m 108 -333 l 108 750 q 145 928 108 860 q 247 1030 182 997 q 396 1063 313 1063 q 542 1031 483 1063 q 632 942 601 1000 q 663 800 663 883 q 640 682 663 731 q 576 603 617 633 q 483 564 536 574 l 483 558 q 602 515 553 549 q 678 424 651 482 q 704 281 704 365 q 668 121 704 188 q 567 20 632 54 q 417 -14 503 -14 q 341 -8 374 -14 q 281 8 308 -3 q 226 33 254 18 l 226 -333 l 108 -333 m 401 86 q 538 139 490 86 q 586 290 586 192 q 561 412 586 364 q 494 484 536 460 q 400 508 453 508 l 306 508 l 306 603 l 389 603 q 473 625 439 603 q 524 690 507 647 q 542 792 542 732 q 500 920 542 878 q 393 963 458 963 q 310 942 349 963 q 249 875 272 922 q 226 746 226 828 l 226 140 q 308 101 267 117 q 401 86 350 86 z "},"γ":{"ha":651,"x_min":1,"x_max":607,"o":"m 232 -292 l 232 0 l 1 744 l 125 744 l 244 322 q 266 249 253 289 q 290 172 279 208 q 306 110 300 135 l 311 110 q 416 294 376 197 q 472 503 456 392 q 489 744 489 615 l 607 744 q 583 476 607 601 q 503 233 560 350 q 350 -1 447 117 l 350 -292 l 232 -292 z "},"δ":{"ha":740,"x_min":56,"x_max":671,"o":"m 364 -14 q 201 26 271 -14 q 93 140 131 67 q 56 307 56 213 q 83 458 56 392 q 164 572 111 524 q 290 649 217 619 q 225 706 256 676 q 176 772 194 735 q 157 860 157 810 q 185 960 157 914 q 269 1034 213 1006 q 407 1063 325 1063 q 510 1050 465 1063 q 588 1021 556 1038 q 638 989 621 1004 l 589 893 q 504 943 550 924 q 406 963 458 963 q 328 948 357 963 q 286 910 299 933 q 274 863 274 888 q 288 810 274 836 q 334 754 301 783 q 424 688 367 725 q 576 567 524 626 q 650 446 629 507 q 671 319 671 385 q 631 136 671 210 q 521 24 590 63 q 364 -14 451 -14 m 367 85 q 469 114 426 85 q 533 196 511 143 q 554 318 554 249 q 533 431 554 381 q 473 522 513 481 q 379 594 433 563 q 293 551 331 578 q 230 491 256 525 q 191 413 204 457 q 178 315 178 368 q 201 194 178 246 q 266 113 224 142 q 367 85 308 85 z "},"ε":{"ha":585,"x_min":57,"x_max":544,"o":"m 340 -14 q 125 48 193 -14 q 57 204 57 110 q 76 294 57 258 q 129 353 96 331 q 200 386 163 375 l 200 393 q 113 453 147 411 q 79 561 79 494 q 109 667 79 622 q 194 735 139 711 q 326 758 250 758 q 449 744 394 758 q 544 707 504 731 l 508 608 q 427 645 469 632 q 335 658 385 658 q 229 630 263 658 q 196 550 196 601 q 239 463 196 490 q 347 436 282 436 l 425 436 l 425 342 l 347 342 q 256 327 293 342 q 199 283 218 313 q 179 211 179 254 q 224 119 179 150 q 347 89 268 89 q 448 98 401 89 q 535 129 494 107 l 535 26 q 447 -5 499 4 q 340 -14 396 -14 z "},"ζ":{"ha":567,"x_min":71,"x_max":568,"o":"m 388 -281 q 430 -188 414 -231 q 446 -112 446 -146 q 438 -69 446 -86 q 408 -39 431 -51 q 340 -15 385 -26 q 181 48 240 10 q 97 141 122 86 q 71 269 71 196 q 99 425 71 349 q 181 587 128 501 q 304 774 235 672 l 438 968 q 401 966 429 968 q 335 963 374 964 q 258 963 297 963 l 106 963 l 106 1056 l 568 1056 l 568 982 l 390 721 q 274 533 317 610 q 212 397 231 456 q 193 285 193 338 q 206 204 193 242 q 263 137 219 167 q 394 82 306 107 q 494 46 457 67 q 547 -6 531 25 q 564 -86 564 -36 q 556 -156 564 -122 q 535 -221 549 -190 q 504 -281 521 -251 l 388 -281 z "},"η":{"ha":763,"x_min":108,"x_max":658,"o":"m 540 -333 l 540 479 q 508 612 540 567 q 406 657 475 657 q 301 627 340 657 q 244 538 261 597 q 226 386 226 478 l 226 0 l 108 0 l 108 744 l 203 744 l 219 643 l 226 643 q 279 708 249 682 q 348 746 310 733 q 428 758 386 758 q 556 730 506 758 q 633 642 607 701 q 658 492 658 583 l 658 -333 l 540 -333 z "},"θ":{"ha":751,"x_min":69,"x_max":682,"o":"m 374 -14 q 203 49 271 -14 q 103 232 136 111 q 69 525 69 353 q 101 819 69 700 q 201 1001 133 939 q 375 1063 269 1063 q 547 1001 479 1063 q 649 821 615 940 q 682 526 682 701 q 650 233 682 353 q 551 49 618 113 q 374 -14 483 -14 m 374 86 q 477 126 436 86 q 539 256 518 167 q 563 492 560 346 l 189 492 q 211 258 192 347 q 271 127 231 168 q 374 86 311 86 m 189 586 l 563 586 q 538 797 558 714 q 476 920 517 879 q 375 961 436 961 q 273 921 313 961 q 214 797 233 881 q 189 586 194 714 z "},"ι":{"ha":414,"x_min":106,"x_max":386,"o":"m 294 -14 q 188 12 231 -14 q 126 87 146 38 q 106 207 106 136 l 106 744 l 224 744 l 224 204 q 247 113 224 139 q 311 88 271 88 q 351 91 332 88 q 386 100 369 94 l 386 1 q 347 -10 371 -6 q 294 -14 324 -14 z "},"κ":{"ha":674,"x_min":108,"x_max":663,"o":"m 644 744 l 400 431 l 663 0 l 526 0 l 317 347 l 231 267 l 231 0 l 108 0 l 108 744 l 231 744 l 231 544 q 228 447 231 494 q 224 369 226 400 l 226 369 q 251 407 239 389 q 275 440 264 425 l 507 744 l 644 744 z "},"λ":{"ha":660,"x_min":7,"x_max":657,"o":"m 585 -14 q 529 -2 553 -14 q 489 36 506 10 q 458 107 472 63 l 369 396 q 354 446 363 418 q 337 502 346 474 q 321 557 328 531 q 310 603 314 583 l 304 603 q 283 515 297 564 q 256 422 269 465 l 135 0 l 10 0 l 254 742 l 219 850 q 165 937 200 911 q 78 963 129 963 q 39 959 57 963 q 7 953 21 956 l 7 1051 q 33 1058 19 1056 q 61 1061 46 1060 q 93 1063 76 1063 q 199 1042 153 1063 q 281 974 246 1021 q 340 850 315 926 l 564 154 q 579 114 572 129 q 596 92 586 99 q 618 86 606 86 q 640 89 629 86 q 657 93 650 92 l 657 0 q 637 -7 649 -3 q 613 -12 625 -11 q 585 -14 600 -14 z "},"μ":{"ha":792,"x_min":108,"x_max":765,"o":"m 108 -333 l 108 744 l 226 744 l 226 265 q 262 133 226 179 q 368 88 297 88 q 509 156 468 88 q 550 357 550 224 l 550 744 l 669 744 l 669 169 q 685 105 669 125 q 724 85 700 85 q 747 88 735 85 q 765 92 758 90 l 765 3 q 748 -6 760 -1 q 722 -12 736 -10 q 694 -14 708 -14 q 607 12 640 -14 q 558 101 574 38 l 550 101 q 503 39 531 65 q 442 -1 476 13 q 364 -14 408 -14 q 283 3 317 -14 q 225 50 249 21 l 219 50 q 224 7 222 31 q 226 -44 225 -17 q 226 -103 226 -72 l 226 -333 l 108 -333 z "},"ν":{"ha":651,"x_min":1,"x_max":607,"o":"m 231 0 l 1 744 l 125 744 l 244 322 q 266 249 253 289 q 290 172 279 208 q 306 110 300 135 l 311 110 q 416 294 376 197 q 472 503 456 392 q 489 744 489 615 l 607 744 q 583 473 607 599 q 503 231 558 347 q 351 0 447 114 l 231 0 z "},"ξ":{"ha":613,"x_min":71,"x_max":574,"o":"m 393 -281 q 435 -190 419 -231 q 451 -110 451 -149 q 444 -70 451 -87 q 413 -40 436 -53 q 342 -15 390 -26 q 192 43 253 7 q 101 137 132 79 q 71 278 71 194 q 98 411 71 356 q 169 502 125 467 q 268 550 214 538 l 268 557 q 184 595 219 571 q 129 659 149 619 q 110 757 110 699 q 135 858 110 815 q 201 928 160 900 q 289 969 242 956 q 252 966 275 968 q 203 963 229 964 q 151 963 178 963 l 106 963 l 106 1056 l 574 1056 l 574 968 l 525 968 q 409 957 464 968 q 313 922 354 946 q 249 860 272 899 q 226 764 226 821 q 247 681 226 717 q 314 623 267 644 q 440 601 361 601 l 553 601 l 553 508 l 435 508 q 293 480 346 508 q 216 403 240 451 q 192 294 192 356 q 210 199 192 239 q 276 131 229 160 q 406 79 322 103 q 506 42 471 64 q 556 -11 542 19 q 569 -85 569 -42 q 562 -154 569 -121 q 540 -218 554 -187 q 510 -281 526 -249 l 393 -281 z "},"ο":{"ha":758,"x_min":69,"x_max":690,"o":"m 690 374 q 669 211 690 282 q 608 90 649 140 q 510 13 568 39 q 378 -14 451 -14 q 251 13 308 -14 q 154 89 194 39 q 92 210 114 139 q 69 374 69 282 q 106 583 69 497 q 213 713 143 668 q 381 758 282 758 q 543 714 474 758 q 651 584 613 669 q 690 374 690 499 m 192 374 q 212 219 192 283 q 274 120 232 154 q 381 86 315 86 q 486 120 444 86 q 548 219 528 154 q 568 374 568 283 q 548 528 568 465 q 486 624 528 592 q 379 657 444 657 q 236 583 281 657 q 192 374 192 510 z "},"π":{"ha":822,"x_min":22,"x_max":796,"o":"m 692 -12 q 582 33 618 -12 q 546 171 546 79 l 546 650 l 275 650 l 275 0 l 158 0 l 158 650 l 22 650 l 22 744 l 796 744 l 796 650 l 664 650 l 664 176 q 680 108 664 128 q 724 88 696 88 q 755 91 740 88 q 781 100 769 94 l 781 6 q 744 -7 768 -1 q 692 -12 721 -12 z "},"ρ":{"ha":756,"x_min":88,"x_max":686,"o":"m 88 -333 l 88 382 q 122 590 88 507 q 222 716 157 674 q 378 758 288 758 q 545 713 476 758 q 650 581 614 668 q 686 364 686 493 q 649 163 686 247 q 544 32 611 78 q 386 -14 476 -14 q 288 2 335 -14 q 206 47 240 18 l 199 47 q 204 -33 203 17 q 206 -136 206 -82 l 206 -333 l 88 -333 m 382 86 q 483 118 442 86 q 544 212 524 150 q 564 364 564 274 q 516 586 564 515 q 375 657 468 657 q 249 590 292 657 q 206 386 206 524 l 206 150 q 287 102 240 118 q 382 86 333 86 z "},"σ":{"ha":776,"x_min":69,"x_max":736,"o":"m 374 -14 q 212 30 281 -14 q 106 156 143 74 q 69 356 69 239 q 113 578 69 492 q 238 704 157 664 q 435 744 319 744 l 736 744 l 736 650 l 575 650 q 635 569 613 615 q 668 469 657 524 q 679 349 679 414 q 660 206 679 272 q 601 91 640 140 q 505 14 563 42 q 374 -14 447 -14 m 375 86 q 481 120 439 86 q 542 214 522 154 q 561 351 561 274 q 551 463 561 408 q 521 564 542 517 q 465 650 500 611 l 428 650 q 295 620 349 650 q 216 525 242 590 q 190 357 190 460 q 210 214 190 275 q 270 119 229 153 q 375 86 311 86 z "},"τ":{"ha":601,"x_min":22,"x_max":561,"o":"m 408 -15 q 299 6 346 -15 q 224 76 251 26 q 196 214 196 126 l 196 650 l 22 650 l 22 744 l 561 744 l 561 650 l 315 650 l 315 225 q 329 144 315 175 q 369 98 343 113 q 428 83 394 83 q 482 88 454 83 q 531 99 510 93 l 531 7 q 477 -9 513 -3 q 408 -15 442 -15 z "},"υ":{"ha":747,"x_min":101,"x_max":657,"o":"m 350 -14 q 225 7 274 -14 q 149 67 176 28 q 112 162 122 106 q 101 292 101 218 l 101 744 l 221 744 l 221 300 q 230 183 221 231 q 269 111 239 136 q 357 86 299 86 q 457 119 417 86 q 517 222 497 153 q 538 397 538 290 q 527 576 538 494 q 496 744 517 657 l 614 744 q 639 629 629 683 q 653 520 649 575 q 657 394 657 465 q 578 87 657 188 q 350 -14 499 -14 z "},"φ":{"ha":919,"x_min":69,"x_max":851,"o":"m 403 -333 l 403 -11 q 226 47 301 -1 q 110 177 151 94 q 69 372 69 260 q 108 567 69 485 q 220 699 146 650 q 403 756 294 747 l 403 1056 l 518 1056 l 518 756 q 698 696 624 746 q 812 563 772 646 q 851 372 851 481 q 813 181 851 264 q 700 49 774 99 q 518 -11 626 0 l 518 -333 l 403 -333 m 403 85 l 403 658 q 284 616 331 651 q 215 519 238 581 q 193 372 193 458 q 215 229 193 292 q 283 130 238 167 q 403 85 329 93 m 518 85 q 638 131 592 94 q 707 230 685 168 q 729 372 729 292 q 676 573 729 500 q 518 658 624 646 l 518 85 z "},"χ":{"ha":746,"x_min":28,"x_max":738,"o":"m 653 -333 q 572 -318 604 -333 q 517 -269 540 -303 q 471 -179 493 -235 l 167 549 q 127 626 146 600 q 78 653 108 653 q 53 651 65 653 q 33 646 42 649 l 33 740 q 62 748 47 744 q 101 751 76 751 q 170 738 143 751 q 219 694 197 725 q 263 610 240 664 l 568 -117 q 600 -184 586 -158 q 631 -222 614 -210 q 676 -235 649 -235 q 707 -233 693 -235 q 732 -228 721 -231 l 732 -322 q 710 -328 722 -325 q 685 -332 699 -331 q 653 -333 671 -333 m 28 -333 l 347 242 l 394 124 l 151 -333 l 28 -333 m 417 132 l 369 250 l 614 744 l 738 744 l 417 132 z "},"ψ":{"ha":938,"x_min":101,"x_max":849,"o":"m 410 -333 l 410 -12 q 244 27 313 -8 q 138 140 175 63 q 101 346 101 218 l 101 744 l 219 744 l 219 346 q 242 197 219 251 q 308 118 265 142 q 410 89 351 94 l 410 1056 l 525 1056 l 525 89 q 640 130 594 96 q 708 228 685 164 q 731 393 731 293 q 720 568 731 485 q 688 744 710 651 l 804 744 q 838 567 826 650 q 849 394 849 483 q 808 169 849 257 q 696 38 768 81 q 525 -12 624 -6 l 525 -333 l 410 -333 z "},"ω":{"ha":993,"x_min":83,"x_max":910,"o":"m 318 -14 q 188 32 239 -14 q 110 163 136 78 q 83 361 83 247 q 115 581 83 482 q 197 744 146 679 l 317 744 q 256 644 282 703 q 217 515 231 586 q 203 361 203 443 q 235 157 203 225 q 326 89 268 89 q 390 112 365 89 q 428 178 415 135 q 440 279 440 221 l 440 492 l 553 492 l 553 279 q 567 174 553 217 q 605 110 581 132 q 665 89 629 89 q 734 119 706 89 q 777 210 763 149 q 792 360 792 271 q 778 510 792 440 q 740 640 765 581 q 678 744 714 700 l 796 744 q 858 641 833 700 q 897 511 883 582 q 910 361 910 440 q 883 163 910 247 q 805 32 857 78 q 675 -14 753 -14 q 563 21 607 -14 q 499 129 519 56 l 493 129 q 457 49 481 81 q 399 1 433 17 q 318 -14 364 -14 z "},"ϊ":{"ha":414,"x_min":-15,"x_max":386,"o":"m 294 -14 q 188 12 231 -14 q 126 87 146 38 q 106 207 106 136 l 106 744 l 224 744 l 224 204 q 247 113 224 139 q 311 88 271 88 q 351 91 332 88 q 386 100 369 94 l 386 1 q 347 -10 371 -6 q 294 -14 324 -14 m -14 939 q 5 992 -14 975 q 49 1008 24 1008 q 93 992 75 1008 q 111 939 111 975 q 93 887 111 904 q 49 869 75 869 q 5 887 24 869 q -14 939 -14 904 m 233 939 q 252 992 233 975 q 296 1008 271 1008 q 341 992 322 1008 q 360 939 360 975 q 341 887 360 904 q 296 869 322 869 q 251 887 269 869 q 233 939 233 904 z "},"ϋ":{"ha":747,"x_min":101,"x_max":657,"o":"m 350 -14 q 225 7 274 -14 q 149 67 176 28 q 112 162 122 106 q 101 292 101 218 l 101 744 l 221 744 l 221 300 q 230 183 221 231 q 269 111 239 136 q 357 86 299 86 q 457 119 417 86 q 517 222 497 153 q 538 397 538 290 q 527 576 538 494 q 496 744 517 657 l 614 744 q 639 629 629 683 q 653 520 649 575 q 657 394 657 465 q 578 87 657 188 q 350 -14 499 -14 m 165 939 q 184 992 165 975 q 228 1008 203 1008 q 272 992 254 1008 q 290 939 290 975 q 272 887 290 904 q 228 869 254 869 q 184 887 203 869 q 165 939 165 904 m 413 939 q 431 992 413 975 q 475 1008 450 1008 q 520 992 501 1008 q 539 939 539 975 q 520 887 539 904 q 475 869 501 869 q 431 887 449 869 q 413 939 413 904 z "},"ό":{"ha":758,"x_min":69,"x_max":690,"o":"m 690 374 q 669 211 690 282 q 608 90 649 140 q 510 13 568 39 q 378 -14 451 -14 q 251 13 308 -14 q 154 89 194 39 q 92 210 114 139 q 69 374 69 282 q 106 583 69 497 q 213 713 143 668 q 381 758 282 758 q 543 714 474 758 q 651 584 613 669 q 690 374 690 499 m 192 374 q 212 219 192 283 q 274 120 232 154 q 381 86 315 86 q 486 120 444 86 q 548 219 528 154 q 568 374 568 283 q 548 528 568 465 q 486 624 528 592 q 379 657 444 657 q 236 583 281 657 q 192 374 192 510 m 349 842 l 349 858 l 415 1078 l 558 1078 l 558 1064 l 426 842 l 349 842 z "},"ύ":{"ha":747,"x_min":101,"x_max":657,"o":"m 350 -14 q 225 7 274 -14 q 149 67 176 28 q 112 162 122 106 q 101 292 101 218 l 101 744 l 221 744 l 221 300 q 230 183 221 231 q 269 111 239 136 q 357 86 299 86 q 457 119 417 86 q 517 222 497 153 q 538 397 538 290 q 527 576 538 494 q 496 744 517 657 l 614 744 q 639 629 629 683 q 653 520 649 575 q 657 394 657 465 q 578 87 657 188 q 350 -14 499 -14 m 321 842 l 321 858 l 388 1078 l 531 1078 l 531 1064 l 399 842 l 321 842 z "},"ώ":{"ha":993,"x_min":83,"x_max":910,"o":"m 318 -14 q 188 32 239 -14 q 110 163 136 78 q 83 361 83 247 q 115 581 83 482 q 197 744 146 679 l 317 744 q 256 644 282 703 q 217 515 231 586 q 203 361 203 443 q 235 157 203 225 q 326 89 268 89 q 390 112 365 89 q 428 178 415 135 q 440 279 440 221 l 440 492 l 553 492 l 553 279 q 567 174 553 217 q 605 110 581 132 q 665 89 629 89 q 734 119 706 89 q 777 210 763 149 q 792 360 792 271 q 778 510 792 440 q 740 640 765 581 q 678 744 714 700 l 796 744 q 858 641 833 700 q 897 511 883 582 q 910 361 910 440 q 883 163 910 247 q 805 32 857 78 q 675 -14 753 -14 q 563 21 607 -14 q 499 129 519 56 l 493 129 q 457 49 481 81 q 399 1 433 17 q 318 -14 364 -14 m 465 842 l 465 858 l 532 1078 l 675 1078 l 675 1064 l 543 842 l 465 842 z "},"Ё":{"ha":694,"x_min":122,"x_max":618,"o":"m 122 0 l 122 992 l 618 992 l 618 883 l 244 883 l 244 571 l 596 571 l 596 464 l 244 464 l 244 108 l 618 108 l 618 0 l 122 0 m 267 1097 q 219 1118 236 1097 q 201 1176 201 1139 q 219 1234 201 1214 q 267 1254 236 1254 q 314 1234 297 1254 q 331 1176 331 1214 q 314 1118 331 1139 q 267 1097 297 1097 m 489 1097 q 442 1117 460 1097 q 425 1176 425 1138 q 442 1235 425 1215 q 490 1254 460 1254 q 538 1234 521 1254 q 554 1176 554 1214 q 537 1117 554 1138 q 489 1097 519 1097 z "},"Ђ":{"ha":897,"x_min":14,"x_max":836,"o":"m 563 -17 q 505 -12 533 -17 q 457 0 476 -8 l 457 103 q 507 93 485 96 q 553 90 529 90 q 669 142 629 90 q 710 290 710 194 l 710 293 q 661 447 710 397 q 514 497 613 497 q 415 486 468 497 q 308 450 361 475 l 347 522 l 347 0 l 226 0 l 225 883 l 14 883 l 14 992 l 649 992 l 649 883 l 346 883 l 347 540 l 311 557 q 415 591 361 579 q 528 603 469 603 q 756 525 676 603 q 836 297 836 447 l 836 293 q 802 128 836 197 q 707 21 768 58 q 563 -17 646 -17 z "},"Ѓ":{"ha":642,"x_min":122,"x_max":608,"o":"m 122 0 l 122 992 l 608 992 l 608 883 l 244 883 l 244 0 l 122 0 m 307 1081 l 307 1097 l 436 1303 l 576 1303 l 576 1290 l 385 1081 l 307 1081 z "},"Є":{"ha":794,"x_min":78,"x_max":746,"o":"m 497 -14 q 265 47 358 -14 q 124 220 171 107 q 78 492 78 333 q 129 767 78 651 q 276 944 181 882 q 504 1006 371 1006 q 626 993 565 1006 q 746 953 686 981 l 701 849 q 601 885 650 874 q 507 897 553 897 q 349 853 415 897 q 246 723 282 808 q 206 514 210 638 l 154 563 l 624 563 l 624 454 l 151 454 l 206 504 q 239 281 204 372 q 343 142 274 189 q 513 94 413 94 q 615 106 563 94 q 722 142 667 117 l 722 29 q 615 -3 674 7 q 497 -14 557 -14 z "},"Ѕ":{"ha":693,"x_min":65,"x_max":633,"o":"m 308 -14 q 216 -9 261 -14 q 133 7 171 -4 q 65 31 94 18 l 65 149 q 177 110 113 126 q 308 93 242 93 q 422 114 378 93 q 488 172 467 135 q 510 256 510 208 q 489 342 510 308 q 423 403 468 376 q 307 460 378 431 q 210 507 253 482 q 138 565 168 532 q 91 644 107 599 q 75 750 75 689 q 113 886 75 829 q 216 974 150 943 q 369 1006 282 1006 q 505 991 443 1006 q 615 954 567 976 l 578 849 q 478 883 531 869 q 371 897 425 897 q 275 879 314 897 q 217 828 236 861 q 199 750 199 796 q 219 663 199 697 q 283 603 240 629 q 392 550 326 578 q 518 485 464 519 q 603 398 572 450 q 633 265 633 346 q 594 117 633 179 q 483 20 556 54 q 308 -14 410 -14 z "},"І":{"ha":367,"x_min":122,"x_max":244,"o":"m 122 0 l 122 992 l 244 992 l 244 0 l 122 0 z "},"Ї":{"ha":371,"x_min":35,"x_max":336,"o":"m 124 0 l 124 992 l 246 992 l 246 0 l 124 0 m 100 1097 q 52 1117 69 1097 q 35 1175 35 1138 q 52 1233 35 1213 q 100 1253 69 1253 q 147 1233 129 1253 q 164 1175 164 1213 q 147 1117 164 1138 q 100 1097 129 1097 m 271 1097 q 225 1117 242 1097 q 208 1175 208 1138 q 225 1233 208 1214 q 272 1253 242 1253 q 320 1233 304 1253 q 336 1175 336 1213 q 319 1117 336 1136 q 271 1097 303 1097 z "},"Ј":{"ha":354,"x_min":-93,"x_max":239,"o":"m 4 -265 q -49 -261 -25 -265 q -93 -249 -74 -257 l -93 -143 q -51 -153 -74 -149 q -1 -157 -28 -157 q 58 -142 32 -157 q 101 -92 85 -128 q 117 7 117 -56 l 117 992 l 239 992 l 239 10 q 210 -148 239 -87 q 129 -237 182 -208 q 4 -265 76 -265 z "},"Љ":{"ha":1256,"x_min":3,"x_max":1197,"o":"m 83 -15 q 42 -11 64 -15 q 3 -1 21 -7 l 3 111 q 33 104 19 107 q 63 101 46 101 q 123 118 100 101 q 158 174 146 135 q 176 283 171 214 q 188 421 183 354 q 196 565 192 488 q 206 744 200 642 q 217 992 211 847 l 739 992 l 739 607 l 856 607 q 1111 532 1025 607 q 1197 308 1197 457 q 1110 80 1197 160 q 857 0 1022 0 l 617 0 l 617 883 l 328 883 q 318 696 322 781 q 310 539 314 611 q 301 401 306 467 q 289 269 296 336 q 257 107 281 169 q 192 15 233 44 q 83 -15 150 -15 m 739 106 l 856 106 q 1017 156 964 106 q 1071 307 1071 206 q 1018 454 1071 407 q 856 501 965 501 l 739 501 l 739 106 z "},"Њ":{"ha":1271,"x_min":122,"x_max":1211,"o":"m 122 0 l 122 992 l 244 992 l 244 590 l 632 590 l 632 992 l 753 992 l 753 590 l 869 590 q 1125 516 1039 590 q 1211 299 1211 442 q 1124 78 1211 156 q 871 0 1036 0 l 632 0 l 632 483 l 244 483 l 244 0 l 122 0 m 753 106 l 869 106 q 1032 154 979 106 q 1085 297 1085 203 q 1032 438 1085 392 q 869 485 979 485 l 753 485 l 753 106 z "},"Ћ":{"ha":907,"x_min":14,"x_max":828,"o":"m 226 0 l 226 883 l 14 883 l 14 992 l 649 992 l 649 883 l 347 883 l 347 515 l 311 560 q 429 592 372 582 q 543 603 486 603 q 758 533 688 603 q 828 315 828 463 l 828 0 l 707 0 l 707 307 q 663 452 707 407 q 519 497 618 497 q 419 486 469 497 q 308 450 368 475 l 347 519 l 347 0 l 226 0 z "},"Ќ":{"ha":776,"x_min":122,"x_max":769,"o":"m 632 0 l 338 501 l 338 531 l 615 992 l 746 992 l 453 510 l 453 540 l 769 0 l 632 0 m 122 0 l 122 992 l 244 992 l 244 0 l 122 0 m 219 464 l 219 572 l 424 572 l 424 464 l 219 464 m 353 1074 l 353 1090 l 482 1296 l 622 1296 l 622 1283 l 431 1074 l 353 1074 z "},"Ў":{"ha":744,"x_min":7,"x_max":744,"o":"m 179 -15 q 131 -11 154 -15 q 88 0 108 -7 l 88 111 q 124 104 107 107 q 165 101 142 101 q 240 121 208 101 q 297 189 271 140 q 351 324 322 238 l 349 214 l 7 992 l 140 992 l 358 488 q 369 459 364 475 q 381 426 375 443 q 392 392 388 410 l 397 392 q 406 422 401 407 q 415 453 410 438 q 424 482 419 469 l 615 992 l 744 992 l 471 282 q 391 113 431 178 q 301 16 351 47 q 179 -15 251 -15 m 392 1069 q 249 1115 301 1069 q 188 1246 197 1160 l 294 1246 q 325 1174 301 1197 q 392 1151 349 1151 q 458 1174 435 1151 q 489 1246 482 1197 l 596 1246 q 535 1115 588 1160 q 392 1069 482 1069 z "},"Џ":{"ha":908,"x_min":122,"x_max":786,"o":"m 396 -212 l 396 0 l 122 0 l 122 992 l 244 992 l 244 107 l 664 107 l 664 992 l 786 992 l 786 0 l 513 0 l 513 -212 l 396 -212 z "},"А":{"ha":790,"x_min":0,"x_max":790,"o":"m 664 0 l 561 308 l 228 308 l 126 0 l 0 0 l 333 994 l 456 994 l 790 0 l 664 0 m 432 728 q 420 772 428 744 q 405 827 413 799 q 393 874 397 856 q 383 822 389 849 q 369 772 376 796 q 357 728 363 747 l 260 418 l 529 418 l 432 728 z "},"Б":{"ha":775,"x_min":122,"x_max":713,"o":"m 124 0 l 122 992 l 653 992 l 653 883 l 244 883 l 244 594 l 368 594 q 626 521 539 594 q 713 301 713 447 q 625 78 713 156 q 371 0 538 0 l 124 0 m 246 106 l 369 106 q 534 153 481 106 q 588 300 588 201 q 535 443 588 397 q 368 489 482 489 l 246 489 l 246 106 z "},"В":{"ha":815,"x_min":122,"x_max":747,"o":"m 122 0 l 122 992 l 383 992 q 634 935 549 992 q 719 749 719 878 q 700 642 719 688 q 642 567 681 596 q 547 526 604 538 l 547 519 q 653 481 607 508 q 723 405 699 453 q 747 283 747 357 q 710 131 747 194 q 604 33 674 67 q 438 0 535 0 l 122 0 m 244 104 l 418 104 q 574 153 528 104 q 619 292 619 203 q 598 385 619 346 q 530 445 576 424 q 407 467 483 467 l 244 467 l 244 104 m 244 569 l 399 569 q 551 611 508 569 q 593 736 593 653 q 543 851 593 814 q 386 888 493 888 l 244 888 l 244 569 z "}}}
